<svg xmlns="http://www.w3.org/2000/svg" width="130" height="131" viewBox="0 0 130 131" fill="none">
  <path d="M2.06884 77.5764C9.36602 105.025 34.298 123.477 61.7058 123.477C65.0608 123.477 68.4564 123.184 71.8548 122.618L73.4051 128.447C73.5938 129.202 74.2019 129.768 74.9567 129.957C75.1245 129.999 75.2713 130.02 75.439 130.02C76.0262 130.02 76.6133 129.768 77.0117 129.307L87.5591 117.375C88.0204 116.851 88.1881 116.117 88.0204 115.446C87.8317 114.775 87.3284 114.23 86.6784 113.999L71.6031 108.862C70.8692 108.61 70.0724 108.778 69.5062 109.323C68.9401 109.848 68.7094 110.644 68.9191 111.399L70.8273 118.571C41.9112 123.205 13.7919 105.109 6.18014 76.528C-2.0187 45.8295 16.3081 14.2713 46.9842 6.13535C77.6422 -2.00059 109.199 16.3053 117.336 46.9842C119.769 56.1476 119.895 65.8352 117.735 74.9986L121.824 75.9632C124.151 66.1288 124.025 55.7282 121.404 45.8938C112.66 13.0145 78.7955 -6.65429 45.8938 2.06878C12.9936 10.8128 -6.65283 44.6776 2.07023 77.5792L2.06884 77.5764ZM82.2959 116.935L76.4246 123.582L73.9083 114.083L82.2959 116.935Z" fill="#9F7E41"/>
  <path d="M111.128 81.7703C100.727 81.7703 92.2559 90.2417 92.2559 100.642C92.2559 111.041 100.727 119.513 111.128 119.513C121.528 119.513 130 111.041 130 100.642C130 90.2417 121.528 81.7703 111.128 81.7703ZM111.128 115.321C103.034 115.321 96.4496 108.736 96.4496 100.642C96.4496 92.5469 103.032 85.9626 111.128 85.9626C119.223 85.9626 125.806 92.5469 125.806 100.642C125.806 108.736 119.223 115.321 111.128 115.321Z" fill="#9F7E41"/>
  <path d="M109.031 99.7827L103.347 105.465L106.304 108.422L112.594 102.131C112.993 101.733 113.203 101.209 113.203 100.642V92.2549H109.009V99.7827H109.031Z" fill="#9F7E41"/>
  <path fill-rule="evenodd" clip-rule="evenodd" d="M37.6785 26.0468C37.2567 26.0856 36.8844 26.1445 36.8511 26.1777C36.8178 26.2109 37.9451 27.4043 39.356 28.8296C40.767 30.2549 41.9902 31.5713 42.0742 31.755C42.1582 31.9386 42.2657 32.1552 42.3129 32.2363C42.4987 32.5553 42.7191 33.0864 42.7819 33.367C42.8183 33.5293 42.8967 33.7235 42.9562 33.7986C43.1154 33.9996 43.1045 36.8098 42.9438 36.9705C42.8763 37.0382 42.8209 37.1775 42.8209 37.2803C42.8209 37.782 42.0869 39.1315 41.4155 39.8643C40.5495 40.8093 39.279 41.6755 38.7585 41.6755C38.6675 41.6755 38.5929 41.717 38.5929 41.7678C38.5929 41.8185 38.3828 41.8872 38.1259 41.9203C37.869 41.9534 37.5821 42.0225 37.4882 42.0738C37.2677 42.1942 35.3776 42.1958 35.3033 42.0757C35.2722 42.0253 35.0042 41.9539 34.7075 41.9169C34.411 41.8798 34.1683 41.8138 34.1683 41.7703C34.1683 41.7267 34.0245 41.6618 33.8488 41.6259C33.6731 41.59 33.345 41.4317 33.1199 41.2739C32.8947 41.1162 32.6591 40.9872 32.5964 40.9872C32.5337 40.9872 31.2983 39.8147 29.8512 38.3816C28.404 36.9485 27.1935 35.8024 27.1613 35.8348C27.1289 35.8671 27.1265 35.9561 27.1559 36.0327C27.1852 36.1092 27.1545 36.2378 27.0876 36.3184C26.9357 36.5013 26.996 39.2303 27.1562 39.4303C27.214 39.5025 27.292 39.8152 27.3295 40.1253C27.367 40.4354 27.4338 40.7115 27.478 40.7387C27.5222 40.7661 27.5894 40.9548 27.6274 41.1582C27.6654 41.3616 27.733 41.5722 27.7776 41.6263C27.8222 41.6804 27.8589 41.7468 27.8591 41.7738C27.8603 41.9465 28.0295 42.4652 28.1799 42.7571C28.2775 42.9463 28.5255 43.4452 28.731 43.8657C29.323 45.077 29.4802 45.3603 29.7683 45.7352C29.917 45.9286 30.0389 46.1231 30.0392 46.1673C30.0408 46.4096 32.3842 48.7549 32.6247 48.7549C32.6571 48.7549 32.8755 48.8844 33.1102 49.0428C33.3448 49.2011 33.6678 49.362 33.8279 49.4005C33.9881 49.4388 34.1745 49.5138 34.2421 49.567C34.3097 49.6203 34.365 49.631 34.365 49.5906C34.365 49.5503 34.4225 49.5651 34.4928 49.6235C34.563 49.6818 34.8073 49.7594 35.0357 49.7958C35.2641 49.8324 35.4731 49.8981 35.5001 49.942C35.5273 49.9858 35.8591 50.0522 36.2376 50.0894C36.6161 50.1267 36.9487 50.1943 36.9766 50.2395C37.0045 50.2846 37.1583 50.2954 37.3183 50.2635C37.4783 50.2314 37.6647 50.2511 37.7324 50.3071C37.8001 50.3631 38.4197 50.441 39.1092 50.4802C39.7986 50.5193 40.3628 50.5832 40.3628 50.6221C40.3628 50.661 40.6764 50.7191 41.0595 50.7513C41.4428 50.7834 41.8169 50.86 41.891 50.9215C41.9651 50.983 42.0688 51.0066 42.1215 50.9741C42.1742 50.9414 42.2451 50.9598 42.2792 51.0148C42.3131 51.0697 42.4378 51.1135 42.5563 51.1121C42.7115 51.1102 43.9131 52.2655 46.8522 55.2424C49.0965 57.5155 50.9921 59.375 51.0647 59.3747C51.1373 59.3743 51.3092 59.2855 51.4467 59.1773C51.5842 59.0692 51.7534 58.9807 51.8228 58.9807C51.8921 58.9807 51.9635 58.9475 51.9816 58.9069C52.0218 58.8164 52.8087 58.4309 53.145 58.337C53.2802 58.2992 53.4351 58.2337 53.4892 58.1913C53.5433 58.1489 53.8751 58.0595 54.2266 57.9926C54.5781 57.9256 54.9279 57.8219 55.0038 57.7621C55.196 57.6105 59.2578 57.6121 59.4473 57.7638C59.5232 57.8246 59.8024 57.9058 60.0677 57.9442L60.5501 58.014L62.4489 56.1171L64.3479 54.22L62.5566 52.3691C61.5713 51.3511 58.8184 48.5497 56.4389 46.1436C54.0595 43.7375 52.0831 41.6926 52.0471 41.5993C51.8662 41.1311 51.8375 41.0262 51.8573 40.9062C51.8691 40.8346 51.835 40.7232 51.7815 40.6587C51.728 40.5942 51.6531 40.144 51.6151 39.6582C51.5772 39.1723 51.5131 38.7307 51.4727 38.6766C51.4323 38.6225 51.3675 38.0694 51.3288 37.4475C51.2899 36.8256 51.2127 36.2613 51.157 36.1937C51.1013 36.1259 51.0819 35.9396 51.1139 35.7795C51.1459 35.6196 51.1351 35.4658 51.0899 35.4378C51.0447 35.4099 50.9778 35.1219 50.9411 34.7979C50.9045 34.4739 50.8373 34.1858 50.7918 34.1578C50.7464 34.1296 50.6781 33.9406 50.64 33.7376C50.6019 33.5346 50.5423 33.324 50.5075 33.2695C50.4726 33.2149 50.4423 33.1483 50.44 33.1212C50.4353 33.0654 49.8814 31.9657 49.6006 31.4547C49.4118 31.1111 47.9527 29.5815 47.8137 29.5815C47.7722 29.5815 47.4614 29.3572 47.1231 29.083C46.7849 28.8089 46.3754 28.5222 46.2131 28.4459C45.898 28.2978 45.5562 28.0924 45.4757 28.0027C45.4487 27.9726 45.2717 27.8869 45.0824 27.8122C44.8931 27.7374 44.5732 27.574 44.3715 27.4489C44.1697 27.324 43.9625 27.2217 43.9109 27.2217C43.8592 27.2217 43.6924 27.1701 43.5402 27.1071C43.388 27.0439 43.2413 26.985 43.2142 26.9759C43.1872 26.9669 43.0405 26.9079 42.8883 26.8447C42.7361 26.7817 42.5506 26.7301 42.4762 26.7301C42.4018 26.7301 42.3167 26.691 42.2871 26.6431C42.2576 26.5953 42.0348 26.5264 41.792 26.49C41.5493 26.4535 41.3261 26.384 41.296 26.3354C41.266 26.2868 41.1759 26.2722 41.0958 26.303C41.0158 26.3336 40.8922 26.3106 40.8213 26.2517C40.7503 26.1928 40.3638 26.1201 39.9622 26.09C39.5607 26.0599 39.0551 26.0221 38.8388 26.0058C38.6224 25.9897 38.1003 26.0082 37.6785 26.0468ZM91.0985 30.7123C91.0311 30.7934 90.9188 30.8597 90.8488 30.8597C90.7788 30.8597 90.7068 30.893 90.6887 30.9335C90.6597 30.9988 90.0632 31.4176 89.6058 31.694C89.5149 31.7489 89.0503 32.0593 88.5734 32.3838C88.0965 32.7082 87.662 32.9912 87.6079 33.0126C87.5538 33.034 87.3483 33.1778 87.1513 33.3321C86.9543 33.4865 86.7643 33.6128 86.7292 33.6128C86.6942 33.6128 86.4259 33.7898 86.133 34.0061C85.8402 34.2225 85.5733 34.3994 85.5399 34.3994C85.5063 34.3994 85.2202 34.5985 84.904 34.8419C84.5878 35.0853 84.2993 35.2844 84.2629 35.2844C84.2266 35.2844 84.0583 35.3839 83.8888 35.5056C83.7194 35.6273 83.5066 35.7711 83.4159 35.8251C83.3254 35.8792 82.86 36.189 82.382 36.5134C81.9038 36.8379 81.4681 37.1204 81.4138 37.1411C81.3596 37.1619 81.1307 37.3278 80.9053 37.5098C80.6798 37.6918 80.4586 37.842 80.4137 37.8434C80.3298 37.8459 79.9877 38.5212 79.9877 38.684C79.9877 38.7338 79.8058 39.1508 79.5835 39.6105C79.3612 40.0702 79.0341 40.7561 78.8565 41.1347C78.679 41.5132 78.347 42.2177 78.1188 42.7002C77.8906 43.1828 77.6946 43.6253 77.6833 43.6835C77.5697 44.2677 76.9015 44.9779 69.1863 52.7143L61.0355 60.8875L60.781 60.7207C60.6409 60.6289 60.4761 60.5539 60.4148 60.5539C60.3535 60.5539 60.1639 60.49 59.9935 60.4118C58.9735 59.944 55.4762 59.9364 54.4724 60.3999C54.1305 60.5578 52.5545 61.3274 52.1745 61.5221C51.8884 61.6687 31.7211 81.8846 31.7144 82.0316C31.7121 82.0821 31.6259 82.2148 31.5229 82.3265C31.1192 82.764 30.6251 83.7414 30.2023 84.9384C30.0168 85.4639 29.8427 86.8723 29.8423 87.8515C29.842 88.5045 30.0483 89.7478 30.2317 90.1988C30.3211 90.4185 31.1934 92.1938 31.4017 92.5798C31.6001 92.9476 33.3134 94.6198 33.6842 94.8077C33.7612 94.8467 34.0012 94.9863 34.2175 95.1178C34.6029 95.3521 34.8037 95.4532 35.3974 95.7116C35.886 95.9242 36.0791 95.9829 36.2158 95.9604C36.2874 95.9486 36.4067 95.9892 36.4808 96.0507C36.8113 96.325 40.4739 96.3242 40.8046 96.0498C40.8814 95.986 40.9923 95.9636 41.0511 96C41.1099 96.0364 41.2113 96.0241 41.2766 95.9729C41.3418 95.9215 41.5275 95.8479 41.6892 95.8092C41.8508 95.7703 42.0057 95.7082 42.0333 95.671C42.0609 95.6338 42.3883 95.4494 42.7609 95.261C43.1335 95.0726 43.5538 94.8589 43.695 94.7862C43.9771 94.6409 64.2449 74.325 64.2516 74.1808C64.2539 74.1317 64.4217 73.8661 64.6245 73.5906C64.8273 73.3151 65.0745 72.9128 65.1738 72.6967C65.2731 72.4806 65.4146 72.1825 65.4882 72.0343C65.5618 71.8861 65.6746 71.4879 65.7388 71.1494C65.803 70.8108 65.8937 70.4918 65.9406 70.4404C66.0543 70.3155 66.05 67.4803 65.9357 67.2632C65.8864 67.1693 65.7927 66.8292 65.7277 66.5074C65.6062 65.907 65.5881 65.8547 65.3012 65.2839L65.1336 64.9502L73.2244 56.8576C79.8165 50.2641 81.4153 48.7141 81.8559 48.4898C82.1533 48.3384 82.4188 48.2141 82.4459 48.2137C82.4729 48.2133 82.923 48.0031 83.4461 47.7465C83.9692 47.4899 84.4255 47.28 84.46 47.28C84.4947 47.28 84.9958 47.0545 85.5738 46.779C86.1517 46.5035 86.9658 46.1163 87.3827 45.9187C87.7995 45.7211 88.1424 45.5041 88.1447 45.4364C88.1468 45.3689 88.1943 45.3135 88.2501 45.3135C88.3059 45.3135 88.3796 45.236 88.414 45.1414C88.4483 45.0467 88.6018 44.8081 88.755 44.6111C88.9083 44.414 89.0336 44.219 89.0336 44.1779C89.0336 44.1368 89.1443 43.958 89.2794 43.7807C89.4146 43.6034 89.5253 43.4112 89.5253 43.3536C89.5253 43.2959 89.5709 43.2487 89.6266 43.2487C89.6825 43.2487 89.7561 43.1712 89.7905 43.0766C89.8249 42.9819 89.9783 42.7433 90.1315 42.5462C90.2848 42.3492 90.4102 42.1582 90.4102 42.1218C90.4102 42.0854 90.5208 41.9107 90.656 41.7334C90.7912 41.5561 90.9018 41.3787 90.9018 41.3392C90.9018 41.2996 91.0915 41.0162 91.3232 40.7093C91.5551 40.4025 91.798 40.0408 91.8633 39.9056C92.0122 39.5973 92.136 39.4038 92.5979 38.758C92.8008 38.4745 92.9666 38.2138 92.9666 38.1788C92.9666 38.1437 93.0994 37.9473 93.2616 37.7425C93.4238 37.5377 93.5566 37.3413 93.5566 37.3062C93.5566 37.2712 93.7336 37.0029 93.9499 36.7101C94.1662 36.4173 94.3432 36.1489 94.3432 36.1139C94.3432 36.0788 94.4759 35.8825 94.6382 35.6777C94.8004 35.4729 94.9331 35.2754 94.9331 35.239C94.9331 35.2027 95.0513 35.0179 95.1958 34.8285L95.4585 34.4842L93.5006 32.5245C92.4238 31.4466 91.4703 30.5648 91.3818 30.5648C91.2933 30.5648 91.1658 30.6311 91.0985 30.7123ZM69.8839 63.6274C68.1392 65.374 67.8371 65.756 68.0821 65.9075C68.1316 65.938 68.2032 66.2953 68.2413 66.7012C68.2793 67.1072 68.3494 67.4636 68.3971 67.493C68.5087 67.562 68.5112 70.0914 68.3997 70.0914C68.3534 70.0914 68.2893 70.4049 68.2572 70.7881C68.225 71.1714 68.1573 71.5364 68.1066 71.5993C68.0558 71.6622 67.984 71.8977 67.947 72.1226C67.9099 72.3475 67.8178 72.6129 67.7423 72.7125C67.6668 72.8121 67.6036 72.9538 67.6019 73.0275C67.5974 73.2188 66.9054 74.5945 66.7478 74.7253C66.675 74.7857 66.6156 74.8853 66.6156 74.9469C66.6156 75.0083 67.5226 75.9648 68.6312 77.0725C69.7398 78.1801 70.6469 79.1366 70.6469 79.198C70.6469 79.2596 70.7104 79.3625 70.7881 79.427C70.8656 79.4914 70.9593 79.6849 70.996 79.8569C71.0328 80.029 71.1002 80.2162 71.1457 80.273C71.1912 80.3299 71.2786 80.9936 71.3401 81.7479C71.4014 82.5023 71.4885 83.2079 71.5337 83.3161C71.5788 83.4242 71.6438 83.9049 71.6781 84.3841C71.7124 84.8632 71.7776 85.3278 71.8229 85.4165C71.8683 85.5051 71.9573 85.923 72.0209 86.3452C72.1617 87.2804 72.2616 87.5516 73.0601 89.1664C73.7931 90.6487 73.846 90.7322 74.6302 91.6447C75.3246 92.4526 77.0805 94.0827 77.2563 94.0827C77.2994 94.0827 77.5176 94.2152 77.7413 94.3772C78.1444 94.6693 79.3152 95.2626 79.4884 95.2626C79.538 95.2626 79.7259 95.3364 79.906 95.4267C80.4642 95.7064 80.5244 95.7279 80.9497 95.7997C81.1772 95.8382 81.3845 95.9041 81.4106 95.9462C81.4367 95.9883 81.5699 96.0014 81.7067 95.9752C81.8434 95.9491 82.0283 95.9882 82.1174 96.0621C82.3299 96.2385 86.1248 96.257 86.4868 96.0834C86.6167 96.021 87.0436 95.9175 87.4356 95.8533C87.8274 95.789 88.1699 95.7011 88.1966 95.6579C88.2233 95.6147 88.3673 95.5503 88.5165 95.5147C88.9081 95.4214 89.806 95.0522 90.2627 94.7968C90.479 94.6758 90.7666 94.5219 90.9018 94.4547C91.037 94.3876 91.183 94.2764 91.2263 94.2076C91.2695 94.1389 91.358 94.0819 91.4229 94.081C91.4878 94.08 91.8357 93.8256 92.1961 93.5156C92.5564 93.2056 93.0321 92.8056 93.2531 92.6269C93.4741 92.448 93.6549 92.256 93.6549 92.2001C93.6549 92.1442 93.8783 91.848 94.1514 91.5419C94.6269 91.0088 95.499 89.6242 95.8487 88.8469C95.9401 88.6441 96.0795 88.3344 96.1588 88.1586C96.238 87.9828 96.3327 87.7063 96.369 87.5441C96.4053 87.3818 96.4701 87.204 96.513 87.149C96.5559 87.0939 96.6445 86.6515 96.7099 86.1657C96.7753 85.68 96.867 85.2405 96.9134 85.1892C97.0418 85.0474 97.0214 81.8904 96.8921 81.8904C96.8325 81.8904 96.7984 81.7502 96.8139 81.5694C96.8291 81.3929 96.816 81.2049 96.7848 81.1516C96.7536 81.0983 96.6961 80.8334 96.6572 80.563C96.6181 80.2926 96.5529 80.0271 96.5121 79.973C96.4713 79.919 96.3604 79.6314 96.2656 79.3339C96.0292 78.5924 95.2537 77.0023 94.9159 76.5667C94.7631 76.3696 94.6382 76.1548 94.6382 76.0893C94.6382 75.9404 91.9456 73.2378 91.7973 73.2378C91.7377 73.2378 91.4786 73.094 91.2216 72.9182C90.5525 72.4606 90.4237 72.3858 89.8202 72.1037C89.5228 71.9646 89.1467 71.7884 88.9845 71.712C88.8222 71.6356 88.5568 71.5433 88.3945 71.507C88.2323 71.4706 88.0553 71.4079 88.0012 71.3674C87.9471 71.3271 87.5711 71.2412 87.1655 71.1764C86.7599 71.1116 86.3561 71.021 86.2682 70.9751C86.1803 70.9292 85.6813 70.8603 85.1594 70.822C84.6375 70.7837 84.1869 70.7143 84.1581 70.6677C84.1293 70.6211 83.8837 70.583 83.6121 70.583C82.8918 70.583 81.2321 70.3791 81.1234 70.2772C81.0721 70.229 80.9486 70.1897 80.8491 70.1897C80.3946 70.1897 79.6815 69.5522 75.9077 65.7718C73.6907 63.5508 71.8541 61.7338 71.8263 61.7338C71.7985 61.7338 70.9244 62.5859 69.8839 63.6274ZM53.0779 66.2014C52.8533 66.2676 51.2024 67.8564 47.2341 71.8251L41.7036 77.3566L41.66 77.9584C41.6199 78.513 41.6381 78.5826 41.8929 78.8487C42.1391 79.1057 42.2346 79.1373 42.7646 79.1373H43.3597L48.9532 73.5438L54.5469 67.9503L54.5048 67.3691C54.4722 66.919 54.4085 66.7334 54.2225 66.5469C53.8927 66.216 53.4654 66.087 53.0779 66.2014ZM83.1808 78.0597C83.146 78.116 83.0365 78.1363 82.9375 78.1049C82.8385 78.0734 82.732 78.0887 82.701 78.1389C82.67 78.189 82.4893 78.2592 82.2995 78.2948C82.1096 78.3304 81.9542 78.3922 81.9542 78.4319C81.9542 78.4717 81.8326 78.559 81.6838 78.6261C81.0917 78.8928 80.8315 79.0823 80.2798 79.6479C79.9634 79.9723 79.6244 80.4323 79.5266 80.6704C79.4287 80.9083 79.3189 81.1032 79.2827 81.1034C79.2465 81.1036 79.186 81.2475 79.1484 81.4233C79.1109 81.5991 79.0407 81.7921 78.9925 81.8521C78.8107 82.0786 78.7091 83.4769 78.8098 84.3661C78.8643 84.847 78.945 85.3163 78.9893 85.409C79.0334 85.5018 79.1501 85.7324 79.2485 85.9217C79.347 86.111 79.4944 86.3986 79.5763 86.5608C79.8399 87.0829 81.0846 88.2259 81.7133 88.5233C82.0351 88.6754 82.3792 88.8406 82.4779 88.8903C82.5767 88.9401 82.8766 89.0067 83.1446 89.0385C83.4124 89.0703 83.655 89.1341 83.6836 89.1805C83.7123 89.2268 84.0181 89.2647 84.3632 89.2647C84.7083 89.2647 85.0141 89.2268 85.0428 89.1805C85.0714 89.1341 85.314 89.0703 85.5818 89.0385C85.8498 89.0067 86.1497 88.9413 86.2485 88.8929C86.3472 88.8445 86.6935 88.6772 87.018 88.5208C87.8113 88.1388 88.9525 86.9789 89.3381 86.1628C89.4951 85.8305 89.6236 85.4942 89.6236 85.4156C89.6236 85.3371 89.6789 85.2175 89.7465 85.1499C89.9123 84.9843 89.92 82.1789 89.7552 81.9794C89.6925 81.9034 89.6101 81.675 89.5722 81.472C89.5342 81.269 89.3754 80.9264 89.2193 80.7109C89.0631 80.4952 88.9353 80.284 88.9353 80.2415C88.9353 80.1478 87.7285 78.9406 87.6348 78.9406C87.5984 78.9406 87.3767 78.8111 87.1421 78.6527C86.9075 78.4944 86.5845 78.3335 86.4243 78.295C86.2641 78.2567 86.0834 78.1864 86.0226 78.1388C85.9619 78.0912 85.8447 78.0782 85.7622 78.1099C85.6797 78.1415 85.5829 78.1202 85.5472 78.0624C85.461 77.923 83.2669 77.9204 83.1808 78.0597Z" fill="#9F7E41"/>
</svg>