<svg xmlns="http://www.w3.org/2000/svg" width="54" height="56" viewBox="0 0 54 56" fill="none">
  <path d="M47.7334 0C50.8718 0 53.416 2.54421 53.416 5.68262V42.6191C53.416 44.7114 51.7202 46.4082 49.6279 46.4082H41.1045L42.7812 49.5039C44.2471 52.2101 42.2876 55.5 39.21 55.5H5.30371C2.37456 55.5 2.37091e-05 53.1254 0 50.1963V14.3955C0.000214138 11.4665 2.37468 9.09182 5.30371 9.0918H9.84961V5.68262C9.84961 2.54427 12.3939 0.000106431 15.5322 0H47.7334ZM5.68262 48.4912C5.68262 49.5373 6.53101 50.3857 7.57715 50.3857H35.1982C35.7916 50.3855 36.1541 49.7341 35.8418 49.2295L34.0957 46.4082H29.1709L23.1094 35.4219V46.4082H9.84961V13.2598H5.68262V48.4912ZM16.29 5.30371C15.2439 5.30374 14.3955 6.15213 14.3955 7.19824V9.0918H36.1787C36.1787 9.0918 42.9981 11.1087 43.5664 20.2344C44.1324 29.3237 35.4907 31.8027 35.4219 31.8223L42.7227 41.8613H46.0293C47.0752 41.8612 47.9227 41.0137 47.9229 39.9678V7.57715C47.9229 6.32186 46.9057 5.30383 45.6504 5.30371H16.29Z" fill="#09041B"/>
  <path d="M19.5102 43.1876H14.017V13.2593H34.0955C34.0955 13.2593 40.157 14.017 40.157 20.6466C40.157 27.2763 34.0955 28.6023 34.0955 28.6023H28.413L38.6416 42.8088H32.7696L23.1092 28.6023V23.2985H33.3379C33.3379 23.2985 34.8532 22.7303 34.8532 21.2149C34.8532 19.6996 33.3379 18.7525 33.3379 18.7525L19.5102 18.9419V43.1876Z" fill="#FFE81E"/>
</svg>