<svg xmlns="http://www.w3.org/2000/svg" width="37" height="41" viewBox="0 0 37 41" fill="none">
  <path d="M2.3125 24.3438C2.3125 15.375 6.35938 8.96875 11.5625 8.96875C15.6094 8.96875 18.5 14.0938 18.5 14.0938C20.8125 17.9375 20.8125 24.9844 17.3438 17.2969C17.3438 17.2969 14.4531 12.1719 11.5625 12.1719C7.51562 12.1719 5.38315 19.8594 5.38315 24.3438C5.38315 25.625 5.78125 28.1875 8.09375 28.1875V32.0312C5.78125 32.0312 2.3125 30.1094 2.3125 24.3438Z" fill="url(#paint0_radial_566_71779)"/>
  <path d="M25.4375 8.96875V12.8125C29.1375 13.325 31.2188 19.8594 31.2188 24.3438C31.2188 25.625 30.6406 28.1875 28.9062 28.1875C26.0156 28.1875 22.6917 21.1149 19.6562 15.9421C18.0448 13.196 16.4409 15.5538 17.6639 17.9375C20.5619 23.5854 23.4638 32.0312 28.9062 32.0312C31.2188 32.0312 34.6875 30.1094 34.6875 24.3438C34.6875 12.8125 28.3281 8.96875 25.4375 8.96875Z" fill="url(#paint1_radial_566_71779)"/>
  <path d="M8.09375 28.1875C12.1406 28.1875 16.7656 8.96875 25.4375 8.96875V12.8125C18.5 12.8125 15.6094 32.0312 8.09375 32.0312V28.1875Z" fill="#0768E1"/>
  <defs>
    <radialGradient id="paint0_radial_566_71779" cx="0" cy="0" r="1" gradientTransform="matrix(4.04687 -22.4219 15.7378 3.48785 8.09375 30.75)" gradientUnits="userSpaceOnUse">
      <stop stop-color="#0768E1"/>
      <stop offset="1" stop-color="#0082FB"/>
    </radialGradient>
    <radialGradient id="paint1_radial_566_71779" cx="0" cy="0" r="1" gradientTransform="matrix(12.1406 6.40625 3.03222 -7.05605 25.4375 11.5313)" gradientUnits="userSpaceOnUse">
      <stop stop-color="#0768E1"/>
      <stop offset="1" stop-color="#0082FB"/>
    </radialGradient>
  </defs>
</svg>