<svg xmlns="http://www.w3.org/2000/svg" width="130" height="131" viewBox="0 0 130 131" fill="none">
  <path d="M2.06884 77.5764C9.36602 105.025 34.298 123.477 61.7058 123.477C65.0608 123.477 68.4564 123.184 71.8548 122.618L73.4051 128.447C73.5938 129.202 74.2019 129.768 74.9567 129.957C75.1245 129.999 75.2713 130.02 75.439 130.02C76.0262 130.02 76.6133 129.768 77.0117 129.307L87.5591 117.375C88.0204 116.851 88.1881 116.117 88.0204 115.446C87.8317 114.775 87.3284 114.23 86.6784 113.999L71.6031 108.862C70.8692 108.61 70.0724 108.778 69.5062 109.323C68.9401 109.848 68.7094 110.644 68.9191 111.399L70.8273 118.571C41.9112 123.205 13.7919 105.109 6.18014 76.528C-2.0187 45.8295 16.3081 14.2713 46.9842 6.13535C77.6422 -2.00059 109.199 16.3053 117.336 46.9842C119.769 56.1476 119.895 65.8352 117.735 74.9986L121.824 75.9632C124.151 66.1288 124.025 55.7282 121.404 45.8938C112.66 13.0145 78.7955 -6.65429 45.8938 2.06878C12.9936 10.8128 -6.65283 44.6776 2.07023 77.5792L2.06884 77.5764ZM82.2959 116.935L76.4246 123.582L73.9083 114.083L82.2959 116.935Z" fill="#9F7E41"/>
  <path d="M111.128 81.7703C100.727 81.7703 92.256 90.2417 92.256 100.642C92.256 111.041 100.727 119.513 111.128 119.513C121.529 119.513 130 111.041 130 100.642C130 90.2417 121.529 81.7703 111.128 81.7703ZM111.128 115.321C103.034 115.321 96.4498 108.736 96.4498 100.642C96.4498 92.5469 103.033 85.9626 111.128 85.9626C119.223 85.9626 125.806 92.5469 125.806 100.642C125.806 108.736 119.223 115.321 111.128 115.321Z" fill="#9F7E41"/>
  <path d="M109.031 99.7827L103.347 105.465L106.304 108.422L112.595 102.131C112.993 101.733 113.203 101.209 113.203 100.642V92.2549H109.009V99.7827H109.031Z" fill="#9F7E41"/>
  <path d="M23.0586 58.7045C23.0586 79.5266 39.9805 96.4485 60.8026 96.4485C81.6247 96.4485 98.5467 79.5266 98.5467 58.7045C98.5467 37.881 81.6247 20.9604 60.8026 20.9604C39.9805 20.9604 23.0586 37.881 23.0586 58.7045ZM27.2524 58.7045C27.2524 52.1818 29.1605 46.1022 32.3898 40.9438L33.4801 41.8455C36.3109 44.173 37.59 47.9684 36.7094 51.5541L35.8706 55.2236C35.0528 58.7674 35.9125 62.395 38.2611 65.1629C40.5886 67.9098 43.9436 69.3777 47.5712 69.168L51.4086 68.9373C55.3297 68.7276 58.6638 71.6633 58.9574 75.5635C59.1251 78.2685 57.8041 80.8267 55.4975 82.2316C54.3861 82.8816 53.1699 83.2171 51.8908 83.2171L44.5727 83.3429C42.1193 83.3849 39.7289 83.1752 37.4642 82.7768C31.1526 76.6748 27.2314 68.1405 27.2314 58.7031L27.2524 58.7045ZM60.8026 92.2547C54.5539 92.2547 48.7245 90.5129 43.713 87.5158H44.6356L51.9328 87.3899C53.9039 87.3899 55.8749 86.8447 57.6573 85.8173C61.3268 83.5946 63.4237 79.5476 63.1511 75.2489C62.6689 69.0631 57.4476 64.408 51.1779 64.7212L47.3196 64.9518C45.055 65.1 42.9161 64.155 41.4483 62.4355C39.9595 60.6742 39.4143 58.3899 39.9386 56.1449L40.7563 52.4963C42.0145 47.4008 40.1692 41.928 36.1013 38.5953L34.7802 37.5049C39.6031 31.5917 46.418 27.356 54.1765 25.8043L54.3652 25.972C56.3992 27.6705 58.6219 28.9496 60.9704 29.7674C62.6059 30.3545 63.8012 31.8643 64.1786 33.7515C64.5561 35.6806 63.9689 37.5259 62.6269 38.7001L60.8865 40.2728C58.0138 42.831 57.0702 47.1087 58.517 50.904L59.3767 53.1687C61.1801 57.8028 66.0029 60.1933 70.3644 58.5787L81.5409 54.5107C82.9458 54.0284 84.4556 54.322 85.6927 55.3075C86.6363 56.0834 87.2864 57.2157 87.538 58.4529C88.167 61.8918 90.5575 64.5967 93.598 65.6452C90.3897 80.8253 76.9067 92.2547 60.7817 92.2547H60.8026ZM94.3529 58.7045C94.3529 59.6061 94.29 60.4854 94.2271 61.3675C92.9689 60.6546 91.9834 59.3126 91.6898 57.677C91.2495 55.4753 90.0962 53.5042 88.3977 52.0783C86.0282 50.1492 82.9668 49.6026 80.1779 50.5685L68.9595 54.6351C66.7578 55.4529 64.2835 54.1319 63.3189 51.6575L62.4592 49.3929C61.6204 47.2121 62.1237 44.8007 63.7173 43.3748L65.4577 41.8021C67.8901 39.6214 68.9805 36.3083 68.3305 32.9323C67.6804 29.5563 65.4787 26.8933 62.4382 25.7819C61.893 25.5932 61.3478 25.3625 60.8236 25.1109C79.3182 25.1109 94.3529 40.168 94.3529 58.6611V58.7045Z" fill="#9F7E41"/>
</svg>