<svg xmlns="http://www.w3.org/2000/svg" width="114" height="23" viewBox="0 0 114 23" fill="none">
  <mask id="mask0_692_9125" style="mask-type:luminance" maskUnits="userSpaceOnUse" x="0" y="0" width="115" height="23">
    <path d="M114.007 0H0V22.8014H114.007V0Z" fill="white"/>
  </mask>
  <g mask="url(#mask0_692_9125)">
    <path d="M5.07343 17.8424L4.49864 17.8234L3.96186 17.6381L3.71959 17.2296L3.75759 16.8781L3.7766 15.8045L3.73859 15.415L3.75759 13.9139L3.7956 13.5434L3.73859 10.7835L3.7766 10.2657L3.75759 9.89516L3.7766 9.48663L3.73859 8.96885L3.7766 8.37507L3.57233 8.00454L3.22081 7.81928L1.45845 7.78128L1.08793 7.81928L0.75541 7.63402L0.58915 7.3015L0.551147 6.72671L0.58915 5.80041L0.570149 5.42988L0.793412 5.00236L1.14493 4.8171L2.44176 4.8931L3.01655 4.8361L4.10912 4.8931L4.44164 4.8171L4.85016 4.8551L5.23969 4.7981L5.59121 4.8171L5.96173 4.8931L7.46282 4.8171L7.81434 4.8551L8.20387 4.7981L8.55539 4.8361H9.70496L10.0565 5.07836L10.2607 5.44889L10.2417 7.20649L10.0185 7.61502L9.70496 7.81928L9.37244 7.80028L8.98292 7.85728L8.29412 7.76228L7.57208 7.80028L7.22056 8.02354L7.0733 8.57933L7.01629 10.1897L7.0733 10.5792L7.0353 13.5624L7.0923 13.9709L7.0543 14.3034L7.0733 15.0445L7.0353 15.434L7.0923 16.137L7.0353 17.1014L6.85003 17.6191L6.31325 17.8044L5.07343 17.8424Z" fill="#E9E2CF"/>
    <path d="M16.7981 17.8802L16.4275 17.7852H15.5202L14.9644 17.8612L14.2234 17.7852L13.8529 17.8232L13.2781 17.8422L12.7413 17.7662L12.3898 17.8042H12.0383L11.6677 17.6379L11.4825 17.1392L11.5395 15.4338L11.7437 15.1013L12.9646 14.7308L13.1688 14.175L13.1118 8.48412L12.9456 7.98534L12.5941 7.76208H12.2235L11.815 7.55781L11.6107 7.18729L11.6487 6.83577L11.5965 5.46768L11.7818 5.02116L12.1523 4.8359H12.575L12.9266 4.8929H14.4467L14.8172 4.81689L15.1497 4.8549H17.3918L17.7244 5.05916L17.9476 5.41068L17.9286 7.24429L17.7434 7.53881L17.3538 7.69082L16.9833 7.74307L16.5795 7.90933L16.4465 8.33686L16.3753 10.2085L16.4465 11.5433L16.4133 11.9518L16.4275 13.9897L16.3753 14.3412L16.5985 14.764L17.0403 14.916H17.4298L17.8384 15.1203L18.0616 15.4718V17.3054L17.8764 17.6569L17.5391 17.8422L16.7981 17.8802Z" fill="#E9E2CF"/>
    <path d="M20.9328 17.8614L20.5623 17.6192L20.3581 17.2297L20.3771 13.1349L20.3391 12.7834L20.3913 10.9118L20.3581 10.5412L20.3771 7.57706L20.3391 7.24454L20.3913 6.52249L20.3391 5.39192L20.5433 5.0024L20.9471 4.81714L21.4696 4.9644L21.8924 5.28267L22.3769 5.78145L22.6714 6.04271L23.156 6.61275L23.4125 6.83601L25.0988 8.70763L25.5074 9.07815L25.8399 9.50568L26.1012 9.76219L26.3197 10.0805L26.7092 10.2277L27.0465 10.0045L28.1723 8.85489L28.4145 8.54137L30.0439 6.87402L30.3052 6.54149L30.5284 6.33723L30.7659 6.04271L31.545 5.22566L31.9345 4.9834L32.4713 4.81714L32.8608 5.0214L33.0841 5.41093L33.0461 5.76245L33.0651 6.52249L33.0461 6.83601L33.0841 7.63406L33.0651 7.98558L33.0841 9.8192L33.0461 10.2277L33.0841 15.7856L33.0461 16.1561L33.1031 17.1204L32.8798 17.6572L32.4903 17.8614L30.2482 17.7854L29.8586 17.6762L29.7114 17.2487V16.9731L29.6734 16.1371L29.7114 15.8046L29.6734 15.1205L29.7114 14.3937L29.6544 13.6527L29.6924 12.6361L29.5451 12.3559L29.3029 12.4699L28.5428 13.2489L28.2863 13.4342L27.7685 14.0422L27.5452 14.2655L27.284 14.5457L26.9135 14.8213L26.5049 14.8023L26.1202 14.5267L25.6166 14.0422L25.3791 13.7477L24.6191 12.9876L24.3958 12.7121L24.0965 12.4699L23.9113 12.3939L23.745 12.5601V13.2822L23.783 13.6907L23.745 14.3605L23.764 14.75L23.7118 15.32L23.764 17.2677L23.5407 17.6002L23.023 17.8234L22.4292 17.7854L22.0254 17.8424L21.3034 17.8044L20.9328 17.8614Z" fill="#E9E2CF"/>
    <path d="M40.9382 17.8612L40.5676 17.8232L40.1971 17.8612L39.7696 17.8422L39.4181 17.7661L38.658 17.8232L38.3255 17.8042L37.917 17.8422L36.5869 17.8232L36.0311 17.5809L35.8791 17.0821L35.8458 16.6736L35.8981 15.3958L35.8458 15.0252L35.8791 14.6737L35.8981 11.6715L35.8458 11.339L35.8648 9.81891L35.8981 9.46739L35.8458 9.07786L35.8791 7.26325L35.8268 6.85473L35.8791 6.09468L35.8458 5.39164L36.0501 5.00211L36.4349 4.85486L36.8054 4.87386L37.1759 4.83585L37.5132 4.87386L37.8647 4.79785L38.2352 4.85486L39.7553 4.81685L40.1259 4.85486L40.4394 4.83585L40.8099 4.87386L41.2184 4.83585L42.7195 4.81685L43.052 4.89286H43.4416L43.8121 5.04012L43.9783 5.39164L44.0163 6.50321L43.9973 6.87373L44.0163 7.24425L43.8311 7.57677L43.4416 7.80004L43.09 7.81904L40.4394 7.78103L40.0879 7.85704L39.7363 7.83804L39.3278 7.9853L39.1615 8.33682V8.9116L39.3088 9.48639L39.6983 9.65265L40.7719 9.61465L41.5509 9.67165L41.9405 9.63365H43.033L43.4606 9.87591L43.6458 10.3937L43.5888 12.061L43.4606 12.4316L43.09 12.5788L42.6625 12.5598L42.292 12.5978L41.5319 12.5788L40.8289 12.6168L40.2351 12.5598L39.6793 12.5788L39.3468 12.7831L39.1805 13.1726V14.3412L39.3278 14.6737L39.7173 14.859L40.1259 14.821L40.4774 14.878L40.8812 14.859L41.2517 14.897L41.8645 14.821L42.8098 14.84L43.1613 14.897L43.5888 14.859L43.9783 15.0252L44.1826 15.3958V17.2674L43.9783 17.6569L43.5888 17.8232L40.9382 17.8612Z" fill="#E9E2CF"/>
    <path d="M54.9667 17.8424L54.392 17.8234L53.8552 17.6381L53.6129 17.2296L53.6509 16.8781L53.6699 15.8045L53.6319 15.415L53.6509 13.9139L53.6889 13.5434L53.6319 10.7835L53.6699 10.2657L53.6509 9.89516L53.6699 9.48663L53.6319 8.96885L53.6699 8.37507L53.4656 8.00454L53.1141 7.81928L51.3518 7.78128L50.9812 7.81928L50.6487 7.63402L50.4825 7.3015L50.4445 6.72671L50.4825 5.80041L50.4635 5.42988L50.6867 5.00236L51.0382 4.8171L52.3351 4.8931L52.9099 4.8361L54.0024 4.8931L54.3349 4.8171L54.7435 4.8551L55.133 4.7981L55.4845 4.8171L55.855 4.8931L57.3561 4.8171L57.7077 4.8551L58.0972 4.7981L58.4487 4.8361H59.5983L59.9498 5.07836L60.1541 5.44889L60.1351 7.20649L59.9118 7.61502L59.5983 7.81928L59.2657 7.80028L58.8762 7.85728L58.1874 7.76228L57.4654 7.80028L57.1139 8.02354L56.9666 8.57933L56.9096 10.1897L56.9666 10.5792L56.9286 13.5624L56.9856 13.9709L56.9476 14.3034L56.9666 15.0445L56.9286 15.434L56.9856 16.137L56.9286 17.1014L56.7433 17.6191L56.2066 17.8044L54.9667 17.8424Z" fill="#9F7E41"/>
    <path d="M61.8733 17.0443V14.3034L61.8401 13.9329L61.8591 12.4318L61.8923 12.0803L61.8591 11.7288V11.3582L61.8401 10.9497L61.8923 10.2087L61.8591 9.83816L61.8401 5.59614L62.0586 5.07836L62.3959 4.8931L63.4884 4.7981L63.897 4.8171L64.2675 4.8931H64.638L64.9705 4.7981H65.3411L65.7116 4.8741H66.8231L67.3599 4.8361L67.9537 4.8551L69.0083 5.09736L69.7113 5.33488L70.3621 5.6864L71.4167 6.79797L71.6209 7.09724L71.7682 7.41076L72.1007 8.46532L72.1577 8.83584L72.1957 10.0044L71.9535 11.078L71.2314 12.3748L70.9701 12.5981L70.7136 12.8783L70.5474 13.2821L70.5664 13.7286L70.7849 14.0089L71.3787 14.9685L71.5449 15.3057L72.1767 16.2463L72.324 16.6026L72.5472 16.8591L72.7515 17.2676L72.6375 17.6761L72.286 17.8424L71.6779 17.8614L71.3217 17.8234L69.8586 17.8424L69.2315 17.6761L68.823 17.3436L68.6188 17.0253L68.4715 16.6548L68.2672 16.3793L67.9157 15.7095L67.5262 15.1537L67.3789 14.8212L67.1557 14.4507L66.7851 14.1372L65.7116 13.9899L65.3601 14.1942L65.1938 14.5647L65.1558 15.7475L65.208 16.137L65.1748 16.4696V17.1014L65.0085 17.6381L64.4147 17.8234H63.859L63.5597 17.8614L62.9707 17.8044L62.6001 17.8614L62.0586 17.6191L61.8733 17.0443ZM65.7116 11.0257L66.1201 10.9877L67.0084 11.0257L67.3599 11.0067L67.8967 10.8737L68.2292 10.7265L68.4335 10.5602L68.6378 10.2847L68.804 9.91416L68.861 9.35838L68.785 8.87385L68.6758 8.57933L68.2102 8.00454L67.8587 7.90954L67.3789 7.87628L66.8611 7.76228L66.1201 7.83828L65.7496 7.81928L65.3601 7.96654L65.1938 8.31806L65.1558 9.09711L65.1938 9.41063V10.5222L65.3411 10.8215L65.7116 11.0257Z" fill="#9F7E41"/>
    <path d="M84.274 17.8423L83.8845 17.8043L83.457 17.619L83.0865 17.3435L82.9772 17.0062L82.8109 16.6547L82.4594 16.3602L82.0509 16.1559L81.6424 16.2129L81.3099 16.1749L79.4952 16.1939L79.1627 16.1369L78.3837 16.2129L78.0321 16.1559L77.6426 16.3602L77.2911 16.7117L76.9538 17.3245L76.6023 17.657L76.1795 17.7853L75.1392 17.8233L74.7687 17.7853L74.0467 17.8233L73.6761 17.714L73.5859 17.2485L73.6951 16.878L74.0657 16.1369L74.1607 15.8044L74.3602 15.5431L74.6404 14.8021L74.973 14.2083L75.1012 13.8378L75.2865 13.5623L75.4005 13.1537L77.2911 9.192L77.4004 8.85473L77.6046 8.50321L77.6949 8.13268L77.8991 7.85717L78.6402 6.15181L78.8064 5.89054L78.9395 5.52002L79.1057 5.2065L79.4382 4.89298L80.032 4.68872L80.6448 4.87398L80.9583 5.2065L81.3099 5.85729L81.4191 6.18981L81.6234 6.52233L81.7374 6.89286L82.9582 9.46751L83.0865 9.85704L83.476 10.5411L83.59 10.8403L83.7563 11.1159L83.8655 11.5244L84.0508 11.8759L84.236 12.1562L84.9391 13.8378L85.3096 14.5076L85.5709 15.1916L86.0696 16.1559L86.3499 16.84L86.4782 17.2675L86.4212 17.714L85.9034 17.8043L85.3286 17.8233L84.9771 17.7853L84.274 17.8423ZM80.07 13.2297L80.8111 13.2107L81.0866 13.0635L81.1626 12.7262L80.2885 10.6883L80.032 10.5411L79.8278 10.7073L78.9585 12.712L78.9775 13.0635L79.272 13.1917L79.6995 13.1537L80.07 13.2297Z" fill="#9F7E41"/>
    <path d="M93.2395 17.9517L92.888 17.9327L92.5555 17.8614L92.185 17.7284L91.8525 17.6571L91.0164 17.3056L90.2184 16.8781L89.3871 16.156L88.627 15.339L87.829 13.7286L87.5724 12.6741L87.4584 11.3202L87.6437 9.7289L87.829 8.96885L88.2945 7.92854L88.646 7.39176L89.1448 6.76472L89.9428 6.04267L90.4796 5.63415L91.8525 4.98336L93.6481 4.63184L94.7976 4.65084L95.1682 4.70784L95.5197 4.72684L97.2963 5.31588L98.5551 6.11393L99.0776 6.65071L99.2819 7.00223L99.5384 7.3205L99.7047 7.61502L99.9089 7.90954L100.023 8.29906L100.151 8.63633L100.26 9.04011L100.132 9.41063L99.8187 9.56264L99.2629 9.61489L98.7404 9.56264L98.3699 9.57689L97.9851 9.56264L97.6478 9.59589L97.225 9.39163L96.8735 9.04011L96.6693 8.76459L96.1325 8.22781L95.8712 8.02354L95.5387 7.89529L94.9639 7.72428L94.1658 7.69102L92.926 7.85728L92.4272 8.1328L91.9807 8.48432L91.5342 9.00685L91.3489 9.35838L91.0734 10.0234L90.9451 10.7645V11.895L90.9974 12.3036L91.0924 12.6361L91.2207 12.8973L91.3489 13.2679L91.7574 13.9139L92.2942 14.3937L92.945 14.731L93.6101 14.9685L94.1468 15.0255L95.1302 14.9685L95.7762 14.6169L96.0565 14.5077L96.351 14.2464L96.7785 13.7666L96.9638 13.4151L97.2583 13.1159L97.6858 12.8973L98.0563 12.9116L98.4269 12.8973L98.7974 12.9496L99.8377 12.8783L100.208 13.1159L100.317 13.4531L99.8377 14.8592L99.4482 15.5243L99.0206 16.08L98.5029 16.6026L97.5956 17.2486L97.2773 17.3959L96.8878 17.5289L96.5552 17.7141L95.4627 17.9327L94.1658 18.0277L93.2395 17.9517Z" fill="#9F7E41"/>
    <path d="M102.857 17.8612L102.52 17.6379L102.335 17.0631L102.302 16.1178L102.335 15.7473L102.302 15.3577L102.316 15.0632L102.283 14.3032L102.335 13.5431L102.302 13.2106L102.316 12.4886L102.264 12.08L102.335 11.32L102.283 11.0065L102.316 8.72634L102.264 8.35582L102.316 7.9853L102.283 5.72416L102.316 5.41064L102.487 5.05912L102.857 4.81685L103.261 4.79785L103.632 4.83585L103.983 4.81685L104.91 4.91186L105.451 5.07812L105.689 5.37264L105.651 6.13268L105.67 6.70747L105.636 7.154L105.67 7.48652L105.689 8.82135L105.67 9.17287L105.765 9.56239L106.078 9.78091H106.487L106.857 9.67165L107.266 9.61465L107.598 9.46739L108.244 9.00661L108.672 8.41282L108.786 8.0233L108.895 7.74303L109.042 6.54121L109.023 6.17069L109.08 5.81916V5.41064L109.228 5.05912L109.617 4.83585L110.173 4.81685L110.729 4.89286L111.341 4.81685L111.897 4.87386L112.306 5.04012L112.472 5.41064L112.415 6.56021L112.453 6.93073L112.32 8.11356L112.007 9.19187L111.878 9.52439L111.598 10.0042L111.009 10.7642L110.434 11.244L110.192 11.6335L110.268 12.061L110.876 13.0444L111.023 13.3579L111.227 13.7094L111.432 13.9707L112.007 14.916L112.249 15.2105L113.398 17.3054L113.303 17.7139L112.914 17.8042L112.543 17.7851L112.211 17.8232L110.339 17.8422L109.912 17.6569L109.56 17.3054L109.375 17.0631L109.19 16.7116L108.971 16.4313L108.615 15.7473L108.449 15.4908L108.32 15.1725L107.56 13.9327L107.432 13.5431L107.247 13.2486L106.819 12.9304L106.32 12.8971L105.855 13.0966L105.651 13.4149L105.708 15.3577L105.651 15.7473L105.689 17.2294L105.484 17.6379L105.114 17.7851L104.525 17.8422L104.002 17.8042L102.857 17.8612Z" fill="#9F7E41"/>
  </g>
</svg>