<svg xmlns="http://www.w3.org/2000/svg" width="207" height="42" viewBox="0 0 207 42" fill="none">
  <mask id="mask0_566_71789" style="mask-type:luminance" maskUnits="userSpaceOnUse" x="0" y="0" width="207" height="42">
    <path d="M207 0H0V41.4H207V0Z" fill="white"/>
  </mask>
  <g mask="url(#mask0_566_71789)">
    <path d="M9.21129 32.3962L8.16767 32.3617L7.19304 32.0253L6.75317 31.2835L6.82217 30.6453L6.85667 28.696L6.78767 27.9888L6.82217 25.2633L6.89117 24.5905L6.78767 19.5794L6.85667 18.6393L6.82217 17.9665L6.85667 17.2248L6.78767 16.2847L6.85667 15.2065L6.48579 14.5338L5.84754 14.1974L2.64767 14.1284L1.97492 14.1974L1.37116 13.861L1.06929 13.2573L1.00029 12.2137L1.06929 10.5318L1.03479 9.85904L1.44016 9.08279L2.07842 8.74641L4.43304 8.88441L5.47667 8.78091L7.46042 8.88441L8.06417 8.74641L8.80592 8.81541L9.51317 8.71191L10.1514 8.74641L10.8242 8.88441L13.5497 8.74641L14.1879 8.81541L14.8952 8.71191L15.5334 8.78091H17.6207L18.2589 9.22079L18.6298 9.89354L18.5953 13.0848L18.1899 13.8265L17.6207 14.1974L17.0169 14.1629L16.3097 14.2664L15.059 14.0939L13.748 14.1629L13.1098 14.5683L12.8424 15.5774L12.7389 18.5013L12.8424 19.2085L12.7734 24.625L12.8769 25.3668L12.8079 25.9705L12.8424 27.316L12.7734 28.0233L12.8769 29.2998L12.7734 31.0507L12.437 31.9908L11.4624 32.3272L9.21129 32.3962Z" fill="#6A453C"/>
    <path d="M30.4998 32.4648L29.8271 32.2923H28.1797L27.1706 32.4303L25.8251 32.2923L25.1523 32.3613L24.1087 32.3958L23.1341 32.2578L22.4958 32.3268H21.8576L21.1848 32.025L20.8485 31.1193L20.952 28.023L21.3228 27.4192L23.5395 26.7465L23.9103 25.7373L23.8068 15.4046L23.505 14.499L22.8667 14.0936H22.194L21.4522 13.7227L21.0813 13.05L21.1503 12.4117L21.0555 9.92772L21.3918 9.11697L22.0646 8.78059H22.8322L23.4705 8.88409H26.2305L26.9032 8.74609L27.507 8.81509H31.578L32.1817 9.18597L32.5871 9.82422L32.5526 13.1535L32.2162 13.6882L31.509 13.9642L30.8362 14.0591L30.1031 14.361L29.8616 15.1372L29.7322 18.5355L29.8616 20.9591L29.8012 21.7008L29.8271 25.401L29.7322 26.0392L30.1376 26.8068L30.9397 27.0828H31.647L32.3887 27.4537L32.7941 28.092V31.4212L32.4577 32.0595L31.8453 32.3958L30.4998 32.4648Z" fill="#6A453C"/>
    <path d="M38.0074 32.4306L37.3346 31.9907L36.9637 31.2835L36.9982 23.8487L36.9292 23.2105L37.0241 19.8122L36.9637 19.1395L36.9982 13.7575L36.9292 13.1537L37.0241 11.8427L36.9292 9.78996L37.3001 9.08271L38.0332 8.74634L38.982 9.01371L39.7496 9.59159L40.6294 10.4972L41.1641 10.9716L42.0439 12.0066L42.5096 12.412L45.5715 15.8102L46.3132 16.483L46.917 17.2592L47.3914 17.725L47.7881 18.3028L48.4954 18.5702L49.1077 18.1648L51.1519 16.0776L51.5917 15.5083L54.5501 12.481L55.0245 11.8772L55.4299 11.5063L55.8611 10.9716L57.2756 9.48809L57.9829 9.04821L58.9575 8.74634L59.6647 9.11721L60.0701 9.82446L60.0011 10.4627L60.0356 11.8427L60.0011 12.412L60.0701 13.861L60.0356 14.4992L60.0701 17.8285L60.0011 18.5702L60.0701 28.6615L60.0011 29.3342L60.1046 31.0851L59.6992 32.0597L58.992 32.4306L54.921 32.2926L54.2137 32.0942L53.9464 31.318V30.8177L53.8774 29.2997L53.9464 28.696L53.8774 27.454L53.9464 26.1343L53.8429 24.7888L53.9119 22.9431L53.6445 22.4342L53.2046 22.6412L51.8246 24.0557L51.3589 24.3921L50.4187 25.4961L50.0134 25.9015L49.539 26.4103L48.8662 26.9106L48.1245 26.8761L47.4259 26.3758L46.5116 25.4961L46.0804 24.9613L44.7004 23.5813L44.295 23.0811L43.7516 22.6412L43.4152 22.5032L43.1134 22.8051V24.1161L43.1824 24.8578L43.1134 26.074L43.1479 26.7812L43.053 27.8162L43.1479 31.3525L42.7425 31.9562L41.8024 32.3616L40.7242 32.2926L39.9911 32.3961L38.6801 32.3271L38.0074 32.4306Z" fill="#6A453C"/>
    <path d="M74.3305 32.4302L73.6577 32.3612L72.985 32.4302L72.2087 32.3957L71.5705 32.2577L70.1905 32.3612L69.5867 32.3267L68.845 32.3957L66.43 32.3612L65.4208 31.9213L65.1448 31.0157L65.0845 30.2739L65.1793 27.9538L65.0845 27.281L65.1448 26.6428L65.1793 21.1918L65.0845 20.5881L65.119 17.8281L65.1793 17.1898L65.0845 16.4826L65.1448 13.1878L65.05 12.4461L65.1448 11.0661L65.0845 9.78955L65.4553 9.0823L66.154 8.81493L66.8267 8.84943L67.4995 8.78043L68.1118 8.84943L68.7501 8.71143L69.4228 8.81493L72.1828 8.74593L72.8556 8.81493L73.4248 8.78043L74.0976 8.84943L74.8393 8.78043L77.5648 8.74593L78.1686 8.88393H78.8758L79.5486 9.1513L79.8505 9.78955L79.9195 11.8078L79.885 12.4806L79.9195 13.1533L79.5831 13.7571L78.8758 14.1624L78.2376 14.1969L73.4248 14.1279L72.7866 14.2659L72.1483 14.2314L71.4066 14.4988L71.1047 15.1371V16.1807L71.3721 17.2243L72.0793 17.5262L74.0286 17.4572L75.4431 17.5607L76.1503 17.4917H78.1341L78.9103 17.9316L79.2467 18.8717L79.1432 21.8991L78.9103 22.5718L78.2376 22.8392L77.4613 22.8047L76.7886 22.8737L75.4086 22.8392L74.1321 22.9082L73.054 22.8047L72.0448 22.8392L71.4411 23.2101L71.1392 23.9173V26.0391L71.4066 26.6428L72.1138 26.9792L72.8556 26.9102L73.4938 27.0137L74.227 26.9792L74.8997 27.0482L76.0123 26.9102L77.7287 26.9447L78.367 27.0482L79.1432 26.9792L79.8505 27.281L80.2213 27.9538V31.3521L79.8505 32.0593L79.1432 32.3612L74.3305 32.4302Z" fill="#6A453C"/>
    <path d="M99.8018 32.3962L98.7581 32.3617L97.7835 32.0253L97.3436 31.2835L97.4126 30.6453L97.4471 28.696L97.3781 27.9888L97.4126 25.2633L97.4816 24.5905L97.3781 19.5794L97.4471 18.6393L97.4126 17.9665L97.4471 17.2248L97.3781 16.2847L97.4471 15.2065L97.0763 14.5338L96.438 14.1974L93.2381 14.1284L92.5654 14.1974L91.9616 13.861L91.6598 13.2573L91.5908 12.2137L91.6598 10.5318L91.6253 9.85904L92.0306 9.08279L92.6689 8.74641L95.0235 8.88441L96.0671 8.78091L98.0509 8.88441L98.6546 8.74641L99.3964 8.81541L100.104 8.71191L100.742 8.74641L101.415 8.88441L104.14 8.74641L104.778 8.81541L105.486 8.71191L106.124 8.78091H108.211L108.849 9.22079L109.22 9.89354L109.186 13.0848L108.78 13.8265L108.211 14.1974L107.607 14.1629L106.9 14.2664L105.65 14.0939L104.339 14.1629L103.7 14.5683L103.433 15.5774L103.329 18.5013L103.433 19.2085L103.364 24.625L103.467 25.3668L103.398 25.9705L103.433 27.316L103.364 28.0233L103.467 29.2998L103.364 31.0507L103.028 31.9908L102.053 32.3272L99.8018 32.3962Z" fill="#9F7E41"/>
    <path d="M112.342 30.9469V25.9703L112.282 25.2975L112.316 22.572L112.377 21.9338L112.316 21.2955V20.6228L112.282 19.881L112.377 18.5355L112.316 17.8628L112.282 10.1607L112.678 9.22054L113.291 8.88417L115.275 8.71167L116.016 8.74617L116.689 8.88417H117.362L117.966 8.71167H118.638L119.311 8.84967H121.329L122.304 8.78067L123.382 8.81517L125.297 9.25504L126.573 9.68629L127.755 10.3245L129.67 12.3428L130.041 12.8862L130.308 13.4554L130.912 15.3702L131.015 16.0429L131.084 18.1647L130.644 20.1139L129.333 22.4685L128.859 22.8739L128.393 23.3828L128.091 24.1159L128.126 24.9267L128.523 25.4355L129.601 27.1778L129.903 27.7902L131.05 29.4979L131.317 30.1448L131.722 30.6105L132.093 31.3523L131.886 32.094L131.248 32.3959L130.144 32.4304L129.497 32.3614L126.841 32.3959L125.702 32.094L124.96 31.4903L124.59 30.9124L124.322 30.2397L123.951 29.7394L123.313 28.5233L122.606 27.5142L122.338 26.9104L121.933 26.2377L121.26 25.6684L119.311 25.401L118.673 25.7719L118.371 26.4447L118.302 28.5923L118.397 29.2995L118.336 29.9033V31.0504L118.035 32.025L116.956 32.3614H115.947L115.404 32.4304L114.334 32.3269L113.662 32.4304L112.678 31.9905L112.342 30.9469ZM119.311 20.019L120.053 19.95L121.666 20.019L122.304 19.9845L123.279 19.743L123.882 19.4757L124.253 19.1738L124.624 18.6735L124.926 18.0008L125.029 16.9917L124.891 16.1119L124.693 15.5772L123.848 14.5335L123.21 14.361L122.338 14.3007L121.398 14.0937L120.053 14.2317L119.38 14.1972L118.673 14.4645L118.371 15.1028L118.302 16.5173L118.371 17.0865V19.1048L118.638 19.6482L119.311 20.019Z" fill="#9F7E41"/>
    <path d="M153.015 32.3961L152.307 32.3271L151.531 31.9907L150.858 31.4904L150.66 30.8781L150.358 30.2398L149.72 29.7051L148.978 29.3342L148.236 29.4377L147.633 29.3687L144.338 29.4032L143.734 29.2997L142.32 29.4377L141.681 29.3342L140.974 29.7051L140.336 30.3433L139.723 31.4559L139.085 32.0597L138.318 32.2926L136.429 32.3616L135.756 32.2926L134.445 32.3616L133.772 32.1632L133.608 31.3179L133.807 30.6452L134.479 29.2997L134.652 28.6959L135.014 28.2216L135.523 26.8761L136.127 25.7979L136.36 25.1252L136.696 24.6249L136.903 23.8832L140.336 16.6899L140.534 16.0776L140.905 15.4393L141.069 14.7666L141.44 14.2663L142.785 11.1699L143.087 10.6956L143.329 10.0228L143.631 9.45355L144.234 8.8843L145.312 8.51343L146.425 8.8498L146.994 9.45355L147.633 10.6352L147.831 11.2389L148.202 11.8427L148.409 12.5154L150.625 17.1902L150.858 17.8974L151.566 19.1394L151.773 19.6828L152.074 20.1831L152.273 20.9248L152.609 21.5631L152.946 22.0719L154.222 25.1252L154.895 26.3413L155.369 27.5833L156.275 29.3342L156.784 30.5762L157.017 31.3524L156.913 32.1632L155.973 32.3271L154.929 32.3616L154.291 32.2926L153.015 32.3961ZM145.381 24.0212L146.727 23.9867L147.227 23.7193L147.365 23.1069L145.778 19.4068L145.312 19.1394L144.942 19.4413L143.363 23.0811L143.398 23.7193L143.932 23.9522L144.709 23.8832L145.381 24.0212Z" fill="#9F7E41"/>
    <path d="M169.293 32.5944L168.655 32.5599L168.051 32.4305L167.378 32.189L166.775 32.0597L165.257 31.4214L163.808 30.6452L162.298 29.3342L160.918 27.8507L159.469 24.9268L159.003 23.012L158.796 20.5539L159.133 17.6645L159.469 16.2845L160.314 14.3957L160.953 13.421L161.858 12.2825L163.307 10.9715L164.282 10.2298L166.775 9.04816L170.035 8.40991L172.122 8.44441L172.795 8.54791L173.433 8.58241L176.659 9.65191L178.944 11.1009L179.893 12.0755L180.264 12.7138L180.73 13.2917L181.032 13.8264L181.403 14.3612L181.61 15.0684L181.842 15.6808L182.041 16.4139L181.808 17.0867L181.239 17.3627L180.23 17.4575L179.281 17.3627L178.608 17.3885L177.909 17.3627L177.297 17.423L176.529 17.0522L175.891 16.4139L175.52 15.9137L174.546 14.939L174.071 14.5682L173.468 14.3353L172.424 14.0248L170.975 13.9644L168.724 14.2663L167.818 14.7665L167.007 15.4048L166.197 16.3535L165.86 16.9918L165.36 18.1993L165.127 19.5448V21.5975L165.222 22.3393L165.395 22.943L165.627 23.4174L165.86 24.0902L166.602 25.2632L167.577 26.1343L168.758 26.7467L169.966 27.1779L170.94 27.2814L172.726 27.1779L173.899 26.5397L174.408 26.3413L174.942 25.8669L175.719 24.9958L176.055 24.3575L176.59 23.8142L177.366 23.4174L178.039 23.4433L178.712 23.4174L179.384 23.5123L181.273 23.3829L181.946 23.8142L182.144 24.4265L181.273 26.9795L180.566 28.187L179.79 29.1962L178.85 30.1449L177.202 31.3179L176.624 31.5853L175.917 31.8268L175.313 32.1632L173.33 32.5599L170.975 32.7324L169.293 32.5944Z" fill="#9F7E41"/>
    <path d="M186.756 32.4302L186.144 32.0248L185.807 30.9812L185.747 29.2648L185.807 28.5921L185.747 27.8848L185.773 27.35L185.712 25.9701L185.807 24.5901L185.747 23.9863L185.773 22.6753L185.678 21.9336L185.807 20.5536L185.712 19.9843L185.773 15.8443L185.678 15.1716L185.773 14.4988L185.712 10.3933L185.773 9.82405L186.083 9.1858L186.756 8.74593L187.489 8.71143L188.162 8.78043L188.8 8.74593L190.482 8.91843L191.465 9.2203L191.896 9.75505L191.827 11.1351L191.862 12.1787L191.802 12.9894L191.862 13.5932L191.896 16.0168L191.862 16.6551L192.034 17.3623L192.604 17.7591H193.345L194.018 17.5607L194.76 17.4572L195.364 17.1898L196.537 16.3532L197.313 15.2751L197.52 14.5678L197.718 14.0589L197.986 11.8768L197.951 11.2041L198.055 10.5658V9.82405L198.322 9.1858L199.029 8.78043L200.038 8.74593L201.048 8.88393L202.16 8.74593L203.169 8.84943L203.911 9.1513L204.213 9.82405L204.109 11.9113L204.178 12.5841L203.937 14.7317L203.368 16.6896L203.135 17.2933L202.626 18.1644L201.556 19.5444L200.513 20.4156L200.073 21.1228L200.211 21.8991L201.315 23.6844L201.582 24.2537L201.953 24.8919L202.324 25.3663L203.368 27.0827L203.808 27.6174L205.895 31.4211L205.722 32.1628L205.015 32.3267L204.342 32.2922L203.739 32.3612L200.34 32.3957L199.564 32.0593L198.926 31.4211L198.589 30.9812L198.253 30.3429L197.856 29.8341L197.209 28.5921L196.908 28.1263L196.675 27.5484L195.295 25.2973L195.062 24.5901L194.725 24.0553L193.949 23.4774L193.044 23.4171L192.198 23.7793L191.827 24.3572L191.931 27.8848L191.827 28.5921L191.896 31.2831L191.526 32.0248L190.853 32.2922L189.783 32.3957L188.835 32.3267L186.756 32.4302Z" fill="#9F7E41"/>
  </g>
</svg>