<svg xmlns="http://www.w3.org/2000/svg" width="40" height="40" viewBox="0 0 40 40" fill="none">
  <path d="M13.1528 13.1528L13.1528 11.5087C13.1528 7.87668 16.0972 4.93231 19.7293 4.93231C23.3613 4.93231 26.3057 7.87667 26.3057 11.5087L26.3057 13.1528" stroke="#6A453C" stroke-width="3.28821" stroke-linecap="round"/>
  <path d="M27.9509 11.5088C31.0508 11.5088 32.6012 11.5086 33.5642 12.4717C34.5272 13.4348 34.5271 14.9851 34.5271 18.085V23.0176C34.5271 29.2179 34.5265 32.318 32.6003 34.2441C30.6741 36.1701 27.5739 36.1699 21.3738 36.1699H18.0857C11.8855 36.1699 8.7853 36.1703 6.85913 34.2441C4.93302 32.318 4.93335 29.2178 4.93335 23.0176V18.085C4.93335 14.985 4.93317 13.4347 5.89624 12.4717C6.85935 11.5087 8.40953 11.5088 11.5095 11.5088H27.9509ZM14.7976 18.085C13.8896 18.085 13.1531 18.8215 13.1531 19.7295V23.0176C13.1532 23.9255 13.8897 24.6621 14.7976 24.6621C15.7056 24.6621 16.442 23.9255 16.4421 23.0176V19.7295C16.4421 18.8215 15.7056 18.085 14.7976 18.085ZM24.6619 18.085C23.7541 18.0852 23.0183 18.8216 23.0183 19.7295V23.0176C23.0184 23.9254 23.7541 24.6619 24.6619 24.6621C25.5698 24.6621 26.3063 23.9255 26.3064 23.0176V19.7295C26.3064 18.8215 25.5699 18.085 24.6619 18.085Z" fill="#6A453C"/>
</svg>