<svg xmlns="http://www.w3.org/2000/svg" width="43" height="43" viewBox="0 0 43 43" fill="none">
  <rect width="42.8305" height="42.8305" rx="21.4153" fill="#EEF3F1"/>
  <path d="M16.4814 26.7259H16.4747C15.6875 26.7259 15.1677 26.0809 15.1694 25.4102M16.4814 26.7259H26.3553M16.4814 26.7259C15.6926 26.7259 15.1712 26.0818 15.1694 25.4102M26.3553 26.7259H26.362C27.1492 26.7259 27.669 26.0809 27.6673 25.4102M26.3553 26.7259C27.1441 26.7259 27.6655 26.0818 27.6673 25.4102M26.1389 20.998L26.3161 22.5254C26.3672 22.9662 26.507 23.3888 26.7237 23.769M16.6978 20.998L16.5206 22.5254C16.4695 22.9662 16.3297 23.3887 16.113 23.769M26.7237 23.769C26.5078 23.3827 26.3712 22.9537 26.3261 22.507L25.984 19.1181C25.7472 16.7729 23.773 14.988 21.4159 14.988M26.7237 23.769C26.8721 24.0345 27.058 24.2797 27.2775 24.4965C27.5458 24.7616 27.6664 25.0888 27.6673 25.4102M26.7237 23.769C26.8721 24.0293 27.0564 24.2698 27.2731 24.4827C27.5464 24.7513 27.6681 25.084 27.6673 25.4102M16.113 23.769C15.9646 24.0293 15.7802 24.2697 15.5636 24.4827C15.2903 24.7513 15.1686 25.084 15.1694 25.4102M16.113 23.769C16.3289 23.3827 16.4655 22.9536 16.5106 22.507L16.8527 19.1181C17.0895 16.7729 19.0637 14.988 21.4208 14.988M16.113 23.769C15.9646 24.0344 15.7787 24.2797 15.5592 24.4965C15.2909 24.7616 15.1703 25.0889 15.1694 25.4102" stroke="#006B40" stroke-width="1.33845" stroke-linecap="round" stroke-linejoin="round"/>
  <path d="M21.4298 13.3848L21.4298 14.9877" stroke="#006B40" stroke-width="1.33845" stroke-linecap="round" stroke-linejoin="round"/>
  <path d="M23.5017 26.7258C23.5017 27.1016 23.4017 27.454 23.2269 27.7578C22.8691 28.3799 22.1979 28.7987 21.4288 28.7987C20.6597 28.7987 19.9885 28.3799 19.6307 27.7578C19.4559 27.454 19.356 27.1016 19.356 26.7258" stroke="#006B40" stroke-width="1.33845" stroke-linecap="round" stroke-linejoin="round"/>
</svg>