<svg xmlns="http://www.w3.org/2000/svg" width="39" height="39" viewBox="0 0 39 39" fill="none">
  <path d="M19.2791 4.81982C20.2852 4.81982 21.2562 4.98637 22.1638 5.29443C21.3564 6.54711 20.8866 8.03793 20.8865 9.63916C20.8865 14.0345 24.416 17.6026 28.7957 17.6685C29.0843 19.068 29.6051 20.4124 30.3386 21.645C30.3504 21.6648 30.3625 21.6851 30.3865 21.7251L31.3152 23.2729C32.1578 24.6773 32.579 25.3801 32.488 25.9565C32.4274 26.34 32.2301 26.6888 31.9324 26.938C31.4848 27.3125 30.6657 27.312 29.0281 27.312H9.53101C7.893 27.312 7.07329 27.3126 6.62573 26.938C6.3281 26.6888 6.13066 26.3399 6.07007 25.9565C5.9791 25.38 6.40118 24.6775 7.2439 23.2729L8.17261 21.7251C8.19663 21.6851 8.20864 21.6649 8.22046 21.645C9.14967 20.0836 9.73689 18.3427 9.94409 16.5376C9.94672 16.5147 9.94969 16.4911 9.95483 16.4448L10.3591 12.8042C10.8641 8.25904 14.7059 4.81994 19.2791 4.81982ZM26.1472 8.01807C27.249 9.32649 27.9859 10.9591 28.1941 12.769C26.7687 12.4403 25.7058 11.1644 25.7058 9.63916C25.7059 9.04736 25.868 8.49421 26.1472 8.01807Z" fill="white"/>
  <path d="M14.4595 27.3122C14.4595 27.9452 14.5842 28.5719 14.8264 29.1567C15.0686 29.7415 15.4236 30.2728 15.8712 30.7204C16.3187 31.1679 16.8501 31.523 17.4348 31.7652C18.0196 32.0074 18.6464 32.1321 19.2793 32.1321C19.9123 32.1321 20.539 32.0074 21.1238 31.7652C21.7085 31.523 22.2399 31.1679 22.6874 30.7204C23.135 30.2728 23.49 29.7415 23.7322 29.1567C23.9745 28.5719 24.0991 27.9452 24.0991 27.3122L19.2793 27.3122H14.4595Z" fill="white"/>
  <circle cx="28.9188" cy="9.63972" r="4.01651" fill="white" stroke="white" stroke-width="1.6066"/>
</svg>