<svg width="24" height="24" viewBox="0 0 24 24" fill="none" xmlns="http://www.w3.org/2000/svg">
<path d="M17.94 17.94C16.2308 19.243 14.162 20 12 20C5 20 1 12 1 12C2.28974 9.63615 4.1238 7.62537 6.28 6.28M9.88 9.88C9.3352 10.424 9 11.1716 9 12C9 13.6569 10.3431 15 12 15C12.8284 15 13.576 14.6648 14.12 14.12M12 4C14.162 4 16.2308 4.75699 17.94 6.06002C19.8727 7.62125 21.7107 9.63391 23 12C23 12 22.3882 13.0801 21.43 14.57M1 1L23 23" stroke="#555" stroke-width="2" stroke-linecap="round" stroke-linejoin="round"/>
</svg>