<svg xmlns="http://www.w3.org/2000/svg" width="24" height="21" viewBox="0 0 24 21" fill="none">
  <path d="M11.4428 4.21196C11.4857 2.21196 10.0714 0.511963 8.35713 0.511963C8.31427 0.511963 8.27142 0.511963 8.22856 0.511963C6.47142 0.511963 4.92856 2.16196 5.01427 4.21196C5.01427 4.61196 5.35713 6.71196 5.35713 6.71196C5.61427 8.51196 6.64285 10.012 8.22856 10.012C9.81427 10.012 10.8 8.51196 11.1 6.71196C11.1 6.71196 11.4428 4.66196 11.4428 4.21196Z" stroke="#605D5D" stroke-width="1.02383" stroke-miterlimit="10"/>
  <path d="M16.1572 19.512H0.300049L0.557192 15.912C0.685763 14.562 1.88576 13.612 3.08576 13.362L8.22862 12.562L13.4143 13.362C14.7429 13.662 15.9 14.512 15.9858 16.062L16.1572 19.512Z" stroke="#605D5D" stroke-width="1.02383" stroke-miterlimit="10"/>
  <path d="M19.8001 6.71191C19.8001 5.06191 18.6429 3.71191 17.2287 3.71191C15.8144 3.71191 14.6572 5.06191 14.6572 6.71191C14.6572 7.06191 14.9572 8.66191 14.9572 8.66191C15.1715 10.0619 15.9858 11.2619 17.2287 11.2619C18.4715 11.2619 19.2858 10.0619 19.5001 8.66191C19.5429 8.66191 19.8001 7.01191 19.8001 6.71191Z" stroke="#605D5D" stroke-width="1.02383" stroke-miterlimit="10"/>
  <path d="M17.2286 13.512L21.4715 14.112C22.5001 14.312 23.4429 15.012 23.5286 16.312L23.6572 19.512H18.7286" stroke="#605D5D" stroke-width="1.02383" stroke-miterlimit="10"/>
</svg>