<svg xmlns="http://www.w3.org/2000/svg" width="38" height="38" viewBox="0 0 38 38" fill="none">
  <circle cx="19.0008" cy="12.6666" r="4.75" stroke="#6A453C" stroke-width="3.16667" stroke-linecap="round"/>
  <path d="M24.1751 12.6667C24.595 11.9393 25.2867 11.4086 26.0979 11.1912C26.9091 10.9739 27.7735 11.0877 28.5008 11.5076C29.2281 11.9275 29.7589 12.6192 29.9762 13.4304C30.1936 14.2416 30.0798 15.106 29.6599 15.8333C29.24 16.5607 28.5483 17.0914 27.7371 17.3088C26.9258 17.5261 26.0615 17.4123 25.3341 16.9924C24.6068 16.5725 24.0761 15.8808 23.8587 15.0696C23.6413 14.2584 23.7551 13.394 24.1751 12.6667L24.1751 12.6667Z" stroke="#6A453C" stroke-width="3.16667"/>
  <path d="M8.34011 12.6667C8.76003 11.9393 9.45169 11.4086 10.2629 11.1912C11.0742 10.9739 11.9385 11.0877 12.6659 11.5076C13.3932 11.9275 13.9239 12.6192 14.1413 13.4304C14.3587 14.2416 14.2449 15.106 13.8249 15.8333C13.405 16.5607 12.7133 17.0914 11.9021 17.3088C11.0909 17.5261 10.2265 17.4123 9.49919 16.9924C8.77185 16.5725 8.24112 15.8808 8.02375 15.0696C7.80638 14.2584 7.92018 13.394 8.34011 12.6667L8.34011 12.6667Z" stroke="#6A453C" stroke-width="3.16667"/>
  <path d="M26.9185 22.1667V20.5834H26.9184L26.9185 22.1667ZM32.8091 26.7654L34.3015 26.2365L34.3013 26.2361L32.8091 26.7654ZM26.731 28.4998L25.1788 28.8124L25.4348 30.0831H26.731V28.4998ZM23.4028 23.2927L22.4446 22.0323L20.6144 23.4236L22.5669 24.6374L23.4028 23.2927ZM26.9185 22.1667V23.7501C29.5176 23.7501 30.723 25.6205 31.3168 27.2947L32.8091 26.7654L34.3013 26.2361C33.565 24.1602 31.587 20.5834 26.9185 20.5834V22.1667ZM32.8091 26.7654L31.3167 27.2943C31.3056 27.2629 31.2953 27.2033 31.3085 27.131C31.321 27.0625 31.3493 27.0105 31.3761 26.9771C31.4273 26.9135 31.4695 26.9164 31.4585 26.9164V28.4998V30.0831C33.2724 30.0831 35.0588 28.3734 34.3015 26.2365L32.8091 26.7654ZM31.4585 28.4998V26.9164H26.731V28.4998V30.0831H31.4585V28.4998ZM26.731 28.4998L28.2831 28.1871C27.9377 26.4723 26.9759 23.6496 24.2388 21.948L23.4028 23.2927L22.5669 24.6374C24.2132 25.6608 24.903 27.4435 25.1788 28.8124L26.731 28.4998ZM23.4028 23.2927L24.3611 24.5532C24.9696 24.0906 25.7805 23.7501 26.9185 23.7501L26.9185 22.1667L26.9184 20.5834C25.078 20.5835 23.596 21.157 22.4446 22.0323L23.4028 23.2927Z" fill="#6A453C"/>
  <path d="M11.0823 22.1667L11.0823 20.5834L11.0822 20.5834L11.0823 22.1667ZM14.5969 23.2927L15.4329 24.6373L17.3856 23.4233L15.5549 22.0321L14.5969 23.2927ZM11.2688 28.4998V30.0831H12.565L12.821 28.8124L11.2688 28.4998ZM6.54224 28.4998L6.54186 30.0831H6.54224V28.4998ZM5.19165 26.7654L3.69941 26.2361L3.69921 26.2366L5.19165 26.7654ZM11.0823 22.1667V23.7501C12.2194 23.7501 13.0299 24.0906 13.639 24.5534L14.5969 23.2927L15.5549 22.0321C14.4041 21.1576 12.9228 20.5834 11.0823 20.5834V22.1667ZM14.5969 23.2927L13.7609 21.9481C11.0242 23.6496 10.0621 26.4723 9.71664 28.1871L11.2688 28.4998L12.821 28.8124C13.0966 27.4437 13.7867 25.6609 15.4329 24.6373L14.5969 23.2927ZM11.2688 28.4998V26.9164H6.54224V28.4998V30.0831H11.2688V28.4998ZM6.54224 28.4998L6.54261 26.9164C6.53172 26.9164 6.57375 26.9135 6.62475 26.9769C6.6515 27.0102 6.67981 27.0621 6.69231 27.1307C6.70551 27.203 6.69526 27.2626 6.68409 27.2941L5.19165 26.7654L3.69921 26.2366C2.94217 28.3734 4.72871 30.0827 6.54186 30.0831L6.54224 28.4998ZM5.19165 26.7654L6.68389 27.2947C7.27771 25.6205 8.48319 23.7501 11.0823 23.7501L11.0823 22.1667L11.0822 20.5834C6.41388 20.5835 4.43573 24.1602 3.69941 26.2361L5.19165 26.7654Z" fill="#6A453C"/>
  <path d="M18.9992 22.1667C24.6541 22.1667 26.2697 26.2061 26.7313 28.5141C26.9027 29.3716 26.207 30.0834 25.3325 30.0834H12.6659C11.7914 30.0834 11.0956 29.3716 11.2671 28.5141C11.7287 26.2061 13.3443 22.1667 18.9992 22.1667Z" stroke="#6A453C" stroke-width="3.16667" stroke-linecap="round"/>
</svg>