<svg xmlns="http://www.w3.org/2000/svg" width="24" height="24" viewBox="0 0 24 24" fill="none">
  <path d="M12 23.5C18.3513 23.5 23.5 18.3513 23.5 12C23.5 5.64873 18.3513 0.5 12 0.5C5.64873 0.5 0.5 5.64873 0.5 12C0.5 18.3513 5.64873 23.5 12 23.5Z" stroke="#605D5D" stroke-width="1.02383" stroke-miterlimit="10"/>
  <path d="M12 6.25586C12.4109 6.25586 12.7441 6.58908 12.7441 7C12.7441 7.41092 12.4109 7.74414 12 7.74414C11.5891 7.74414 11.2559 7.41092 11.2559 7C11.2559 6.58908 11.5891 6.25586 12 6.25586Z" fill="white" stroke="#605D5D" stroke-width="0.511915"/>
  <path d="M12 17.5V10.5H10" stroke="#605D5D" stroke-width="1.02383" stroke-miterlimit="10"/>
  <path d="M10 17.4998H14" stroke="#605D5D" stroke-width="1.02383" stroke-miterlimit="10"/>
</svg>