<svg xmlns="http://www.w3.org/2000/svg" width="37" height="37" viewBox="0 0 37 37" fill="none">
  <path d="M12.9727 1.06152C21.9143 -1.30913 31.1187 4.03802 33.4951 12.9736C34.1641 15.4835 34.2337 18.1296 33.7158 20.6562L33.5439 20.6162C34.053 18.1177 33.982 15.5033 33.3232 13.0215C30.9748 4.16818 21.8687 -1.11447 13.0215 1.2334C4.16926 3.58127 -1.11944 12.6879 1.24609 21.5469C3.44263 29.7945 11.5566 35.0162 19.9023 33.6787L20.4482 33.5918L20.3066 33.0566L19.7725 31.0498L19.7705 31.0449V31.001C19.7744 30.987 19.782 30.974 19.793 30.9639L19.7998 30.958C19.8121 30.9462 19.8243 30.9399 19.835 30.9375C19.846 30.9351 19.8607 30.9355 19.8779 30.9414H19.8789L24.0928 32.376V32.377C24.1166 32.3855 24.1394 32.409 24.1504 32.4404C24.1554 32.4711 24.1459 32.5023 24.1299 32.5205L21.1797 35.8594L21.1758 35.8633C21.1702 35.8698 21.1611 35.8766 21.1494 35.8818C21.1377 35.887 21.1253 35.8896 21.1143 35.8896H21.1094C21.1075 35.8893 21.1048 35.8878 21.1006 35.8867C21.0533 35.8749 21.0337 35.8456 21.0293 35.8281L21.0273 35.8213L20.5938 34.1895L20.4766 33.75L20.0283 33.8252C19.1029 33.9794 18.1802 34.0586 17.2705 34.0586C9.93849 34.0586 3.25672 29.1984 1.1582 21.9316L1.0625 21.584C-1.30772 12.6424 4.03265 3.43878 12.9736 1.0625L12.9727 1.06152ZM20.2021 32.0576L20.9062 34.7158L21.1455 35.6201L21.7646 34.9189L23.4072 33.0586L23.9043 32.4961L23.1943 32.2539L20.8467 31.4561L19.9629 31.1562L20.2021 32.0576Z" fill="#9F7E41" stroke="white"/>
  <path d="M31.1023 23.3857C33.7369 23.3859 35.8835 25.5333 35.8835 28.168C35.8834 30.8021 33.7368 32.949 31.1023 32.9492C28.4676 32.9492 26.3203 30.8022 26.3201 28.168C26.3201 25.5332 28.4675 23.3857 31.1023 23.3857ZM31.1023 23.5596C28.5604 23.5596 26.4939 25.6262 26.4939 28.168C26.4941 30.7093 28.5609 32.7754 31.1023 32.7754C33.6439 32.7752 35.7095 30.7092 35.7097 28.168C35.7097 25.6263 33.6441 23.5598 31.1023 23.5596Z" fill="#9F7E41" stroke="white"/>
  <path d="M31.1833 28.168C31.1833 28.1986 31.1731 28.2162 31.1589 28.2305L29.7517 29.6377L29.6316 29.5176L30.8689 28.2812L31.1833 27.9658V28.168ZM31.1833 26.3203V27.4268H31.0095V26.3203H31.1833Z" fill="#9F7E41" stroke="white"/>
  <path d="M17.0171 6.36621C22.5685 6.36621 27.0814 10.8779 27.0815 16.4297C27.0815 21.9812 22.5686 26.4941 17.0171 26.4941C11.4657 26.494 6.95361 21.9811 6.95361 16.4297C6.95378 10.878 11.4658 6.36638 17.0171 6.36621ZM15.0649 6.73145C12.7769 7.18906 10.7684 8.43822 9.34717 10.1807L9.03271 10.5654L9.41553 10.8818L9.78564 11.1875L9.7876 11.1885C10.7164 11.9496 11.169 13.171 10.9702 14.3398L10.9214 14.5723L10.9194 14.583L10.6909 15.5996C10.5084 16.3811 10.6993 17.1827 11.2183 17.7969L11.2202 17.7988C11.7292 18.3951 12.4786 18.7288 13.2759 18.6768L14.353 18.6133C15.8312 18.5418 17.0567 19.634 17.1743 21.0918H17.1753C17.2397 22.1073 16.7477 23.0591 15.8872 23.585C15.46 23.8312 14.9938 23.958 14.5347 23.958L14.5259 23.959L12.4839 23.9941H10.4243L11.978 24.9229C13.4529 25.8048 15.1702 26.3182 17.0112 26.3193V26.3203H17.0171V26.3193C21.7696 26.3167 25.7398 22.9481 26.6851 18.4756L26.7769 18.0439L26.3589 17.8994C25.681 17.6655 25.1357 17.0567 24.9917 16.2695L24.9897 16.2598C24.8984 15.8107 24.6612 15.3888 24.3013 15.0928L24.2954 15.0879L24.1138 14.96C23.6777 14.6885 23.1569 14.6127 22.6597 14.7832L22.6509 14.7861L19.5229 15.9248L19.52 15.9258C18.586 16.2715 17.5016 15.7736 17.0835 14.6992L16.8452 14.0693V14.0684L16.7886 13.9023C16.5381 13.0646 16.7766 12.1761 17.3735 11.6445L17.3765 11.6426L17.8628 11.2021L17.8618 11.2012C18.3811 10.743 18.5882 10.044 18.4526 9.35059V9.34766L18.3882 9.10059C18.2056 8.53561 17.7998 8.06387 17.2329 7.86035L17.229 7.85938L17.0063 7.77539C16.4905 7.56773 15.9962 7.26932 15.5356 6.88477L15.4946 6.84863L15.3091 6.68262L15.0649 6.73145ZM8.64111 11.1934C7.77884 12.5708 7.23674 14.1742 7.14307 15.8965L7.12158 15.8955V16.4297C7.12161 19.2125 8.27872 21.7286 10.1382 23.5264L10.2476 23.6328L10.3989 23.6602C11.0621 23.7768 11.7634 23.8385 12.4839 23.8262L14.5229 23.79V23.791C14.9715 23.791 15.3987 23.672 15.7847 23.4463L15.7925 23.4414C16.5983 22.9506 17.0578 22.0572 16.9995 21.1172H17.0005L16.9995 21.1113L16.9683 20.8594C16.7505 19.624 15.6449 18.7265 14.3618 18.7949H14.3579L13.2847 18.8594C12.4286 18.9087 11.6414 18.5644 11.0903 17.9141H11.0894C10.5359 17.2617 10.333 16.4086 10.5269 15.5684V15.5674L10.7612 14.54L10.7603 14.5391C11.0307 13.4246 10.6761 12.2531 9.85791 11.4756L9.68799 11.3252L9.38428 11.0742L8.94385 10.71L8.64111 11.1934ZM17.0229 6.52832L16.8071 7.47852C16.9651 7.55435 17.1326 7.62507 17.3032 7.68457V7.68555C17.9782 7.93226 18.4823 8.52716 18.6333 9.31152C18.7835 10.0917 18.5309 10.8393 17.9868 11.3271L17.9849 11.3281L17.4995 11.7666C16.8814 12.3197 16.7148 13.2204 17.0132 14V14.001L17.2544 14.6348L17.2554 14.6396C17.6016 15.5275 18.5467 16.104 19.4741 15.7598L19.4731 15.7588L22.6099 14.6221C23.2197 14.4133 23.8918 14.5308 24.4214 14.96C24.8065 15.284 25.07 15.7337 25.1714 16.2402L25.1724 16.2393C25.282 16.8353 25.6428 17.3368 26.1255 17.6104L26.8149 18.001L26.8706 17.2109C26.888 16.9669 26.9077 16.7028 26.9077 16.4297V16.418C26.9077 10.9664 22.4758 6.52832 17.0229 6.52832Z" fill="#9F7E41" stroke="white"/>
</svg>