<svg xmlns="http://www.w3.org/2000/svg" width="22" height="22" viewBox="0 0 22 22" fill="none">
  <path d="M13.2285 14.1494H13.2368M8.67236 14.1494H8.68055" stroke="white" stroke-width="1.82576" stroke-linecap="round" stroke-linejoin="round"/>
  <path d="M3.89609 17.2028C4.10138 18.7276 5.36429 19.9221 6.90115 19.9928C8.19434 20.0522 9.508 20.0832 10.9546 20.0832C12.4013 20.0832 13.7149 20.0522 15.0081 19.9928C16.545 19.9221 17.8079 18.7276 18.0132 17.2028C18.1472 16.2078 18.2577 15.188 18.2577 14.1495C18.2577 13.111 18.1472 12.0913 18.0132 11.0962C17.8079 9.57145 16.545 8.37693 15.0081 8.30628C13.7149 8.24683 12.4013 8.21582 10.9546 8.21582C9.508 8.21582 8.19434 8.24683 6.90115 8.30628C5.36429 8.37693 4.10138 9.57145 3.89609 11.0962C3.76212 12.0913 3.65161 13.111 3.65161 14.1495C3.65161 15.188 3.76212 16.2078 3.89609 17.2028Z" stroke="white" stroke-width="1.36932"/>
  <path d="M6.84668 8.21584V5.93364C6.84668 3.66488 8.68587 1.82568 10.9546 1.82568C13.2234 1.82568 15.0626 3.66488 15.0626 5.93364V8.21584" stroke="white" stroke-width="1.36932" stroke-linecap="round" stroke-linejoin="round"/>
</svg>