<svg xmlns="http://www.w3.org/2000/svg" width="22" height="22" viewBox="0 0 22 22" fill="none">
  <path d="M13.6931 16.0896C13.6259 17.7802 12.217 19.2157 10.3297 19.1695C9.89057 19.1587 9.34786 19.0057 8.26246 18.6995C5.65025 17.9627 3.38261 16.7243 2.83854 13.9503C2.73853 13.4404 2.73853 12.8666 2.73853 11.719V10.1903C2.73853 9.04275 2.73853 8.46895 2.83854 7.95903C3.38261 5.18496 5.65025 3.94665 8.26246 3.20984C9.34786 2.90367 9.89057 2.75059 10.3297 2.73985C12.217 2.69368 13.6259 4.12915 13.6931 5.81974" stroke="white" stroke-width="1.36932" stroke-linecap="round"/>
  <path d="M19.1706 10.9546H9.12891M19.1706 10.9546C19.1706 10.3154 17.35 9.12107 16.8884 8.67236M19.1706 10.9546C19.1706 11.5938 17.35 12.7881 16.8884 13.2368" stroke="white" stroke-width="1.36932" stroke-linecap="round" stroke-linejoin="round"/>
</svg>