<svg xmlns="http://www.w3.org/2000/svg" width="36" height="32" viewBox="0 0 36 32" fill="none">
  <path d="M25.1336 1.47364C23.5756 1.47383 22.0474 1.90058 20.7147 2.7076C19.3821 3.51462 18.2958 4.6711 17.5736 6.05164C16.6864 4.36293 15.2592 3.01991 13.5198 2.23671C11.7804 1.45352 9.82885 1.27525 7.97632 1.73032C6.12378 2.1854 4.47695 3.24763 3.2984 4.74763C2.11986 6.24763 1.47746 8.09903 1.47363 10.0066C1.47363 14.7176 4.39963 19.0226 8.17963 22.5576C11.0958 25.1418 14.24 27.4566 17.5736 29.4736C20.8823 27.4194 24.0234 25.1069 26.9676 22.5576C31.1676 18.7216 33.6736 14.7176 33.6736 10.0066C33.6736 8.88548 33.4527 7.77531 33.0234 6.73958C32.5942 5.70385 31.965 4.76287 31.1719 3.97042C30.3788 3.17796 29.4373 2.54957 28.4012 2.12116C27.3651 1.69275 26.2548 1.47272 25.1336 1.47364Z" fill="#6A453C" stroke="#6A453C" stroke-width="2.94737" stroke-miterlimit="10"/>
</svg>