<svg xmlns="http://www.w3.org/2000/svg" width="34" height="30" viewBox="0 0 34 30" fill="none">
  <path d="M24.16 0.500003C22.602 0.500202 21.0738 0.926949 19.7411 1.73397C18.4084 2.54098 17.3221 3.69747 16.6 5.078C15.7127 3.3893 14.2856 2.04627 12.5462 1.26308C10.8068 0.479884 8.85522 0.301613 7.00268 0.756692C5.15015 1.21177 3.50332 2.27399 2.32477 3.77399C1.14622 5.27399 0.503824 7.1254 0.5 9.033C0.5 13.744 3.426 18.049 7.206 21.584C10.1221 24.1682 13.2663 26.483 16.6 28.5C19.9087 26.4458 23.0498 24.1333 25.994 21.584C30.194 17.748 32.7 13.744 32.7 9.033C32.7 7.91184 32.4791 6.80168 32.0498 5.76595C31.6205 4.73022 30.9914 3.78924 30.1983 2.99678C29.4052 2.20433 28.4637 1.57594 27.4276 1.14753C26.3915 0.719117 25.2812 0.499083 24.16 0.500003Z" stroke="white" stroke-miterlimit="10"/>
</svg>