<svg xmlns="http://www.w3.org/2000/svg" width="40" height="39" viewBox="0 0 40 39" fill="none">
  <mask id="path-1-outside-1_715_7633" maskUnits="userSpaceOnUse" x="-0.646729" y="-0.646484" width="41" height="40" fill="black">
    <rect fill="white" x="-0.646729" y="-0.646484" width="41" height="40"/>
    <path fill-rule="evenodd" clip-rule="evenodd" d="M32.4222 1.41078C31.9271 1.53133 31.4579 1.90755 31.308 2.30442C31.2652 2.41768 31.2312 3.02806 31.2312 3.68299V4.85829L29.1198 4.90514C24.6153 5.00504 17.6435 5.04257 13.3236 4.99017L8.80609 4.93545L8.73924 3.83696C8.67767 2.82335 8.65746 2.7158 8.4783 2.44503C8.34454 2.24299 8.15354 2.08751 7.86531 1.94602C7.50432 1.76881 7.36695 1.74153 6.8691 1.74817C6.20537 1.75705 5.06161 1.94328 4.37875 2.1537C2.86534 2.61993 1.97907 3.47098 1.7192 4.70742C1.42397 6.11234 1.25095 15.6211 1.41928 21.1939C1.58047 26.5306 1.97459 33.0637 2.1845 33.8779C2.38214 34.6447 2.93991 35.2732 3.77205 35.6669C5.01953 36.257 8.71477 36.8193 12.5355 37.0005C17.114 37.2174 31.938 36.8786 34.8727 36.4899C35.6211 36.3908 36.4112 36.1362 36.8556 35.8511C37.6315 35.3532 38.1308 34.5804 38.1888 33.7874C38.2061 33.5506 38.2281 30.1411 38.2375 26.2107C38.247 22.2803 38.2801 19.2106 38.3111 19.3893C38.3939 19.8661 38.3123 6.26884 38.2273 5.43814C38.1011 4.20401 37.7525 3.32221 37.1311 2.66512C36.6975 2.20661 36.2149 1.91852 35.5298 1.70904C34.5563 1.41136 33.024 1.26432 32.4222 1.41078ZM1.38088 15.5635C1.38088 17.8861 1.38997 18.8361 1.40109 17.6749C1.41228 16.5136 1.41228 14.6134 1.40109 13.4522C1.38997 12.2909 1.38088 13.241 1.38088 15.5635ZM20.548 29.459C20.3323 29.5979 20.0997 29.7116 20.0311 29.7116C19.9625 29.7116 19.8164 29.789 19.7064 29.8835C19.5274 30.0375 19.5154 30.0751 19.5917 30.2425C19.6385 30.3453 19.7528 30.4485 19.8456 30.4718C20.2391 30.5706 21.342 29.9375 21.342 29.6129C21.342 29.4925 21.0989 29.2063 20.9967 29.2063C20.9656 29.2063 20.7637 29.32 20.548 29.459ZM17.8433 30.5635C17.4854 30.6553 17.3289 30.6597 16.9191 30.5894C16.301 30.4833 16.1259 30.5523 16.1586 30.8889C16.1878 31.1899 16.4453 31.3129 17.1395 31.3574C17.8157 31.4008 18.5549 31.2175 18.7199 30.9657C18.8218 30.8101 18.8213 30.7778 18.7139 30.6139C18.5794 30.4087 18.4715 30.4024 17.8433 30.5635Z"/>
  </mask>
  <path fill-rule="evenodd" clip-rule="evenodd" d="M32.4222 1.41078C31.9271 1.53133 31.4579 1.90755 31.308 2.30442C31.2652 2.41768 31.2312 3.02806 31.2312 3.68299V4.85829L29.1198 4.90514C24.6153 5.00504 17.6435 5.04257 13.3236 4.99017L8.80609 4.93545L8.73924 3.83696C8.67767 2.82335 8.65746 2.7158 8.4783 2.44503C8.34454 2.24299 8.15354 2.08751 7.86531 1.94602C7.50432 1.76881 7.36695 1.74153 6.8691 1.74817C6.20537 1.75705 5.06161 1.94328 4.37875 2.1537C2.86534 2.61993 1.97907 3.47098 1.7192 4.70742C1.42397 6.11234 1.25095 15.6211 1.41928 21.1939C1.58047 26.5306 1.97459 33.0637 2.1845 33.8779C2.38214 34.6447 2.93991 35.2732 3.77205 35.6669C5.01953 36.257 8.71477 36.8193 12.5355 37.0005C17.114 37.2174 31.938 36.8786 34.8727 36.4899C35.6211 36.3908 36.4112 36.1362 36.8556 35.8511C37.6315 35.3532 38.1308 34.5804 38.1888 33.7874C38.2061 33.5506 38.2281 30.1411 38.2375 26.2107C38.247 22.2803 38.2801 19.2106 38.3111 19.3893C38.3939 19.8661 38.3123 6.26884 38.2273 5.43814C38.1011 4.20401 37.7525 3.32221 37.1311 2.66512C36.6975 2.20661 36.2149 1.91852 35.5298 1.70904C34.5563 1.41136 33.024 1.26432 32.4222 1.41078ZM1.38088 15.5635C1.38088 17.8861 1.38997 18.8361 1.40109 17.6749C1.41228 16.5136 1.41228 14.6134 1.40109 13.4522C1.38997 12.2909 1.38088 13.241 1.38088 15.5635ZM20.548 29.459C20.3323 29.5979 20.0997 29.7116 20.0311 29.7116C19.9625 29.7116 19.8164 29.789 19.7064 29.8835C19.5274 30.0375 19.5154 30.0751 19.5917 30.2425C19.6385 30.3453 19.7528 30.4485 19.8456 30.4718C20.2391 30.5706 21.342 29.9375 21.342 29.6129C21.342 29.4925 21.0989 29.2063 20.9967 29.2063C20.9656 29.2063 20.7637 29.32 20.548 29.459ZM17.8433 30.5635C17.4854 30.6553 17.3289 30.6597 16.9191 30.5894C16.301 30.4833 16.1259 30.5523 16.1586 30.8889C16.1878 31.1899 16.4453 31.3129 17.1395 31.3574C17.8157 31.4008 18.5549 31.2175 18.7199 30.9657C18.8218 30.8101 18.8213 30.7778 18.7139 30.6139C18.5794 30.4087 18.4715 30.4024 17.8433 30.5635Z" fill="#6A453C"/>
  <path d="M32.5305 2.14518L32.7269 2.79274L32.727 2.79272L32.5305 2.14518ZM31.9858 2.6709L31.3207 2.54611L31.3207 2.54633L31.9858 2.6709ZM33.5308 30.1657L33.5529 29.4894L33.5528 29.4894L33.5308 30.1657ZM35.2002 30.3222L35.365 29.6659L35.3649 29.6659L35.2002 30.3222ZM37.0528 31.2768L36.5905 31.771L36.5905 31.771L37.0528 31.2768ZM37.4244 31.6245L36.9622 32.1187L38.0856 33.1695L38.1011 31.6313L37.4244 31.6245ZM37.4738 26.716L38.1505 26.7228V26.7228L37.4738 26.716ZM37.5352 13.6507L38.2119 13.6517V13.6517L37.5352 13.6507ZM37.4166 4.9164L36.7566 5.06573L36.7566 5.06576L37.4166 4.9164ZM35.871 2.63495L36.1625 2.02424L36.1625 2.02424L35.871 2.63495ZM6.03898 2.54876L5.92498 1.88174L5.92496 1.88175L6.03898 2.54876ZM3.8438 3.15554L4.14031 3.7638L4.14038 3.76377L3.8438 3.15554ZM2.54355 4.49874L3.18383 4.7177L3.18383 4.7177L2.54355 4.49874ZM2.09629 13.4721L1.41967 13.4627L1.41967 13.4627L2.09629 13.4721ZM2.62028 30.6873L3.29565 30.6452L3.29565 30.6452L2.62028 30.6873ZM2.66539 31.4103L1.99002 31.4525L2.08207 32.9277L3.13861 31.894L2.66539 31.4103ZM3.08846 30.9964L3.56169 31.4801L3.56173 31.4801L3.08846 30.9964ZM4.10756 30.2963L4.40038 30.9063L4.40042 30.9063L4.10756 30.2963ZM6.95933 29.7319L6.97751 30.4083H6.97753L6.95933 29.7319ZM6.79692 2.50834L6.78571 1.83174L6.78569 1.83174L6.79692 2.50834ZM27.0806 5.67815L27.0684 5.00158L27.0684 5.00158L27.0806 5.67815ZM23.3451 5.73655L23.3514 6.41321L23.3515 6.41321L23.3451 5.73655ZM22.2804 5.74651L22.2741 5.06985L21.6037 5.07612V5.74651H22.2804ZM22.1462 6.89215L22.7788 7.1325L22.7788 7.1324L22.1462 6.89215ZM11.7054 31.1316L12.382 31.1316V31.1315L11.7054 31.1316ZM12.3225 32.9556L12.6524 32.3647L12.6523 32.3647L12.3225 32.9556ZM15.2098 32.9185L15.08 32.2544L15.08 32.2544L15.2098 32.9185ZM19.3295 33.0383L19.6322 32.4331L19.6322 32.4331L19.3295 33.0383ZM21.1625 35.8665L21.834 35.7827L21.834 35.7826L21.1625 35.8665ZM21.2142 36.2803L20.5428 36.3642L20.6169 36.9576L21.2148 36.957L21.2142 36.2803ZM22.018 36.2796L22.0174 35.6029H22.0174L22.018 36.2796ZM35.2791 35.6705L35.4172 36.3329L35.4172 36.3329L35.2791 35.6705ZM37.2931 34.3191L36.6715 34.0517L36.6715 34.0517L37.2931 34.3191ZM36.6213 31.8952L37.0863 31.4036L37.0863 31.4036L36.6213 31.8952ZM35.3043 31.1349L35.1118 31.7836L35.1119 31.7836L35.3043 31.1349ZM34.938 31.0262L35.1304 30.3775L34.5566 30.2073L34.3176 30.756L34.938 31.0262ZM34.7311 31.5011L34.1107 31.2309L34.1107 31.2309L34.7311 31.5011ZM33.1802 33.0928L33.4771 33.7009L33.4771 33.7008L33.1802 33.0928ZM31.2148 5.60214L31.8913 5.58689L31.8761 4.91281L31.202 4.92558L31.2148 5.60214ZM30.4832 5.616L30.4959 6.29257L30.496 6.29257L30.4832 5.616ZM15.7477 7.88013L15.4865 7.25589L15.4863 7.25596L15.7477 7.88013ZM16.5406 7.02727L17.1893 7.21996L17.1893 7.21986L16.5406 7.02727ZM16.5598 5.78636L16.3603 6.43296L16.3604 6.43299L16.5598 5.78636ZM12.6141 5.71468L12.6218 5.03803H12.6218L12.6141 5.71468ZM8.75852 5.67086L8.76621 4.99422L8.06888 4.98629L8.08195 5.68354L8.75852 5.67086ZM17.3582 6.45031L16.6821 6.42098L16.6821 6.42105L17.3582 6.45031ZM21.5585 5.74651H22.2352V5.06982H21.5585V5.74651ZM17.3887 5.74651V5.06982H16.7407L16.7126 5.71718L17.3887 5.74651ZM30.7533 32.7376L30.8466 32.0673L30.8465 32.0673L30.7533 32.7376ZM33.9712 31.3777L34.574 31.6852L34.574 31.6852L33.9712 31.3777ZM7.52402 30.4459L7.53608 29.7693H7.53608L7.52402 30.4459ZM6.19909 30.4223L6.21114 29.7457L5.58799 29.7346L5.52578 30.3548L6.19909 30.4223ZM6.14856 30.926L6.82186 30.9937L6.82187 30.9936L6.14856 30.926ZM6.9018 32.7979L7.16318 32.1737L7.16306 32.1737L6.9018 32.7979ZM8.11897 33.0706L8.23382 32.4037L8.2338 32.4037L8.11897 33.0706ZM10.2685 34.0289L10.747 33.5505L10.747 33.5504L10.2685 34.0289ZM11.1712 35.7499L11.8377 35.6329H11.8377L11.1712 35.7499ZM11.2492 36.1941L10.5827 36.3111L10.6749 36.8367L11.2076 36.8695L11.2492 36.1941ZM12.2353 36.2547L12.2768 35.5793L12.2768 35.5793L12.2353 36.2547ZM20.4263 36.2803L19.9387 35.8111L19.9386 35.8112L20.4263 36.2803ZM20.1182 34.932L20.7317 34.6465V34.6465L20.1182 34.932ZM18.8695 33.64L18.5887 34.2557L18.5888 34.2557L18.8695 33.64ZM17.6168 33.4062L17.6406 32.7299L17.6405 32.7299L17.6168 33.4062ZM15.4222 33.6458L15.5499 34.3103L15.5499 34.3103L15.4222 33.6458ZM13.2644 33.8838L13.2381 34.5599L13.2381 34.5599L13.2644 33.8838ZM11.4671 33.2264L11.9507 32.753L11.9507 32.753L11.4671 33.2264ZM10.95 31.5884L11.6263 31.6091L11.6263 31.6091L10.95 31.5884ZM4.99145 30.7172L4.7644 30.0797L4.76437 30.0797L4.99145 30.7172ZM3.06897 32.2741L3.68008 32.5648L3.68012 32.5647L3.06897 32.2741ZM2.86296 33.1968L3.53965 33.1969V33.1968H2.86296ZM5.78591 35.4875L5.65059 36.1505L5.65062 36.1505L5.78591 35.4875ZM10.2861 35.3633L9.65227 35.6003L9.65232 35.6004L10.2861 35.3633ZM8.82305 33.9772L8.62331 34.6238L8.62339 34.6238L8.82305 33.9772ZM5.38933 30.5829L5.48911 31.2522L5.49149 31.2519L5.38933 30.5829ZM32.5305 2.14518L32.3341 1.49762C32.112 1.56497 31.8759 1.66949 31.6812 1.85741C31.4738 2.0576 31.3669 2.29993 31.3207 2.54611L31.9858 2.6709L32.6509 2.79569C32.6541 2.77836 32.6559 2.78009 32.6498 2.79221C32.6429 2.80593 32.6324 2.82027 32.621 2.83122C32.6109 2.841 32.6084 2.84002 32.6238 2.83197C32.6403 2.82335 32.6721 2.80936 32.7269 2.79274L32.5305 2.14518ZM31.9858 2.6709L31.3207 2.54633C31.3086 2.61087 31.3064 2.68033 31.3059 2.69368C31.3044 2.72821 31.3032 2.77029 31.3023 2.81721C31.3005 2.91184 31.2993 3.04034 31.2987 3.19703C31.2975 3.51118 31.2985 3.94873 31.3016 4.4769C31.3076 5.53376 31.3218 6.95937 31.3427 8.49895L32.0193 8.48979L32.6959 8.48063C32.6751 6.94359 32.661 5.52161 32.6549 4.46912C32.6519 3.94261 32.6509 3.51003 32.6521 3.20226C32.6527 3.04799 32.6538 2.92758 32.6555 2.84331C32.6563 2.80078 32.6572 2.77091 32.658 2.75199C32.6597 2.71188 32.6601 2.74639 32.6509 2.79546L31.9858 2.6709ZM32.3296 30.1267L32.3076 30.803L33.5089 30.842L33.5308 30.1657L33.5528 29.4894L32.3515 29.4503L32.3296 30.1267ZM33.5308 30.1657L33.5088 30.842C34.2531 30.8663 34.8247 30.9257 35.0356 30.9786L35.2002 30.3222L35.3649 29.6659C34.9974 29.5737 34.2927 29.5135 33.5529 29.4894L33.5308 30.1657ZM35.2002 30.3222L35.0355 30.9785C35.6239 31.1262 36.2627 31.4644 36.5905 31.771L37.0528 31.2768L37.515 30.7826C36.9895 30.2911 36.1323 29.8585 35.365 29.6659L35.2002 30.3222ZM37.0528 31.2768L36.5905 31.771L36.9622 32.1187L37.4244 31.6245L37.8867 31.1303L37.515 30.7826L37.0528 31.2768ZM37.4244 31.6245L38.1011 31.6313L38.1505 26.7228L37.4738 26.716L36.7972 26.7092L36.7478 31.6177L37.4244 31.6245ZM37.4738 26.716L38.1505 26.7228C38.1776 24.0203 38.2053 18.1388 38.2119 13.6517L37.5352 13.6507L36.8586 13.6497C36.8519 18.135 36.8243 24.0123 36.7972 26.7092L37.4738 26.716ZM37.5352 13.6507L38.2119 13.6517C38.2176 9.83631 38.2185 7.78135 38.2027 6.61346C38.187 5.45644 38.1555 5.11542 38.0766 4.76704L37.4166 4.9164L36.7566 5.06576C36.8002 5.25803 36.8336 5.46597 36.8494 6.63183C36.8651 7.78682 36.8642 9.82866 36.8586 13.6497L37.5352 13.6507ZM37.4166 4.9164L38.0767 4.76706C37.7784 3.44903 37.2141 2.52613 36.1625 2.02424L35.871 2.63495L35.5796 3.24566C36.1267 3.50675 36.5123 3.98595 36.7566 5.06573L37.4166 4.9164ZM35.871 2.63495L36.1625 2.02424C35.6593 1.7841 34.8967 1.60383 34.217 1.50417C33.8683 1.45305 33.5188 1.41978 33.2081 1.4124C32.9163 1.40548 32.5934 1.41895 32.334 1.49764L32.5305 2.14518L32.727 2.79272C32.7704 2.77955 32.9134 2.75917 33.176 2.7654C33.4196 2.77119 33.7129 2.79811 34.0206 2.84323C34.6538 2.93607 35.2588 3.09254 35.5796 3.24566L35.871 2.63495ZM6.03898 2.54876L5.92496 1.88175C5.09311 2.02395 4.03938 2.30732 3.54721 2.54731L3.8438 3.15554L4.14038 3.76377C4.45855 3.60863 5.36173 3.35104 6.15301 3.21577L6.03898 2.54876ZM3.8438 3.15554L3.54728 2.54728C2.83676 2.89364 2.14568 3.5709 1.90326 4.27978L2.54355 4.49874L3.18383 4.7177C3.28241 4.42943 3.6686 3.99376 4.14031 3.7638L3.8438 3.15554ZM2.54355 4.49874L1.90326 4.27978C1.81954 4.52459 1.76381 4.91514 1.71822 5.36972C1.67012 5.84935 1.62723 6.47444 1.58931 7.2352C1.51341 8.75797 1.45621 10.8504 1.41967 13.4627L2.09629 13.4721L2.77292 13.4816C2.80936 10.876 2.86628 8.80193 2.94101 7.30258C2.97841 6.55228 3.01995 5.95239 3.06484 5.50477C3.11225 5.03209 3.15805 4.7931 3.18383 4.7177L2.54355 4.49874ZM2.09629 13.4721L1.41967 13.4627C1.34862 18.5461 1.50548 23.6889 1.9449 30.7295L2.62028 30.6873L3.29565 30.6452C2.85761 23.6268 2.70249 18.5203 2.77292 13.4816L2.09629 13.4721ZM2.62028 30.6873L1.9449 30.7295L1.99002 31.4525L2.66539 31.4103L3.34077 31.3682L3.29565 30.6452L2.62028 30.6873ZM2.66539 31.4103L3.13861 31.894L3.56169 31.4801L3.08846 30.9964L2.61524 30.5127L2.19217 30.9266L2.66539 31.4103ZM3.08846 30.9964L3.56173 31.4801C3.78869 31.258 4.05693 31.0712 4.40038 30.9063L4.10756 30.2963L3.81473 29.6862C3.35333 29.9077 2.95935 30.176 2.6152 30.5127L3.08846 30.9964ZM4.10756 30.2963L4.40042 30.9063C4.85701 30.6871 5.11858 30.5855 5.43398 30.5231C5.76933 30.4567 6.19101 30.4295 6.97751 30.4083L6.95933 29.7319L6.94115 29.0554C6.16465 29.0763 5.63416 29.1038 5.17122 29.1955C4.68833 29.291 4.30552 29.4506 3.81469 29.6863L4.10756 30.2963ZM6.95933 29.7319L6.97753 30.4083L8.36707 30.3709L8.34887 29.6945L8.33067 29.0181L6.94113 29.0554L6.95933 29.7319ZM7.91187 2.92405L8.5085 2.60477C8.15354 1.94144 7.44831 1.82077 6.78571 1.83174L6.79692 2.50834L6.80812 3.18493C7.08162 3.18041 7.22298 3.20864 7.28966 3.2335C7.31782 3.24399 7.32374 3.25069 7.31979 3.24735C7.31483 3.24316 7.31306 3.23925 7.31523 3.24332L7.91187 2.92405ZM6.79692 2.50834L6.78569 1.83174C6.47879 1.83683 6.08439 1.8545 5.92498 1.88174L6.03898 2.54876L6.15298 3.21578C6.14649 3.21689 6.16118 3.21445 6.20992 3.21046C6.25249 3.20697 6.30759 3.20333 6.37211 3.19989C6.50097 3.19302 6.65736 3.18744 6.80814 3.18493L6.79692 2.50834ZM27.0806 5.67815L27.0684 5.00158C25.5994 5.02821 23.9211 5.05436 23.3387 5.05989L23.3451 5.73655L23.3515 6.41321C23.9404 6.40762 25.624 6.38137 27.0929 6.35473L27.0806 5.67815ZM23.3451 5.73655L23.3388 5.05989L22.2741 5.06985L22.2804 5.74651L22.2867 6.42317L23.3514 6.41321L23.3451 5.73655ZM22.2804 5.74651H21.6037V6.14273H22.2804H22.9571V5.74651H22.2804ZM22.2804 6.14273H21.6037C21.6037 6.28252 21.5568 6.53801 21.5136 6.65189L22.1462 6.89215L22.7788 7.1324C22.8831 6.85779 22.9571 6.43879 22.9571 6.14273H22.2804ZM22.1462 6.89215L21.5136 6.65179C21.4057 6.93576 21.2653 7.13562 21.0841 7.29107C20.8979 7.45075 20.6361 7.59124 20.2476 7.70662L20.4402 8.35532L20.6328 9.00401C21.1466 8.85144 21.5953 8.63563 21.9652 8.31836C22.34 7.99685 22.6015 7.5991 22.7788 7.1325L22.1462 6.89215ZM11.4978 29.4429L10.8835 29.7266C10.9797 29.935 10.993 29.9742 11.006 30.0798C11.0261 30.2436 11.0286 30.5031 11.0287 31.1317L11.7054 31.1316L12.382 31.1315C12.382 30.5475 12.3821 30.1823 12.3493 29.9148C12.3092 29.5891 12.2189 29.3903 12.1122 29.1592L11.4978 29.4429ZM11.7054 31.1316L11.0287 31.1316C11.0287 31.4817 11.0302 31.7707 11.0433 32.0043C11.0561 32.2333 11.0817 32.4597 11.1519 32.6671C11.3235 33.1744 11.7023 33.3843 11.9926 33.5464L12.3225 32.9556L12.6523 32.3647C12.4992 32.2792 12.4496 32.2449 12.427 32.2248C12.4218 32.2201 12.4257 32.2229 12.4316 32.2316C12.4373 32.2403 12.4373 32.2434 12.4339 32.2333C12.4234 32.2025 12.4054 32.1229 12.3946 31.9289C12.384 31.7394 12.3821 31.4882 12.382 31.1316L11.7054 31.1316ZM12.3225 32.9556L11.9925 33.5464C12.7765 33.9842 13.7078 33.9016 15.3396 33.5826L15.2098 32.9185L15.08 32.2544C13.3664 32.5894 12.9382 32.5243 12.6524 32.3647L12.3225 32.9556ZM15.2098 32.9185L15.3396 33.5826C17.4076 33.1784 18.2359 33.2479 19.0268 33.6435L19.3295 33.0383L19.6322 32.4331C18.4213 31.8274 17.2119 31.8377 15.08 32.2544L15.2098 32.9185ZM19.3295 33.0383L19.0268 33.6435C19.7306 33.9955 20.3618 34.9154 20.4911 35.9504L21.1625 35.8665L21.834 35.7826C21.6593 34.3842 20.8122 33.0233 19.6322 32.4331L19.3295 33.0383ZM21.1625 35.8665L20.4911 35.9504L20.5428 36.3642L21.2142 36.2803L21.8857 36.1965L21.834 35.7827L21.1625 35.8665ZM21.2142 36.2803L21.2148 36.957L22.0186 36.9563L22.018 36.2796L22.0174 35.6029L21.2136 35.6037L21.2142 36.2803ZM22.018 36.2796L22.0186 36.9563C24.0851 36.9545 27.1275 36.861 29.7923 36.7385C31.1256 36.6773 32.3686 36.6086 33.3515 36.5402C34.3109 36.4734 35.0778 36.4037 35.4172 36.3329L35.2791 35.6705L35.1409 35.008C34.9119 35.0558 34.25 35.121 33.2576 35.1901C32.2887 35.2575 31.0571 35.3256 29.7302 35.3866C27.0748 35.5086 24.055 35.6011 22.0174 35.6029L22.018 36.2796ZM35.2791 35.6705L35.4172 36.3329C36.5246 36.102 37.5154 35.5148 37.9147 34.5865L37.2931 34.3191L36.6715 34.0517C36.5151 34.4152 36.0205 34.8246 35.1409 35.008L35.2791 35.6705ZM37.2931 34.3191L37.9147 34.5865C38.3841 33.4954 37.9708 32.2402 37.0863 31.4036L36.6213 31.8952L36.1563 32.3869C36.7402 32.9391 36.8611 33.6109 36.6715 34.0517L37.2931 34.3191ZM36.6213 31.8952L37.0863 31.4036C36.5866 30.9311 36.1536 30.6809 35.4966 30.4861L35.3043 31.1349L35.1119 31.7836C35.5638 31.9176 35.8103 32.0596 36.1564 32.3869L36.6213 31.8952ZM35.3043 31.1349L35.4967 30.4861L35.1304 30.3775L34.938 31.0262L34.7456 31.675L35.1118 31.7836L35.3043 31.1349ZM34.938 31.0262L34.3176 30.756L34.1107 31.2309L34.7311 31.5011L35.3515 31.7714L35.5584 31.2965L34.938 31.0262ZM34.7311 31.5011L34.1107 31.2309C33.9068 31.699 33.3869 32.2388 32.8833 32.4847L33.1802 33.0928L33.4771 33.7008C34.2545 33.3212 35.0125 32.5497 35.3515 31.7714L34.7311 31.5011ZM33.1802 33.0928L32.8833 32.4847C31.7878 33.0196 30.4203 32.9721 28.9873 32.232L28.6768 32.8332L28.3662 33.4344C30.0924 34.326 31.9171 34.4625 33.4771 33.7009L33.1802 33.0928ZM31.2575 7.49697L31.9341 7.48172L31.8913 5.58689L31.2148 5.60214L30.5383 5.6174L30.581 7.51223L31.2575 7.49697ZM31.2148 5.60214L31.202 4.92558L30.4703 4.93944L30.4832 5.616L30.496 6.29257L31.2276 6.27871L31.2148 5.60214ZM30.4832 5.616L30.4704 4.93943C30.0682 4.94701 28.5374 4.97501 27.0684 5.00158L27.0806 5.67815L27.0929 6.35473C28.5618 6.32817 30.0931 6.30016 30.4959 6.29257L30.4832 5.616ZM14.5206 8.1161L14.617 8.78589C14.9043 8.74455 15.1918 8.69631 15.4257 8.65135C15.5423 8.62893 15.6497 8.60653 15.7393 8.58541C15.8122 8.56821 15.9208 8.54128 16.0091 8.50429L15.7477 7.88013L15.4863 7.25596C15.5151 7.24392 15.51 7.24896 15.4285 7.26818C15.3637 7.28348 15.276 7.30196 15.1702 7.3223C14.9592 7.36286 14.6927 7.40767 14.4242 7.44631L14.5206 8.1161ZM15.7477 7.88013L16.0089 8.50437C16.5823 8.26444 17.0112 7.81955 17.1893 7.21996L16.5406 7.02727L15.8919 6.83459C15.8392 7.01213 15.7177 7.15915 15.4865 7.25589L15.7477 7.88013ZM16.5406 7.02727L17.1893 7.21986C17.2789 6.91805 17.3208 6.55351 17.3253 6.26126C17.3276 6.11533 17.3212 5.95622 17.2958 5.81392C17.2837 5.74607 17.2615 5.64771 17.215 5.54747C17.1821 5.47662 17.0598 5.23243 16.7592 5.13973L16.5598 5.78636L16.3604 6.43299C16.2204 6.38982 16.1283 6.3097 16.0767 6.25175C16.0263 6.19512 15.9995 6.14334 15.9873 6.11712C15.9641 6.06699 15.9608 6.03694 15.9635 6.05169C15.9675 6.07459 15.9737 6.13787 15.9721 6.24032C15.969 6.44484 15.9375 6.68108 15.8919 6.83469L16.5406 7.02727ZM16.5598 5.78636L16.7593 5.13976C16.7089 5.1242 16.6672 5.11804 16.6588 5.11676C16.6426 5.11427 16.6289 5.11274 16.6206 5.11186C16.6035 5.11007 16.5874 5.10889 16.5756 5.1081C16.551 5.10647 16.5218 5.10505 16.4912 5.10377C16.4287 5.10117 16.3431 5.09845 16.2387 5.09565C16.0293 5.09002 15.7341 5.08375 15.3758 5.07724C14.6587 5.06422 13.6831 5.0501 12.6218 5.03803L12.6141 5.71468L12.6064 6.39132C13.6655 6.40337 14.638 6.41744 15.3512 6.4304C15.7081 6.43688 15.9987 6.44306 16.2024 6.44854C16.3046 6.45129 16.3824 6.45379 16.4348 6.45598C16.4616 6.45709 16.4777 6.45796 16.4856 6.45849C16.4901 6.45879 16.487 6.45866 16.4797 6.45789C16.4762 6.45752 16.4666 6.45649 16.4536 6.4545C16.4485 6.45371 16.4091 6.44804 16.3603 6.43296L16.5598 5.78636ZM12.6141 5.71468L12.6218 5.03803L8.76621 4.99422L8.75852 5.67086L8.75083 6.34751L12.6064 6.39132L12.6141 5.71468ZM8.75852 5.67086L8.08195 5.68354L8.12966 8.22976L8.80623 8.21708L9.4828 8.2044L9.43509 5.65819L8.75852 5.67086ZM17.3582 6.45031L16.6821 6.42105C16.6652 6.81132 16.623 7.03624 16.5625 7.1953C16.5078 7.3392 16.4239 7.46675 16.2525 7.63308L16.7238 8.1187L17.1951 8.60431C17.4708 8.33674 17.6859 8.04877 17.8276 7.67628C17.9634 7.31895 18.0149 6.92663 18.0342 6.47956L17.3582 6.45031ZM20.0871 7.68833L20.2481 8.34561C20.8156 8.20664 21.3161 7.95092 21.6788 7.55295C22.0496 7.14598 22.2352 6.63434 22.2352 6.07365H21.5585H20.8819C20.8819 6.32171 20.8061 6.50127 20.6784 6.64138C20.5425 6.79049 20.3073 6.93774 19.9262 7.03106L20.0871 7.68833ZM21.5585 6.07365H22.2352V5.74651H21.5585H20.8819V6.07365H21.5585ZM21.5585 5.74651V5.06982H19.4736V5.74651V6.4232H21.5585V5.74651ZM19.4736 5.74651V5.06982H17.3887V5.74651V6.4232H19.4736V5.74651ZM17.3887 5.74651L16.7126 5.71718L16.6821 6.42098L17.3582 6.45031L18.0342 6.47964L18.0647 5.77584L17.3887 5.74651ZM27.429 8.48951V7.81282C27.2496 7.81282 27.0958 7.86977 26.9955 7.9189C26.8892 7.971 26.7675 8.05138 26.6654 8.16626L27.1711 8.61583L27.6769 9.06539C27.6542 9.09089 27.6349 9.10633 27.6236 9.11449C27.6117 9.12315 27.601 9.12937 27.5909 9.13429C27.5811 9.13908 27.5661 9.14554 27.5446 9.1515C27.5252 9.15688 27.4851 9.16619 27.429 9.16619V8.48951ZM28.0417 31.4574L27.5774 31.9497C28.4511 32.7738 29.4408 33.2382 30.6601 33.4078L30.7533 32.7376L30.8465 32.0673C29.894 31.9349 29.1669 31.5886 28.506 30.9652L28.0417 31.4574ZM30.7533 32.7376L30.6601 33.4078C32.2269 33.6258 33.9026 33.0012 34.574 31.6852L33.9712 31.3777L33.3685 31.0702C33.0355 31.7227 32.0288 32.2318 30.8466 32.0673L30.7533 32.7376ZM33.9712 31.3777L34.574 31.6852C34.6185 31.598 34.7201 31.4123 34.7629 31.2491C34.788 31.1537 34.8225 30.9677 34.7476 30.7582C34.6638 30.5242 34.4919 30.3892 34.3504 30.3193C34.2247 30.2572 34.0987 30.2331 34.0136 30.2207C33.9209 30.2073 33.8207 30.2006 33.7212 30.1967C33.5242 30.189 33.2593 30.1899 32.9363 30.1899V30.8665V31.5432C33.276 31.5432 33.5051 31.5427 33.668 31.5491C33.7485 31.5522 33.7948 31.5565 33.8193 31.5601C33.8515 31.5648 33.8136 31.5637 33.7511 31.5328C33.6728 31.4941 33.5392 31.3985 33.4733 31.2142C33.4161 31.0544 33.4479 30.9284 33.4539 30.9054C33.461 30.8785 33.4658 30.8745 33.4463 30.9156C33.4282 30.9538 33.4054 30.9978 33.3685 31.0702L33.9712 31.3777ZM32.9363 30.8665V30.1899C32.421 30.1899 32.1565 30.1849 32.011 30.1714C31.9381 30.1646 31.9409 30.1591 31.9747 30.1711C32.0312 30.1911 32.1103 30.2362 32.1757 30.315L31.6551 30.7472L31.1344 31.1795C31.3657 31.458 31.6887 31.5006 31.8855 31.5189C32.1067 31.5395 32.4405 31.5432 32.9363 31.5432V30.8665ZM14.003 31.2094L13.5144 31.6776C13.6626 31.8323 13.8176 31.9876 13.9722 32.1021C14.1257 32.2157 14.3713 32.3597 14.6886 32.3411C15.0063 32.3225 15.2334 32.1504 15.3725 32.0193C15.5125 31.8873 15.6477 31.7148 15.7762 31.5438L15.2353 31.1372L14.6944 30.7307C14.6324 30.8132 14.5814 30.8787 14.5377 30.9313C14.4934 30.9846 14.4634 31.0164 14.4441 31.0345C14.4242 31.0533 14.428 31.0459 14.4532 31.0322C14.4829 31.0162 14.5371 30.9943 14.6094 30.99C14.6818 30.9858 14.7379 31.0012 14.7689 31.0135C14.7953 31.024 14.7996 31.0307 14.7774 31.0142C14.7559 30.9983 14.7221 30.9702 14.6716 30.9224C14.6217 30.8751 14.5632 30.816 14.4916 30.7413L14.003 31.2094ZM14.3009 30.4695L13.7901 30.9133C13.8469 30.9788 13.9094 31.0512 13.9644 31.1073C14.0023 31.146 14.1231 31.2723 14.3046 31.339C14.4167 31.3802 14.5483 31.3986 14.6881 31.3744C14.8195 31.3518 14.9182 31.2985 14.9801 31.2577C15.0783 31.193 15.1627 31.102 15.1762 31.0883L14.6936 30.6139L14.211 30.1395C14.2018 30.1489 14.1956 30.1552 14.1902 30.1606C14.1877 30.1631 14.1859 30.165 14.1845 30.1662C14.1832 30.1675 14.1827 30.168 14.1828 30.1679C14.1829 30.1679 14.1839 30.1669 14.1857 30.1653C14.1875 30.1636 14.1905 30.1611 14.1945 30.1578C14.2019 30.1516 14.2159 30.1405 14.2353 30.1277C14.2733 30.1027 14.3495 30.0595 14.4581 30.0407C14.5753 30.0205 14.684 30.0366 14.7715 30.0688C14.8489 30.0972 14.8982 30.1339 14.9151 30.1472C14.9333 30.1614 14.9402 30.1695 14.9316 30.1607C14.9116 30.1402 14.8801 30.1044 14.8117 30.0257L14.3009 30.4695ZM9.07641 29.5078L8.39981 29.5185C8.40443 29.8123 8.40919 29.9279 8.39988 30.0067C8.3967 30.0336 8.39651 30.0024 8.4234 29.9498C8.45694 29.8842 8.51114 29.8262 8.57303 29.7888C8.62277 29.7588 8.65146 29.758 8.62169 29.7634C8.59292 29.7686 8.53816 29.7747 8.44044 29.7779C8.23912 29.7846 7.96266 29.7769 7.53608 29.7693L7.52402 30.4459L7.51197 31.1225C7.90781 31.1296 8.23861 31.1387 8.48506 31.1306C8.7019 31.1234 9.01292 31.1043 9.27302 30.9471C9.6209 30.7369 9.71607 30.401 9.7439 30.1656C9.76716 29.9689 9.75637 29.7102 9.75302 29.4972L9.07641 29.5078ZM7.52402 30.4459L7.53608 29.7693L6.21114 29.7457L6.19909 30.4223L6.18703 31.0989L7.51197 31.1225L7.52402 30.4459ZM6.19909 30.4223L5.52578 30.3548L5.47525 30.8585L6.14856 30.926L6.82187 30.9936L6.8724 30.4899L6.19909 30.4223ZM6.14856 30.926L5.47526 30.8584C5.36858 31.92 5.64548 33.0057 6.64054 33.4221L6.9018 32.7979L7.16306 32.1737C7.0026 32.1065 6.73653 31.8429 6.82186 30.9937L6.14856 30.926ZM6.9018 32.7979L6.64042 33.4221C6.77647 33.479 7.01071 33.5363 7.21703 33.5826C7.44924 33.6346 7.72938 33.6902 8.00413 33.7375L8.11897 33.0706L8.2338 32.4037C7.97994 32.36 7.72192 32.3087 7.51291 32.2619C7.40821 32.2385 7.31949 32.2169 7.25175 32.1988C7.17344 32.1779 7.15209 32.1691 7.16318 32.1737L6.9018 32.7979ZM8.11897 33.0706L8.00412 33.7375C8.55904 33.8331 8.88854 33.9209 9.13437 34.0305C9.36344 34.1327 9.54955 34.267 9.78997 34.5074L10.2685 34.0289L10.747 33.5504C10.4251 33.2286 10.1059 32.9819 9.68546 32.7944C9.28179 32.6145 8.81767 32.5043 8.23382 32.4037L8.11897 33.0706ZM10.2685 34.0289L9.78993 34.5074C10.1496 34.8671 10.4204 35.3866 10.5047 35.8669L11.1712 35.7499L11.8377 35.6329C11.7042 34.8722 11.2985 34.102 10.747 33.5505L10.2685 34.0289ZM11.1712 35.7499L10.5047 35.8669L10.5827 36.3111L11.2492 36.1941L11.9157 36.0771L11.8377 35.6329L11.1712 35.7499ZM11.2492 36.1941L11.2076 36.8695L12.1937 36.9301L12.2353 36.2547L12.2768 35.5793L11.2907 35.5187L11.2492 36.1941ZM12.2353 36.2547L12.1937 36.9301C12.7426 36.9639 14.801 36.9854 16.6997 36.9913C17.6557 36.9943 18.5822 36.9933 19.2744 36.9878C19.62 36.9851 19.9103 36.9811 20.1176 36.9759C20.2202 36.9733 20.3085 36.9702 20.3748 36.9664C20.4064 36.9646 20.4433 36.9621 20.478 36.9581C20.4934 36.9563 20.5239 36.9525 20.559 36.9451C20.5755 36.9416 20.6096 36.9338 20.6506 36.9192C20.664 36.9145 20.7964 36.8717 20.9139 36.7495L20.4263 36.2803L19.9386 35.8112C20.0552 35.69 20.1858 35.6481 20.1966 35.6443C20.235 35.6306 20.2656 35.6238 20.2779 35.6212C20.3044 35.6156 20.3229 35.6136 20.3232 35.6136C20.3275 35.6131 20.3212 35.6139 20.2974 35.6152C20.253 35.6178 20.182 35.6204 20.0833 35.6229C19.8879 35.6279 19.6069 35.6317 19.2636 35.6345C18.5783 35.64 17.6573 35.6409 16.7039 35.6379C14.7838 35.6319 12.7759 35.61 12.2768 35.5793L12.2353 36.2547ZM20.4263 36.2803L20.9138 36.7496C21.0341 36.6246 21.0765 36.4883 21.092 36.4298C21.1106 36.3597 21.1168 36.2974 21.1192 36.2557C21.1242 36.1715 21.1186 36.0889 21.1118 36.0237C21.0978 35.8882 21.0687 35.7317 21.034 35.5799C20.9658 35.2816 20.8562 34.914 20.7317 34.6465L20.1182 34.932L19.5047 35.2174C19.573 35.3642 19.6571 35.6296 19.7146 35.8813C19.7427 36.0045 19.7594 36.1023 19.7656 36.1626C19.769 36.1953 19.767 36.196 19.7682 36.1757C19.7688 36.166 19.7711 36.1309 19.784 36.0825C19.7937 36.0458 19.8283 35.9258 19.9387 35.8111L20.4263 36.2803ZM20.1182 34.932L20.7317 34.6465C20.388 33.9078 19.8625 33.3491 19.1502 33.0243L18.8695 33.64L18.5888 34.2557C18.972 34.4305 19.2796 34.7337 19.5047 35.2174L20.1182 34.932ZM18.8695 33.64L19.1502 33.0243C18.9314 32.9245 18.735 32.8479 18.4808 32.8005C18.2468 32.7568 17.9838 32.742 17.6406 32.7299L17.6168 33.4062L17.593 34.0825C17.9418 34.0947 18.1106 34.1081 18.2325 34.1309C18.3343 34.1499 18.4182 34.178 18.5887 34.2557L18.8695 33.64ZM17.6168 33.4062L17.6405 32.7299C16.8662 32.7027 16.527 32.7443 15.2944 32.9813L15.4222 33.6458L15.5499 34.3103C16.7463 34.0803 16.9692 34.0606 17.5931 34.0825L17.6168 33.4062ZM15.4222 33.6458L15.2945 32.9813C14.1051 33.2098 13.8743 33.2303 13.2906 33.2076L13.2644 33.8838L13.2381 34.5599C13.9779 34.5887 14.3295 34.5449 15.5499 34.3103L15.4222 33.6458ZM13.2644 33.8838L13.2907 33.2076C12.8628 33.191 12.6086 33.1465 12.4271 33.0801C12.2621 33.0198 12.1228 32.9289 11.9507 32.753L11.4671 33.2264L10.9836 33.6997C11.2652 33.9874 11.5694 34.2075 11.9622 34.3511C12.3383 34.4887 12.7559 34.5412 13.2381 34.5599L13.2644 33.8838ZM11.4671 33.2264L11.9507 32.753C11.7548 32.5529 11.7019 32.4569 11.6724 32.3635C11.6342 32.2423 11.6128 32.0502 11.6263 31.6091L10.95 31.5884L10.2736 31.5677C10.2597 32.0191 10.2688 32.4129 10.3819 32.771C10.5037 33.1569 10.7231 33.4337 10.9836 33.6998L11.4671 33.2264ZM10.95 31.5884L11.6263 31.6091C11.6462 30.9598 11.6534 30.5284 11.6242 30.2086C11.5909 29.8429 11.5089 29.6063 11.3768 29.3456L10.7732 29.6515L10.1696 29.9574C10.2338 30.0842 10.2604 30.1558 10.2765 30.3316C10.2967 30.5532 10.2941 30.8966 10.2736 31.5677L10.95 31.5884ZM4.99145 30.7172L4.76437 30.0797C3.70011 30.4589 2.8885 31.0777 2.45783 31.9836L3.06897 32.2741L3.68012 32.5647C3.91455 32.0715 4.38652 31.651 5.21853 31.3547L4.99145 30.7172ZM3.06897 32.2741L2.45787 31.9835C2.36545 32.1778 2.29076 32.3626 2.24418 32.5712C2.19775 32.7791 2.18627 32.9793 2.18627 33.1968H2.86296H3.53965C3.53965 33.0254 3.54935 32.9363 3.56502 32.8661C3.58054 32.7967 3.60885 32.7145 3.68008 32.5648L3.06897 32.2741ZM2.86296 33.1968L2.18627 33.1967C2.18618 33.9909 2.44335 34.6669 3.09674 35.179C3.68926 35.6433 4.55428 35.9267 5.65059 36.1505L5.78591 35.4875L5.92123 34.8245C4.85692 34.6072 4.2604 34.3714 3.93156 34.1137C3.66359 33.9037 3.5396 33.6549 3.53965 33.1969L2.86296 33.1968ZM5.78591 35.4875L5.65062 36.1505C6.23939 36.2706 7.28263 36.4351 8.23302 36.5686C9.15822 36.6986 10.0869 36.8127 10.403 36.8127V36.136V35.4593C10.2055 35.4593 9.39266 35.3648 8.42127 35.2284C7.47506 35.0955 6.46658 34.9357 5.9212 34.8244L5.78591 35.4875ZM10.403 36.136V36.8127C10.717 36.8127 10.9209 36.6187 11.0135 36.4601C11.09 36.329 11.1085 36.203 11.1149 36.1449C11.1292 36.0156 11.1154 35.8873 11.1015 35.7957C11.0713 35.5956 11.006 35.3564 10.9198 35.1261L10.2861 35.3633L9.65232 35.6004C9.71309 35.7628 9.75005 35.9099 9.76339 35.9981C9.77132 36.0505 9.76467 36.0418 9.76973 35.9961C9.77154 35.9797 9.78129 35.8864 9.84474 35.7777C9.87994 35.7174 9.94183 35.6351 10.0442 35.5674C10.1527 35.4955 10.2782 35.4593 10.403 35.4593V36.136ZM10.2861 35.3633L10.9199 35.1262C10.6109 34.3002 9.86376 33.5904 9.02271 33.3307L8.82305 33.9772L8.62339 34.6238C9.05957 34.7585 9.4887 35.163 9.65227 35.6003L10.2861 35.3633ZM8.82305 33.9772L9.02278 33.3307C8.87427 33.2848 8.71974 33.2429 8.58742 33.2116C8.48643 33.1878 8.31599 33.1493 8.1829 33.1485L8.17888 33.8252L8.17486 34.5018C8.14718 34.5017 8.13116 34.4993 8.13573 34.4999C8.13713 34.5 8.14415 34.501 8.15796 34.5035C8.1856 34.5084 8.22564 34.5168 8.27645 34.5288C8.37765 34.5527 8.50265 34.5865 8.62331 34.6238L8.82305 33.9772ZM5.40189 31.154L6.07802 31.1815C6.08486 31.0136 6.0871 30.8552 6.08442 30.7335C6.08315 30.6757 6.0805 30.6109 6.07419 30.553C6.07166 30.5298 6.06534 30.475 6.04844 30.4137C6.04195 30.3902 6.01996 30.3113 5.96558 30.2249C5.9331 30.1733 5.71415 29.8488 5.28716 29.914L5.38933 30.5829L5.49149 31.2519C5.29516 31.2819 5.12499 31.2215 5.00798 31.1412C4.9048 31.0703 4.8468 30.9881 4.82018 30.9458C4.76806 30.863 4.74821 30.7896 4.74376 30.7735C4.73617 30.746 4.73256 30.7252 4.73123 30.717C4.72963 30.7073 4.72893 30.701 4.72877 30.6996C4.7287 30.6989 4.73037 30.7176 4.73137 30.7633C4.73324 30.8486 4.73184 30.9773 4.72576 31.1264L5.40189 31.154ZM5.38933 30.5829L5.28954 29.9136C5.2529 29.9191 5.22368 29.9266 5.21717 29.9283C5.20509 29.9314 5.19446 29.9344 5.18701 29.9365C5.17183 29.9409 5.15621 29.9457 5.14236 29.9501C5.11396 29.9591 5.07905 29.9707 5.04121 29.9834C4.96479 30.0092 4.86665 30.0433 4.7644 30.0797L4.99145 30.7172L5.2185 31.3547C5.31526 31.3202 5.40613 31.2886 5.47394 31.2658C5.50821 31.2542 5.53421 31.2456 5.55118 31.2403C5.56002 31.2375 5.56319 31.2366 5.56238 31.2368C5.56211 31.2369 5.55756 31.2382 5.55038 31.24C5.54877 31.2404 5.52328 31.2471 5.48911 31.2522L5.38933 30.5829ZM32.4222 1.41078L32.1022 0.0957936L32.1021 0.0958052L32.4222 1.41078ZM31.308 2.30442L32.574 2.78289L32.5741 2.7827L31.308 2.30442ZM31.2312 4.85829L31.2612 6.21133L32.5846 6.18197V4.85829H31.2312ZM29.1198 4.90514L29.1498 6.25818L29.1498 6.25818L29.1198 4.90514ZM13.3236 4.99017L13.34 3.63689L13.34 3.63689L13.3236 4.99017ZM8.80609 4.93545L7.4552 5.01765L7.53162 6.2735L8.78969 6.28873L8.80609 4.93545ZM8.73924 3.83696L7.38835 3.91902L7.38836 3.91916L8.73924 3.83696ZM8.4783 2.44503L9.60696 1.69821L9.60679 1.69795L8.4783 2.44503ZM7.86531 1.94602L7.26892 3.16091L7.26896 3.16093L7.86531 1.94602ZM6.8691 1.74817L6.85105 0.39491L6.851 0.39491L6.8691 1.74817ZM4.37875 2.1537L4.77721 3.44709L4.77729 3.44707L4.37875 2.1537ZM1.7192 4.70742L0.39476 4.42907L0.394753 4.4291L1.7192 4.70742ZM1.41928 21.1939L2.77204 21.153L2.77204 21.153L1.41928 21.1939ZM2.1845 33.8779L3.49505 33.5401L3.49503 33.5401L2.1845 33.8779ZM3.77205 35.6669L3.19326 36.8903L3.19333 36.8903L3.77205 35.6669ZM12.5355 37.0005L12.4715 38.3523H12.4715L12.5355 37.0005ZM34.8727 36.4899L34.695 35.1482L34.695 35.1482L34.8727 36.4899ZM36.8556 35.8511L36.1247 34.712L36.1247 34.712L36.8556 35.8511ZM38.1888 33.7874L39.5386 33.8862V33.8862L38.1888 33.7874ZM38.3111 19.3893L39.6446 19.1578L39.6446 19.1576L38.3111 19.3893ZM38.2273 5.43814L39.5737 5.30044V5.30041L38.2273 5.43814ZM37.1311 2.66512L36.1478 3.59503L36.1478 3.59505L37.1311 2.66512ZM35.5298 1.70904L35.1341 3.00327L35.1341 3.00328L35.5298 1.70904ZM1.40109 17.6749L0.0477731 17.6619L0.0477723 17.662L1.40109 17.6749ZM1.40109 13.4522L0.0477723 13.4651L0.0477731 13.4652L1.40109 13.4522ZM19.7064 29.8835L20.589 30.9096L20.589 30.9096L19.7064 29.8835ZM19.5917 30.2425L18.36 30.8034L18.3602 30.8038L19.5917 30.2425ZM19.8456 30.4718L19.5159 31.7845L19.5162 31.7845L19.8456 30.4718ZM17.8433 30.5635L18.1794 31.8745L18.1795 31.8745L17.8433 30.5635ZM16.9191 30.5894L16.6902 31.9233L16.6902 31.9233L16.9191 30.5894ZM16.1586 30.8889L17.5057 30.7583L17.5056 30.758L16.1586 30.8889ZM17.1395 31.3574L17.2262 30.0068H17.2262L17.1395 31.3574ZM18.7199 30.9657L17.5879 30.2239L17.5879 30.2239L18.7199 30.9657ZM18.7139 30.6139L19.8459 29.8722L19.8459 29.8721L18.7139 30.6139ZM32.4222 1.41078L32.1021 0.0958052C31.6457 0.206909 31.2276 0.426607 30.8889 0.698202C30.5586 0.963102 30.2249 1.3418 30.042 1.82614L31.308 2.30442L32.5741 2.7827C32.5551 2.83287 32.5377 2.85325 32.5413 2.84874C32.5439 2.84537 32.5567 2.83036 32.5824 2.80976C32.6076 2.78953 32.6377 2.77003 32.6693 2.7541C32.7011 2.73808 32.7267 2.72958 32.7424 2.72576L32.4222 1.41078ZM31.308 2.30442L30.042 1.82595C29.9608 2.04082 29.9387 2.27273 29.9327 2.32697C29.9198 2.44381 29.9099 2.57779 29.9023 2.7153C29.8868 2.99298 29.8778 3.33476 29.8778 3.68299H31.2312H32.5846C32.5846 3.37629 32.5926 3.08542 32.6048 2.86586C32.611 2.75475 32.6176 2.67396 32.6231 2.62403C32.626 2.59848 32.6272 2.59305 32.6257 2.60192C32.6248 2.60669 32.6219 2.62286 32.6162 2.64674C32.6115 2.66649 32.5988 2.71727 32.574 2.78289L31.308 2.30442ZM31.2312 3.68299H29.8778V4.85829H31.2312H32.5846V3.68299H31.2312ZM31.2312 4.85829L31.2012 3.50524L29.0898 3.55209L29.1198 4.90514L29.1498 6.25818L31.2612 6.21133L31.2312 4.85829ZM29.1198 4.90514L29.0898 3.55209C24.6001 3.65166 17.6438 3.6891 13.34 3.63689L13.3236 4.99017L13.3072 6.34345C17.6432 6.39605 24.6305 6.35841 29.1498 6.25818L29.1198 4.90514ZM13.3236 4.99017L13.34 3.63689L8.82248 3.58217L8.80609 4.93545L8.78969 6.28873L13.3072 6.34345L13.3236 4.99017ZM8.80609 4.93545L10.157 4.85325L10.0901 3.75476L8.73924 3.83696L7.38836 3.91916L7.4552 5.01765L8.80609 4.93545ZM8.73924 3.83696L10.0901 3.7549C10.0614 3.28161 10.0374 2.90277 9.98306 2.61301C9.90573 2.20059 9.76567 1.93805 9.60696 1.69821L8.4783 2.44503L7.34963 3.19186C7.38059 3.23864 7.36511 3.22008 7.34646 3.17753C7.32468 3.12784 7.31968 3.09592 7.32267 3.11184C7.32775 3.13897 7.33713 3.20313 7.34919 3.34473C7.36098 3.48326 7.37292 3.66498 7.38835 3.91902L8.73924 3.83696ZM8.4783 2.44503L9.60679 1.69795C9.30396 1.24052 8.89762 0.945109 8.46166 0.731116L7.86531 1.94602L7.26896 3.16093C7.34452 3.19802 7.37228 3.21992 7.37532 3.22239C7.37641 3.22328 7.37275 3.22039 7.36662 3.21366C7.36038 3.20682 7.35452 3.19924 7.34981 3.19212L8.4783 2.44503ZM7.86531 1.94602L8.4617 0.731137C8.25056 0.627488 7.99944 0.513715 7.68218 0.450701C7.38819 0.392311 7.10368 0.39154 6.85105 0.39491L6.8691 1.74817L6.88715 3.10143C7.00264 3.09989 7.07114 3.1008 7.11695 3.10308C7.15853 3.10514 7.16524 3.10766 7.15488 3.1056C7.12101 3.09887 7.11907 3.08735 7.26892 3.16091L7.86531 1.94602ZM6.8691 1.74817L6.851 0.39491C6.0488 0.405641 4.77702 0.614802 3.98021 0.860329L4.37875 2.1537L4.77729 3.44707C5.34621 3.27176 6.36193 3.10845 6.8872 3.10143L6.8691 1.74817ZM4.37875 2.1537L3.9803 0.860304C2.13636 1.42837 0.782692 2.58326 0.39476 4.42907L1.7192 4.70742L3.04365 4.98578C3.17544 4.3587 3.59432 3.8115 4.77721 3.44709L4.37875 2.1537ZM1.7192 4.70742L0.394753 4.4291C0.293756 4.90971 0.225627 5.88938 0.172222 7.02911C0.116305 8.22247 0.0719479 9.73074 0.0422498 11.3631C-0.0171112 14.6258 -0.0185229 18.4194 0.0665177 21.2348L1.41928 21.1939L2.77204 21.153C2.68875 18.3956 2.68968 14.6484 2.74856 11.4123C2.77798 9.79524 2.82172 8.31461 2.87601 7.1558C2.93283 5.94337 2.99704 5.20759 3.04366 4.98575L1.7192 4.70742ZM1.41928 21.1939L0.0665176 21.2347C0.147545 23.9175 0.287013 26.8985 0.432697 29.3133C0.505508 30.5202 0.580253 31.5921 0.650546 32.4178C0.715394 33.1796 0.786361 33.8759 0.873973 34.2158L2.1845 33.8779L3.49503 33.5401C3.49505 33.5401 3.4744 33.4367 3.44221 33.161C3.41333 32.9137 3.38145 32.5864 3.34755 32.1882C3.27987 31.3932 3.20665 30.3456 3.13454 29.1503C2.99039 26.7609 2.8522 23.807 2.77204 21.153L1.41928 21.1939ZM2.1845 33.8779L0.873954 34.2157C1.18878 35.4372 2.06365 36.3559 3.19326 36.8903L3.77205 35.6669L4.35083 34.4436C3.81616 34.1906 3.57551 33.8523 3.49505 33.5401L2.1845 33.8779ZM3.77205 35.6669L3.19333 36.8903C4.01695 37.2799 5.43479 37.5891 6.98521 37.825C8.59352 38.0698 10.5194 38.2598 12.4715 38.3523L12.5355 37.0005L12.5996 35.6486C10.7309 35.56 8.89879 35.3783 7.39241 35.1491C5.82815 34.9111 4.77462 34.644 4.35076 34.4435L3.77205 35.6669ZM12.5355 37.0005L12.4715 38.3523C14.8144 38.4634 19.7095 38.4314 24.3514 38.3253C28.968 38.2198 33.4931 38.0378 35.0504 37.8316L34.8727 36.4899L34.695 35.1482C33.3175 35.3307 28.9633 35.5125 24.2896 35.6193C19.6413 35.7255 14.8352 35.7545 12.5996 35.6486L12.5355 37.0005ZM34.8727 36.4899L35.0503 37.8316C35.9172 37.7168 36.9189 37.4184 37.5864 36.9901L36.8556 35.8511L36.1247 34.712C35.9035 34.854 35.3249 35.0648 34.695 35.1482L34.8727 36.4899ZM36.8556 35.8511L37.5864 36.9901C38.6559 36.3039 39.4442 35.1755 39.5386 33.8862L38.1888 33.7874L36.839 33.6886C36.8173 33.9853 36.6071 34.4025 36.1247 34.712L36.8556 35.8511ZM38.1888 33.7874L39.5386 33.8862C39.5605 33.5862 39.5816 30.0947 39.5909 26.2139L38.2375 26.2107L36.8842 26.2074C36.8794 28.1713 36.8716 30.0044 36.8628 31.3755C36.8584 32.0612 36.8537 32.63 36.8491 33.0412C36.8468 33.2471 36.8445 33.4113 36.8423 33.5301C36.8398 33.6696 36.8378 33.7048 36.839 33.6886L38.1888 33.7874ZM38.2375 26.2107L39.5909 26.2139C39.5956 24.2511 39.6063 22.5051 39.6195 21.2737C39.6262 20.6569 39.6335 20.1741 39.6409 19.8589C39.6447 19.6979 39.6482 19.5941 39.651 19.5405C39.6533 19.4968 39.653 19.5296 39.645 19.585C39.643 19.5994 39.6352 19.6541 39.6171 19.724C39.6087 19.7563 39.5881 19.8322 39.5481 19.924C39.5335 19.9575 39.4122 20.2588 39.0898 20.4869C38.888 20.6296 38.5744 20.7646 38.1874 20.7298C37.8162 20.6964 37.5545 20.5224 37.4091 20.393C37.1621 20.1731 37.0678 19.9225 37.0532 19.886C36.9976 19.7471 36.9793 19.6301 36.9777 19.621L38.3111 19.3893L39.6446 19.1576C39.642 19.1429 39.6228 19.0219 39.5662 18.8806C39.5511 18.8428 39.4563 18.5914 39.2088 18.3711C39.0631 18.2415 38.8012 18.0673 38.4298 18.0339C38.0426 17.9991 37.7287 18.1342 37.5267 18.2771C37.2038 18.5055 37.082 18.8076 37.0669 18.8422C37.0264 18.9351 37.0053 19.0124 36.9965 19.0466C36.9774 19.1203 36.9686 19.1804 36.9656 19.2016C36.9538 19.2842 36.9495 19.3685 36.9479 19.3992C36.9429 19.4947 36.9387 19.6321 36.9349 19.7952C36.9271 20.1282 36.9196 20.6249 36.9129 21.2445C36.8995 22.4858 36.8889 24.2399 36.8842 26.2074L38.2375 26.2107ZM38.3111 19.3893L36.9777 19.6208C36.982 19.6453 36.9943 19.7146 37.0205 19.799C37.0328 19.8386 37.0614 19.9258 37.1153 20.0285C37.1445 20.0844 37.2966 20.382 37.6528 20.5818C37.8342 20.6666 38.2539 20.7535 38.4836 20.7444C38.6931 20.7011 39.0391 20.5453 39.174 20.4478C39.4235 20.2432 39.5284 20.0057 39.5522 19.9524C39.6201 19.8005 39.6436 19.6691 39.6473 19.65C39.6704 19.5304 39.6753 19.4098 39.6762 19.3925C39.6816 19.2918 39.6852 19.1479 39.688 18.9836C39.6937 18.6454 39.697 18.1419 39.6983 17.5304C39.701 16.3045 39.6959 14.6195 39.6855 12.8959C39.6752 11.172 39.6595 9.40597 39.6412 8.01762C39.6235 6.68138 39.6029 5.58598 39.5737 5.30044L38.2273 5.43814L36.881 5.57584C36.8801 5.56758 36.8814 5.57903 36.8838 5.62395C36.8859 5.66388 36.8882 5.71752 36.8907 5.78584C36.8956 5.92226 36.9007 6.10387 36.9057 6.32631C36.9158 6.77049 36.9255 7.36307 36.9347 8.05341C36.9529 9.43328 36.9685 11.1925 36.9788 12.9122C36.9891 14.6321 36.9942 16.309 36.9916 17.5245C36.9902 18.1336 36.987 18.6207 36.9816 18.938C36.9789 19.1015 36.9758 19.2016 36.9733 19.2482C36.9703 19.3045 36.971 19.2332 36.9896 19.1371C36.9921 19.124 37.0145 18.9968 37.0812 18.8476C37.1044 18.7956 37.2087 18.559 37.4576 18.3549C37.5923 18.2576 37.9379 18.1019 38.1472 18.0587C38.3765 18.0496 38.7959 18.1364 38.977 18.2211C39.3327 18.4206 39.4841 18.7174 39.5127 18.7721C39.5659 18.8736 39.594 18.9592 39.6056 18.9968C39.6306 19.0771 39.6416 19.1407 39.6446 19.1578L38.3111 19.3893ZM38.2273 5.43814L39.5737 5.30041C39.4282 3.87826 39.0051 2.67705 38.1144 1.73519L37.1311 2.66512L36.1478 3.59505C36.4999 3.96738 36.774 4.52977 36.881 5.57587L38.2273 5.43814ZM37.1311 2.66512L38.1144 1.73521C37.499 1.08443 36.8039 0.683374 35.9256 0.414814L35.5298 1.70904L35.1341 3.00328C35.626 3.15367 35.896 3.32879 36.1478 3.59503L37.1311 2.66512ZM35.5298 1.70904L35.9256 0.414818C35.329 0.232414 34.6087 0.107864 33.9659 0.0461677C33.3706 -0.0109597 32.6406 -0.0352738 32.1022 0.0957936L32.4222 1.41078L32.7423 2.72577C32.7341 2.72777 32.7547 2.7224 32.8137 2.71692C32.8696 2.71173 32.9439 2.70788 33.0368 2.70706C33.2233 2.7054 33.4535 2.71618 33.7073 2.74055C34.2244 2.79018 34.7571 2.88799 35.1341 3.00327L35.5298 1.70904ZM1.38088 15.5635H0.0274988C0.0274988 16.7242 0.0297639 17.5485 0.0334979 17.9386C0.0344135 18.0342 0.0354958 18.1133 0.0369244 18.1661C0.036998 18.1688 0.0382584 18.2408 0.0456796 18.3106C0.0472075 18.325 0.050318 18.3524 0.05585 18.3864C0.0585687 18.4031 0.0728664 18.4954 0.110986 18.6071C0.124835 18.6477 0.17956 18.8092 0.308678 18.9816C0.411801 19.1194 0.906961 19.6888 1.72327 19.4828C2.32188 19.3317 2.56139 18.8532 2.58015 18.8189C2.64759 18.6953 2.67972 18.5895 2.69083 18.5517C2.71668 18.4637 2.7275 18.3925 2.73032 18.3741C2.73485 18.3446 2.73751 18.3206 2.7389 18.3073C2.74172 18.2802 2.74321 18.2581 2.74388 18.2475C2.7493 18.1624 2.75188 17.9521 2.75441 17.6879L1.40109 17.6749L0.0477723 17.662C0.0447439 17.9783 0.0420114 18.0847 0.0425985 18.0755C0.0429691 18.0697 0.044157 18.0514 0.046679 18.0272C0.0479212 18.0152 0.0504379 17.9925 0.0548211 17.9639C0.0574888 17.9465 0.0681592 17.8761 0.0938627 17.7886C0.1049 17.751 0.136955 17.6454 0.204328 17.5219C0.223007 17.4877 0.462443 17.0093 1.06098 16.8583C1.87722 16.6523 2.37231 17.2217 2.47536 17.3593C2.6044 17.5316 2.65905 17.6929 2.67283 17.7333C2.71081 17.8447 2.72496 17.9362 2.72753 17.9521C2.73292 17.9852 2.73589 18.0115 2.73727 18.0245C2.74355 18.0835 2.7437 18.13 2.74269 18.093C2.74197 18.0662 2.74105 18.0084 2.74013 17.9127C2.73654 17.5374 2.73426 16.7254 2.73426 15.5635H1.38088ZM1.40109 17.6749L2.75441 17.688C2.76568 16.518 2.76568 14.609 2.75441 13.4391L1.40109 13.4522L0.0477731 13.4652C0.0588779 14.6177 0.0588779 16.5093 0.0477731 17.6619L1.40109 17.6749ZM1.40109 13.4522L2.75441 13.4392C2.75188 13.1749 2.7493 12.9646 2.74389 12.8795C2.74321 12.869 2.74173 12.8469 2.73891 12.8198C2.73751 12.8064 2.73485 12.7825 2.73032 12.753C2.72751 12.7346 2.71669 12.6634 2.69086 12.5755C2.67975 12.5377 2.64765 12.4319 2.58026 12.3084C2.56154 12.2741 2.3223 11.7959 1.72417 11.6445C0.907847 11.4379 0.412258 12.0071 0.30887 12.1451C0.179631 12.3177 0.124864 12.4792 0.111013 12.5198C0.0728736 12.6316 0.0585706 12.7239 0.0558527 12.7406C0.0503193 12.7746 0.0472082 12.802 0.0456802 12.8164C0.0382583 12.8862 0.0369979 12.9582 0.0369244 12.9609C0.0354958 13.0138 0.0344135 13.0928 0.0334979 13.1885C0.0297639 13.5785 0.0274988 14.4029 0.0274988 15.5635H1.38088H2.73426C2.73426 14.4017 2.73654 13.5897 2.74013 13.2144C2.74105 13.1187 2.74197 13.0608 2.74269 13.0341C2.7437 12.997 2.74355 13.0435 2.73727 13.1025C2.73589 13.1156 2.73292 13.1418 2.72753 13.175C2.72496 13.1908 2.7108 13.2824 2.6728 13.3938C2.65903 13.4342 2.60433 13.5956 2.47516 13.768C2.37185 13.9059 1.87633 14.4751 1.06008 14.2685C0.462022 14.1172 0.222857 13.6391 0.20421 13.6049C0.136898 13.4815 0.104869 13.3759 0.0938367 13.3384C0.068149 13.2509 0.0574838 13.1805 0.0548165 13.1631C0.0504349 13.1345 0.047919 13.1118 0.0466774 13.0999C0.0441561 13.0756 0.0429685 13.0574 0.042598 13.0515C0.0420115 13.0423 0.0447439 13.1487 0.0477723 13.4651L1.40109 13.4522ZM20.548 29.459L19.815 28.3212C19.7475 28.3647 19.6817 28.4011 19.6401 28.4215C19.618 28.4323 19.6201 28.43 19.6426 28.4217C19.6538 28.4176 19.6855 28.4062 19.732 28.3945C19.756 28.3884 19.7916 28.3802 19.8362 28.3732C19.8786 28.3666 19.9464 28.3582 20.0311 28.3582V29.7116V31.065C20.3125 31.065 20.5412 30.9753 20.5783 30.9616C20.6705 30.9277 20.7571 30.8883 20.8287 30.8533C20.9745 30.782 21.1327 30.6922 21.2809 30.5967L20.548 29.459ZM20.0311 29.7116V28.3582C19.794 28.3582 19.6066 28.4175 19.5215 28.4472C19.4163 28.4838 19.3243 28.5272 19.2508 28.5661C19.1055 28.6431 18.9575 28.7426 18.8239 28.8575L19.7064 29.8835L20.589 30.9096C20.5653 30.93 20.5454 30.9434 20.5177 30.9581C20.5031 30.9658 20.4674 30.984 20.4122 31.0032C20.3839 31.0131 20.3404 31.0267 20.2846 31.0386C20.2319 31.0499 20.1435 31.065 20.0311 31.065V29.7116ZM19.7064 29.8835L18.8239 28.8575C18.776 28.8987 18.685 28.9776 18.598 29.0738C18.5086 29.1728 18.3544 29.3638 18.2642 29.646C18.0691 30.2563 18.3456 30.7717 18.36 30.8034L19.5917 30.2425L20.8234 29.6816C20.8085 29.649 20.8451 29.7207 20.871 29.8332C20.9048 29.9799 20.9256 30.2099 20.8425 30.47C20.7682 30.7026 20.6458 30.8448 20.6066 30.8883C20.5698 30.929 20.5474 30.9454 20.589 30.9096L19.7064 29.8835ZM19.5917 30.2425L18.3602 30.8038C18.4758 31.0575 18.6417 31.2536 18.7943 31.3914C18.9354 31.5188 19.1795 31.6999 19.5159 31.7845L19.8456 30.4718L20.1753 29.1592C20.31 29.1931 20.4075 29.2431 20.4649 29.2773C20.5259 29.3135 20.573 29.3505 20.6085 29.3826C20.669 29.4372 20.7544 29.5303 20.8232 29.6812L19.5917 30.2425ZM19.8456 30.4718L19.5162 31.7845C20.0005 31.9061 20.4518 31.7796 20.656 31.7145C20.9239 31.6292 21.187 31.5058 21.4151 31.3748C21.64 31.2458 21.8842 31.0788 22.0928 30.8818C22.1961 30.7842 22.323 30.6491 22.4328 30.478C22.5317 30.3239 22.6954 30.0197 22.6954 29.6129H21.342H19.9886C19.9886 29.4426 20.0244 29.3058 20.0578 29.214C20.0913 29.1221 20.1295 29.0555 20.1549 29.016C20.181 28.9753 20.2032 28.9483 20.2149 28.9348C20.2212 28.9275 20.2261 28.9223 20.2292 28.9191C20.2323 28.9159 20.234 28.9142 20.2342 28.914C20.2344 28.9138 20.2304 28.9176 20.2213 28.925C20.2123 28.9323 20.2001 28.9417 20.1845 28.9529C20.1527 28.9756 20.113 29.0013 20.0676 29.0274C19.9708 29.0829 19.8844 29.1196 19.8348 29.1354C19.8105 29.1431 19.8185 29.1382 19.8547 29.1337C19.8796 29.1306 20.0026 29.1159 20.175 29.1592L19.8456 30.4718ZM21.342 29.6129H22.6954C22.6954 29.2185 22.5304 28.9218 22.4845 28.8396C22.4088 28.7037 22.3208 28.5844 22.2391 28.4883C22.1588 28.3938 22.0517 28.2828 21.9211 28.1819C21.8562 28.1318 21.7599 28.0641 21.637 28.0038C21.5308 27.9517 21.3013 27.8529 20.9967 27.8529V29.2063V30.5597C20.7175 30.5597 20.5181 30.4699 20.4447 30.4339C20.3546 30.3897 20.2941 30.3453 20.2663 30.3239C20.2101 30.2805 20.1829 30.2486 20.1762 30.2406C20.1681 30.2311 20.1473 30.2059 20.1203 30.1575C20.1066 30.1329 20.0807 30.0834 20.0556 30.0125C20.0341 29.952 19.9886 29.8083 19.9886 29.6129H21.342ZM20.9967 29.2063V27.8529C20.8196 27.8529 20.6837 27.8883 20.6392 27.9002C20.5772 27.9168 20.5276 27.9346 20.4977 27.9459C20.4375 27.9687 20.3873 27.9921 20.3571 28.0066C20.2932 28.0374 20.23 28.0717 20.1775 28.1012C20.0683 28.1628 19.9406 28.2403 19.815 28.3212L20.548 29.459L21.2809 30.5967C21.371 30.5386 21.4521 30.4899 21.5056 30.4598C21.5344 30.4436 21.5409 30.4408 21.5304 30.4459C21.5269 30.4475 21.4992 30.461 21.4569 30.477C21.436 30.485 21.394 30.5002 21.3385 30.5151C21.31 30.5227 21.2688 30.5327 21.2183 30.5412C21.1706 30.5492 21.0931 30.5597 20.9967 30.5597V29.2063ZM17.8433 30.5635L17.5072 29.2525C17.366 29.2887 17.3501 29.2847 17.3628 29.2844C17.3655 29.2843 17.3309 29.2869 17.1479 29.2555L16.9191 30.5894L16.6902 31.9233C16.9171 31.9622 17.1656 31.9977 17.4385 31.9901C17.7214 31.9821 17.9627 31.9301 18.1794 31.8745L17.8433 30.5635ZM16.9191 30.5894L17.1479 29.2555C16.968 29.2246 16.7707 29.1974 16.5768 29.1914C16.3998 29.1859 16.1073 29.1924 15.7989 29.3139C15.4281 29.4599 15.0988 29.7484 14.9253 30.1698C14.781 30.5203 14.7947 30.8459 14.8116 31.0197L16.1586 30.8889L17.5056 30.758C17.5062 30.7635 17.5295 30.9543 17.4281 31.2005C17.2975 31.5177 17.0445 31.7324 16.7907 31.8324C16.5992 31.9078 16.4643 31.8959 16.4929 31.8968C16.5047 31.8972 16.5611 31.9011 16.6902 31.9233L16.9191 30.5894ZM16.1586 30.8889L14.8115 31.0194C14.837 31.2826 14.9223 31.5862 15.1265 31.8711C15.3279 32.1523 15.5839 32.3295 15.8164 32.4405C16.2248 32.6356 16.692 32.6849 17.0529 32.708L17.1395 31.3574L17.2262 30.0068C17.0823 29.9976 16.9934 29.9861 16.9425 29.9767C16.887 29.9665 16.9149 29.9656 16.983 29.9981C17.0607 30.0352 17.2034 30.1224 17.3267 30.2945C17.4526 30.4702 17.4948 30.6456 17.5057 30.7583L16.1586 30.8889ZM17.1395 31.3574L17.0529 32.708C17.5299 32.7386 18.0228 32.691 18.447 32.5859C18.6593 32.5332 18.8896 32.4576 19.1073 32.3479C19.2957 32.253 19.6198 32.0616 19.8519 31.7074L18.7199 30.9657L17.5879 30.2239C17.6704 30.098 17.7566 30.0232 17.8015 29.9883C17.849 29.9513 17.8825 29.9341 17.8896 29.9305C17.9012 29.9247 17.8734 29.9394 17.7957 29.9586C17.6401 29.9972 17.4253 30.0196 17.2262 30.0068L17.1395 31.3574ZM18.7199 30.9657L19.8519 31.7074C19.861 31.6936 20.1576 31.3014 20.1486 30.77C20.14 30.2626 19.8529 29.8829 19.8459 29.8722L18.7139 30.6139L17.5819 31.3556C17.6073 31.3944 17.582 31.3598 17.5523 31.2975C17.5162 31.2215 17.4462 31.0501 17.4422 30.8158C17.4382 30.5763 17.5049 30.3953 17.5471 30.3035C17.5806 30.2305 17.6115 30.188 17.5879 30.2239L18.7199 30.9657ZM18.7139 30.6139L19.8459 29.8721C19.7787 29.7695 19.6325 29.5592 19.3806 29.3846C19.0987 29.1891 18.8004 29.1152 18.542 29.1002C18.1647 29.0784 17.7548 29.189 17.5071 29.2526L17.8433 30.5635L18.1795 31.8745C18.3328 31.8352 18.4209 31.8149 18.4749 31.8047C18.5385 31.7928 18.4882 31.8084 18.3855 31.8025C18.2495 31.7946 18.0426 31.7506 17.8384 31.609C17.7487 31.5468 17.6852 31.4832 17.6448 31.4371C17.6066 31.3933 17.5851 31.3605 17.5819 31.3557L18.7139 30.6139Z" fill="#6A453C" mask="url(#path-1-outside-1_715_7633)"/>
  <path fill-rule="evenodd" clip-rule="evenodd" d="M32.4222 1.41078C31.9271 1.53133 31.4579 1.90755 31.308 2.30442C31.2652 2.41768 31.2312 3.02806 31.2312 3.68299V4.85829L29.1198 4.90514C24.6153 5.00504 17.6435 5.04257 13.3236 4.99017L8.80609 4.93545L8.73924 3.83696C8.67767 2.82335 8.65746 2.7158 8.4783 2.44503C8.34454 2.24299 8.15354 2.08751 7.86531 1.94602C7.50432 1.76881 7.36695 1.74153 6.8691 1.74817C6.20537 1.75705 5.06161 1.94328 4.37875 2.1537C2.86534 2.61993 1.97907 3.47098 1.7192 4.70742C1.42397 6.11234 1.25095 15.6211 1.41928 21.1939C1.58047 26.5306 1.97459 33.0637 2.1845 33.8779C2.38214 34.6447 2.93991 35.2732 3.77205 35.6669C5.01953 36.257 8.71477 36.8193 12.5355 37.0005C17.114 37.2174 31.938 36.8786 34.8727 36.4899C35.6211 36.3908 36.4112 36.1362 36.8556 35.8511C37.6315 35.3532 38.1308 34.5804 38.1888 33.7874C38.2061 33.5506 38.2281 30.1411 38.2375 26.2107C38.247 22.2803 38.2801 19.2106 38.3111 19.3893C38.3939 19.8661 38.3123 6.26884 38.2273 5.43814C38.1011 4.20401 37.7525 3.32221 37.1311 2.66512C36.6975 2.20661 36.2149 1.91852 35.5298 1.70904C34.5563 1.41136 33.024 1.26432 32.4222 1.41078ZM32.5305 2.14518C32.194 2.24725 32.0368 2.39891 31.9858 2.6709C31.9626 2.79462 31.9777 5.41317 32.0193 8.48979C32.0609 11.5665 32.1283 16.9423 32.169 20.436C32.2098 23.9297 32.2626 27.5393 32.2864 28.4574L32.3296 30.1267L33.5308 30.1657C34.2729 30.1899 34.9111 30.2497 35.2002 30.3222C35.8781 30.4923 36.6261 30.8777 37.0528 31.2768L37.4244 31.6245L37.4738 26.716C37.501 24.0163 37.5286 18.1369 37.5352 13.6507C37.5465 6.01432 37.539 5.45706 37.4166 4.9164C37.1454 3.71749 36.6704 3.01644 35.871 2.63495C35.047 2.24169 33.136 1.96147 32.5305 2.14518ZM6.03898 2.54876C5.22742 2.6875 4.24897 2.95797 3.8438 3.15554C3.25268 3.4437 2.71404 4.00017 2.54355 4.49874C2.32454 5.13916 2.16927 8.25426 2.09629 13.4721C2.02555 18.5332 2.18154 23.6578 2.62028 30.6873L2.66539 31.4103L3.08846 30.9964C3.37402 30.717 3.70513 30.4895 4.10756 30.2963C5.05497 29.8415 5.39633 29.7739 6.95933 29.7319L8.34887 29.6945L8.34829 29.0714C8.34793 28.7287 8.26702 22.738 8.16848 15.7586C8.0475 7.18983 7.9642 3.02178 7.91187 2.92405C7.75076 2.62297 7.41582 2.49809 6.79692 2.50834C6.47931 2.51361 6.13824 2.5318 6.03898 2.54876ZM27.0806 5.67815C25.6117 5.70479 23.9307 5.73099 23.3451 5.73655L22.2804 5.74651V6.14273C22.2804 6.36065 22.22 6.6979 22.1462 6.89215C21.861 7.64271 21.3426 8.08737 20.4402 8.35532C19.2782 8.70035 19.2561 8.74879 19.3245 10.7994C19.3486 11.5229 19.333 11.6712 19.2027 11.9543C18.7978 12.8345 18.0081 13.1491 16.5418 13.0146C15.2274 12.894 14.6277 13.03 14.3709 13.5068C14.2699 13.6943 14.2568 13.8466 14.2961 14.3781C14.4327 16.228 14.4334 16.3538 14.3086 16.6806C14.1653 17.0558 13.7345 17.4678 13.2834 17.6612C12.3699 18.0527 10.8384 18.0071 9.62718 17.5521C9.26373 17.4156 8.95652 17.3139 8.94439 17.3261C8.93219 17.3382 8.95536 19.4072 8.99586 21.9237C9.03635 24.4404 9.06977 26.828 9.07006 27.2296L9.07071 27.9598L9.55853 27.9947C9.82684 28.0139 10.1579 28.0872 10.2942 28.1578C10.7346 28.3855 11.2771 28.9647 11.4978 29.4429C11.7007 29.8823 11.7052 29.919 11.7054 31.1316C11.7054 32.545 11.733 32.6265 12.3225 32.9556C12.8573 33.2543 13.5371 33.2455 15.2098 32.9185C17.3097 32.5081 18.3286 32.5377 19.3295 33.0383C20.2714 33.5094 21.0105 34.6498 21.1625 35.8665L21.2142 36.2803L22.018 36.2796C26.1222 36.2759 34.1422 35.9075 35.2791 35.6705C36.2725 35.4633 37.0152 34.965 37.2931 34.3191C37.6226 33.5532 37.3555 32.5897 36.6213 31.8952C36.1985 31.4953 35.8587 31.2992 35.3043 31.1349L34.938 31.0262L34.7311 31.5011C34.4596 32.1244 33.8207 32.78 33.1802 33.0928C31.8524 33.7411 30.2564 33.6491 28.6768 32.8332C26.7226 31.8239 25.7375 29.6653 26.4048 27.8547C26.4894 27.6254 26.7777 27.1075 27.0455 26.7038C27.6188 25.8399 27.763 25.3963 27.5985 25.0025C27.4602 24.6714 27.1696 24.4617 26.2505 24.0296C25.2974 23.5816 24.7842 23.1312 24.4415 22.4424C24.2227 22.0025 24.1973 21.8884 24.1956 21.3383C24.1933 20.6254 24.3329 20.2443 24.7757 19.7542C25.092 19.4041 25.3953 19.2339 26 19.0672C27.1327 18.7549 27.1668 18.722 27.5419 17.5812C27.8323 16.6983 28.201 16.0783 28.7235 15.5941C29.3876 14.9788 30.1641 14.6044 31.099 14.4484L31.3638 14.4043L31.332 11.898C31.3145 10.5196 31.281 8.53917 31.2575 7.49697L31.2148 5.60214L30.4832 5.616C30.0807 5.62358 28.5496 5.65159 27.0806 5.67815ZM8.80623 8.21708C8.8325 9.61753 8.85402 11.2749 8.85402 11.9002L8.85416 13.0371L9.30531 13.037C10.104 13.037 10.9725 12.4803 11.2646 11.7812C11.3217 11.6446 11.4527 11.1485 11.5558 10.6788C11.7796 9.6586 12.0084 9.15872 12.4079 8.81679C12.8254 8.4594 13.3555 8.28364 14.5206 8.1161C15.0764 8.03612 15.6286 7.93001 15.7477 7.88013C16.15 7.71179 16.4252 7.41584 16.5406 7.02727C16.6758 6.57186 16.6874 5.8257 16.5598 5.78636C16.5102 5.77106 14.7346 5.73879 12.6141 5.71468L8.75852 5.67086L8.80623 8.21708ZM17.3582 6.45031C17.3219 7.28764 17.1709 7.6848 16.7238 8.1187C16.3207 8.50986 15.8178 8.68505 14.6199 8.85165C14.0726 8.92781 13.5017 9.0415 13.3509 9.10437C12.7496 9.35521 12.4598 9.84758 12.2468 10.9799C12.1099 11.7081 11.8982 12.2621 11.6149 12.634C11.0896 13.3236 10.1987 13.769 9.33216 13.7755L8.83568 13.7791L8.88101 14.2128C8.90592 14.4512 8.92634 15.0463 8.92634 15.5353V16.4243L9.4517 16.677C10.1529 17.0143 10.8395 17.1676 11.6693 17.1724C12.8547 17.1791 13.5452 16.857 13.6602 16.2437C13.6906 16.0814 13.6699 15.6374 13.6117 15.2027C13.4181 13.7594 13.5388 13.1473 14.1097 12.6767C14.622 12.2545 15.0359 12.1899 16.6536 12.2802C17.554 12.3304 17.6586 12.3229 17.9691 12.1855C18.1738 12.095 18.3661 11.9422 18.4582 11.7968C18.601 11.5713 18.6073 11.4924 18.5659 10.4385C18.5304 9.53343 18.5438 9.247 18.6358 8.93964C18.8311 8.28703 19.3029 7.88027 20.0871 7.68833C21.0358 7.45605 21.5585 6.8824 21.5585 6.07365V5.74651H19.4736H17.3887L17.3582 6.45031ZM27.1711 8.61583C27.1094 8.68534 26.7329 9.24563 26.3345 9.861C25.9361 10.4764 25.5674 11.036 25.5152 11.1046C25.4295 11.2174 25.3275 11.1431 24.4505 10.3286C23.4157 9.36777 23.2458 9.28151 23.0317 9.60836C22.9224 9.77518 22.9223 9.80239 23.031 9.96819C23.0956 10.0669 23.5829 10.5413 24.1138 11.0226L25.079 11.8975L24.8262 12.341C24.4506 12.9998 23.4353 15.0597 23.4353 15.1629C23.4353 15.3143 23.7028 15.5043 23.8806 15.4791C24.0198 15.4594 24.1833 15.194 24.8268 13.9434C25.2547 13.112 25.6188 12.4175 25.636 12.4004C25.6532 12.3832 25.8228 12.499 26.013 12.6577C26.6989 13.23 28.0023 14.192 28.0919 14.192C28.1423 14.192 28.2569 14.1326 28.3467 14.0599C28.6037 13.8518 28.4931 13.6267 27.9315 13.2153C27.6622 13.018 27.1234 12.6033 26.7342 12.2937L26.0265 11.7308L26.187 11.4636C26.2753 11.3167 26.683 10.6832 27.093 10.0559C27.503 9.42862 27.8386 8.87331 27.8386 8.82191C27.8386 8.68527 27.5973 8.48951 27.429 8.48951C27.3489 8.48951 27.2329 8.54631 27.1711 8.61583ZM1.38088 15.5635C1.38088 17.8861 1.38997 18.8361 1.40109 17.6749C1.41228 16.5136 1.41228 14.6134 1.40109 13.4522C1.38997 12.2909 1.38088 13.241 1.38088 15.5635ZM21.5585 13.4911C21.0388 13.7485 20.9416 13.8247 20.9226 13.989C20.9062 14.1309 20.9484 14.2146 21.0798 14.3007C21.2508 14.4127 21.2848 14.4073 21.7879 14.1885C22.4136 13.9164 22.5691 13.7936 22.5691 13.5714C22.5691 13.4311 22.3319 13.1753 22.2102 13.1843C22.1892 13.1858 21.896 13.3239 21.5585 13.4911ZM19.2553 14.8237C18.9236 15.1831 18.6722 15.519 18.6718 15.6032C18.671 15.806 18.8067 15.9245 19.04 15.9245C19.1926 15.9245 19.3641 15.7872 19.8196 15.3003C20.3972 14.6829 20.5034 14.465 20.317 14.2787C20.2693 14.231 20.1421 14.192 20.0342 14.192C19.8802 14.192 19.713 14.3276 19.2553 14.8237ZM30.5445 15.3325C29.7752 15.5985 29.0803 16.1386 28.669 16.7902C28.5636 16.9571 28.3625 17.45 28.2221 17.8855C27.8243 19.1196 27.5408 19.4108 26.4427 19.7129C25.6593 19.9284 25.4213 20.0577 25.2077 20.3838C24.7995 21.0073 24.8142 21.7195 25.2488 22.3758C25.5301 22.8003 25.83 23.019 26.6698 23.4114C27.5905 23.8416 27.9399 24.0904 28.1666 24.4772C28.5932 25.2053 28.4599 25.9046 27.6666 27.1002C27.131 27.9073 27.071 28.0397 26.9809 28.6143C26.8221 29.6256 27.2145 30.6771 28.0417 31.4574C28.809 32.1812 29.6674 32.5865 30.7533 32.7376C32.1279 32.9288 33.4691 32.362 33.9712 31.3777C34.238 30.8549 34.2616 30.8665 32.9363 30.8665C31.9251 30.8665 31.7398 30.8493 31.6551 30.7472C31.5756 30.6515 31.5489 29.9853 31.5199 27.3736L31.4838 24.1192L31.1119 24.0657C29.9735 23.9021 28.969 23.1608 28.5154 22.1495C27.7847 20.521 28.4722 18.64 30.0896 17.842C30.3842 17.6966 30.7852 17.5617 30.9966 17.5369L31.3756 17.4924V16.3475V15.2026L31.141 15.205C31.0119 15.2063 30.7435 15.2636 30.5445 15.3325ZM18.6631 16.7187C18.4957 16.8165 18.3583 17.3795 18.3988 17.8015C18.4833 18.681 19.1952 18.6767 19.1573 17.7968C19.148 17.5809 19.1669 17.3008 19.1992 17.1743C19.2468 16.9884 19.2295 16.9159 19.109 16.7954C18.9462 16.6326 18.8413 16.6145 18.6631 16.7187ZM30.8187 18.3391C30.1082 18.5611 29.4807 19.0993 29.1838 19.7414C29.0588 20.0118 29.0296 20.2118 29.0296 20.7969C29.0296 21.4395 29.0515 21.5634 29.2295 21.926C29.5749 22.6292 30.3524 23.1976 31.141 23.3232L31.4478 23.3721L31.447 21.0739C31.4465 19.8099 31.426 18.654 31.4014 18.505C31.3515 18.2029 31.3006 18.1885 30.8187 18.3391ZM13.8709 18.7456C12.2213 18.9518 10.8245 20.2594 10.4675 21.9315C10.1906 23.2292 10.607 25.1204 11.7088 27.5689C12.4314 29.1747 13.1574 30.3268 14.003 31.2094C14.6005 31.8331 14.7175 31.8262 15.2353 31.1372C16.7902 29.0684 18.2232 26.0161 18.5609 24.0537C18.7003 23.2433 18.6998 22.8442 18.5581 22.1473C18.3829 21.2856 18.0131 20.6044 17.3695 19.958C16.4185 19.0028 15.1975 18.5797 13.8709 18.7456ZM13.5907 19.5417C13.1256 19.651 12.4543 20.0521 12.0503 20.4622C11.3736 21.1491 11.0288 22.1799 11.1301 23.2133C11.3302 25.256 12.9074 28.8653 14.3009 30.4695C14.5514 30.7578 14.5519 30.7581 14.6936 30.6139C14.9526 30.3506 15.9161 28.776 16.3966 27.8311C18.2402 24.2055 18.3714 21.9618 16.8287 20.4435C16.3809 20.0028 15.8961 19.7242 15.3121 19.5721C14.8499 19.4517 14.0354 19.4374 13.5907 19.5417ZM19.4796 19.6203C19.3022 19.7977 19.3854 20.087 19.721 20.4603C19.9013 20.661 20.1621 20.895 20.3004 20.9804C20.5364 21.1263 20.5626 21.1287 20.7303 21.0188C21.0224 20.8275 20.9529 20.6395 20.378 20.0646C19.8579 19.5444 19.6556 19.4444 19.4796 19.6203ZM14.1766 20.8367C13.4883 21.0056 12.863 21.5577 12.6492 22.1853C12.5162 22.5756 12.5011 23.2638 12.6171 23.6509C12.8398 24.3944 13.6208 24.9943 14.4655 25.0709C16.3407 25.2409 17.5134 22.9989 16.2814 21.5993C15.7726 21.0212 14.8244 20.6776 14.1766 20.8367ZM13.961 21.7001C13.4453 21.9801 13.1639 22.6582 13.2884 23.3214C13.3581 23.6931 13.8536 24.1875 14.268 24.2987C14.9014 24.4687 15.5801 24.1832 15.8717 23.624C16.365 22.6785 15.7516 21.6279 14.6754 21.5749C14.336 21.5583 14.1683 21.5877 13.961 21.7001ZM21.4615 22.1199C21.217 22.39 21.3056 22.5372 21.9889 22.9966C22.3447 23.2358 22.6807 23.4316 22.7357 23.4316C22.8958 23.4316 23.0881 23.1694 23.0621 22.9864C23.0454 22.8682 22.8566 22.6943 22.4287 22.403C21.7698 21.9543 21.6444 21.9177 21.4615 22.1199ZM23.079 24.4241C22.9391 24.5375 22.9253 24.6093 22.9446 25.126C22.9645 25.6572 22.98 25.7085 23.1459 25.791C23.2907 25.863 23.3539 25.8617 23.4708 25.7844C23.6745 25.6495 23.723 24.6403 23.5356 24.4334C23.3831 24.2647 23.2781 24.2626 23.079 24.4241ZM22.4616 27.1525C22.325 27.4521 22.1472 27.7813 22.0664 27.8841C21.9856 27.9868 21.9195 28.1152 21.9195 28.1694C21.9195 28.3029 22.1819 28.5567 22.3199 28.5567C22.4974 28.5567 22.785 28.2011 23.048 27.6564C23.401 26.9252 23.3603 26.6077 22.9138 26.6077C22.7299 26.6077 22.6854 26.6613 22.4616 27.1525ZM9.19422 28.7513C9.08002 28.781 9.06638 28.8684 9.07641 29.5078C9.09237 30.5214 9.16888 30.4752 7.52402 30.4459L6.19909 30.4223L6.14856 30.926C6.05255 31.8815 6.32404 32.5561 6.9018 32.7979C7.04263 32.8569 7.59036 32.9796 8.11897 33.0706C9.25774 33.2667 9.70622 33.4667 10.2685 34.0289C10.724 34.4846 11.0623 35.1294 11.1712 35.7499L11.2492 36.1941L12.2353 36.2547C13.2833 36.3193 20.3676 36.3413 20.4263 36.2803C20.5056 36.1979 20.311 35.3463 20.1182 34.932C19.8338 34.3208 19.4173 33.8898 18.8695 33.64C18.4802 33.4625 18.3089 33.4305 17.6168 33.4062C16.9177 33.3817 16.6366 33.4123 15.4222 33.6458C14.2173 33.8773 13.9261 33.9095 13.2644 33.8838C12.3543 33.8484 11.9208 33.6899 11.4671 33.2264C11.0108 32.7602 10.9226 32.4809 10.95 31.5884C10.9904 30.268 10.9695 30.039 10.7732 29.6515C10.4354 28.9849 9.76541 28.6029 9.19422 28.7513ZM20.548 29.459C20.3323 29.5979 20.0997 29.7116 20.0311 29.7116C19.9625 29.7116 19.8164 29.789 19.7064 29.8835C19.5274 30.0375 19.5154 30.0751 19.5917 30.2425C19.6385 30.3453 19.7528 30.4485 19.8456 30.4718C20.2391 30.5706 21.342 29.9375 21.342 29.6129C21.342 29.4925 21.0989 29.2063 20.9967 29.2063C20.9656 29.2063 20.7637 29.32 20.548 29.459ZM17.8433 30.5635C17.4854 30.6553 17.3289 30.6597 16.9191 30.5894C16.301 30.4833 16.1259 30.5523 16.1586 30.8889C16.1878 31.1899 16.4453 31.3129 17.1395 31.3574C17.8157 31.4008 18.5549 31.2175 18.7199 30.9657C18.8218 30.8101 18.8213 30.7778 18.7139 30.6139C18.5794 30.4087 18.4715 30.4024 17.8433 30.5635ZM4.99145 30.7172C4.04331 31.0549 3.40152 31.5746 3.06897 32.2741C2.90533 32.6182 2.86296 32.8079 2.86296 33.1968C2.86282 34.449 3.6253 35.0465 5.78591 35.4875C6.92006 35.7189 9.88935 36.136 10.403 36.136C10.4905 36.136 10.433 35.7559 10.2861 35.3633C10.0498 34.7316 9.46166 34.1745 8.82305 33.9772C8.55387 33.8941 8.26398 33.8257 8.17888 33.8252C8.0937 33.8246 7.71827 33.7611 7.3445 33.684C5.94832 33.3959 5.3427 32.6071 5.40189 31.154C5.41481 30.8369 5.40918 30.5799 5.38933 30.5829C5.36948 30.5859 5.19046 30.6463 4.99145 30.7172Z" fill="white"/>
</svg>