<svg xmlns="http://www.w3.org/2000/svg" width="22" height="22" viewBox="0 0 22 22" fill="none">
  <path d="M6.73988 15.2601H7.60711L13.556 9.31115L12.6888 8.44392L6.73988 14.3928V15.2601ZM5.52271 16.4773V13.8908L13.556 5.87264C13.6778 5.76107 13.8123 5.67485 13.9595 5.61399C14.1068 5.55313 14.2614 5.52271 14.4233 5.52271C14.5856 5.52271 14.7428 5.55313 14.8949 5.61399C15.0471 5.67485 15.1789 5.76614 15.2905 5.88786L16.1273 6.73988C16.249 6.85145 16.3379 6.98331 16.3939 7.13546C16.4499 7.2876 16.4777 7.43975 16.4773 7.5919C16.4773 7.75419 16.4493 7.90897 16.3933 8.05625C16.3373 8.20353 16.2486 8.33782 16.1273 8.45913L8.1092 16.4773H5.52271ZM13.1148 8.88514L12.6888 8.44392L13.556 9.31115L13.1148 8.88514Z" fill="white"/>
</svg>