<svg xmlns="http://www.w3.org/2000/svg" width="24" height="24" viewBox="0 0 24 24" fill="none">
  <path d="M12.6631 13C14.6961 13.0001 16.5425 14.1862 17.3877 16.0352L17.8047 16.9482C17.9333 17.2295 18 17.5355 18 17.8447C17.9998 19.035 17.035 19.9998 15.8447 20H8.15527C6.96504 19.9998 6.0002 19.035 6 17.8447C6 17.5355 6.06673 17.2295 6.19531 16.9482L6.6123 16.0352C7.45754 14.1862 9.30393 13.0001 11.3369 13H12.6631ZM12 6C13.6569 6 15 7.34315 15 9C15 10.6569 13.6569 12 12 12C10.3431 12 9 10.6569 9 9C9 7.34315 10.3431 6 12 6Z" fill="#A39F9F"/>
</svg>