<svg xmlns="http://www.w3.org/2000/svg" width="24" height="28" viewBox="0 0 24 28" fill="none">
  <path d="M13.3252 14C17.3912 14 21.0839 16.3714 22.7744 20.0693L23.6094 21.8955C23.8665 22.4581 24 23.0699 24 23.6885C23.9998 26.0692 22.0693 27.9989 19.6885 27.999H4.31152C1.93066 27.999 0.000232933 26.0693 0 23.6885C0 23.0699 0.133455 22.4581 0.390625 21.8955L1.22559 20.0693C2.91611 16.3716 6.60794 14.0001 10.6738 14H13.3252ZM12 0C15.3136 0 18 2.68636 18 6C17.9999 9.31359 15.3136 12 12 12C8.68641 12 6.00006 9.31358 6 6C6 2.68636 8.68637 1.08238e-05 12 0Z" fill="#6A453C"/>
</svg>