<svg xmlns="http://www.w3.org/2000/svg" width="24" height="28" viewBox="0 0 24 28" fill="none">
  <path d="M13.3252 14C17.3912 14 21.0839 16.3723 22.7744 20.0703L23.6094 21.8965C23.8663 22.4588 24 23.0702 24 23.6885L23.9941 23.9102C23.8823 26.1145 22.1145 27.8824 19.9102 27.9941L19.6885 28H4.31152L4.08887 27.9941C1.81134 27.8784 0.000252606 25.9947 0 23.6885C6.37634e-06 23.1474 0.10217 22.6116 0.299805 22.1094L0.390625 21.8965L1.22559 20.0703C2.91606 16.3724 6.60785 14.0001 10.6738 14H13.3252ZM10.6738 15C6.99934 15.0001 3.66259 17.1436 2.13477 20.4854L1.2998 22.3115C1.10241 22.7435 1.00001 23.2136 1 23.6885C1.00026 25.517 2.48296 27 4.31152 27H19.6885C21.517 26.9999 22.9997 25.5169 23 23.6885C23 23.2136 22.8976 22.7435 22.7002 22.3115L21.8652 20.4854C20.3374 17.1434 16.9998 15 13.3252 15H10.6738ZM12.3086 0.0078125C15.4788 0.168487 18 2.78989 18 6L17.9922 6.30859C17.8315 9.47873 15.2101 11.9999 12 12L11.6914 11.9922C8.62343 11.8367 6.16331 9.37656 6.00781 6.30859L6 6C6 2.6864 8.68642 7.44799e-05 12 0L12.3086 0.0078125ZM12 1C9.2387 1.00007 7 3.23869 7 6C7.00006 8.76126 9.23874 10.9999 12 11C14.7613 10.9999 16.9999 8.76127 17 6C17 3.23868 14.7613 1.00006 12 1Z" fill="white"/>
</svg>