<svg xmlns="http://www.w3.org/2000/svg" width="32" height="37" viewBox="0 0 32 37" fill="none">
  <path fill-rule="evenodd" clip-rule="evenodd" d="M1.6916 0.136702C1.20615 0.308557 0.513255 0.947046 0.230537 1.48297L0 1.91992V18.4724V35.0249L0.182804 35.4203C0.445249 35.9878 0.925656 36.4807 1.48322 36.7545L1.96748 36.9924H13.1735H24.3796L24.8166 36.7618C25.0569 36.635 25.4295 36.3356 25.6445 36.0964C26.3232 35.3415 26.3088 35.4753 26.2837 30.1761L26.2616 25.5043L25.1709 27.1137L24.0802 28.7231V31.5797C24.0802 33.7432 24.054 34.4719 23.9724 34.5837C23.8712 34.722 23.1984 34.731 13.1761 34.7288C4.3536 34.7268 2.46773 34.7063 2.37303 34.6116C2.27783 34.5165 2.25824 31.7591 2.25815 18.4671C2.25807 3.32521 2.26636 2.43129 2.40717 2.3283C2.64121 2.15722 23.6369 2.16928 23.8714 2.34071C24.0323 2.45841 24.0387 2.64806 24.0802 8.51183L24.123 14.5615L24.9693 13.2877C25.4348 12.5872 25.9256 11.8736 26.06 11.7022L26.3043 11.3905V6.76539C26.3043 2.28587 26.2987 2.12514 26.1259 1.66321C25.8877 1.02669 25.2729 0.411806 24.6363 0.173656C24.1615 -0.00401579 24.1106 -0.00478599 13.1061 0.00197187C3.52367 0.00778876 2.00495 0.0257537 1.6916 0.136702ZM6.16685 4.32136C5.64162 4.51383 5.29346 4.83025 5.04239 5.34342C4.85112 5.73443 4.81074 5.93238 4.81117 6.47754C4.81202 7.45906 5.13212 8.10995 5.80945 8.50687C6.32399 8.8084 7.01577 8.92218 7.64288 8.80849C8.11157 8.72346 8.17171 8.73193 8.52123 8.93176C8.72756 9.04972 9.00232 9.14664 9.13167 9.14724C9.40309 9.14844 9.70908 8.88103 9.70908 8.64262C9.70908 8.48275 9.26203 8.03621 9.10198 8.03621C9.05758 8.03621 9.10857 7.87265 9.21524 7.67266C9.49197 7.15393 9.49736 5.84735 9.22482 5.34162C8.80378 4.56036 8.12842 4.18834 7.1428 4.19467C6.78994 4.19698 6.35076 4.25395 6.16685 4.32136ZM10.3425 4.36738C10.195 4.53085 10.1798 4.69073 10.1826 6.05684C10.1854 7.4227 10.2027 7.59815 10.366 7.9079C10.7216 8.58274 11.2128 8.82646 12.2344 8.83475C13.0959 8.84177 13.6262 8.61628 13.9705 8.09652C14.1958 7.75632 14.2006 7.72048 14.2273 6.16078C14.2534 4.643 14.2465 4.5631 14.0743 4.37927C13.8328 4.12144 13.3081 4.11477 13.0799 4.36661C12.9358 4.52555 12.9138 4.71306 12.89 5.9837C12.8592 7.62766 12.8227 7.71739 12.1849 7.71739C11.5835 7.71739 11.5542 7.64032 11.5055 5.93033C11.4667 4.57106 11.447 4.41768 11.2967 4.30801C11.0427 4.12264 10.5349 4.15421 10.3425 4.36738ZM15.343 4.35036C15.1413 4.51366 15.141 4.51656 15.141 6.48652C15.141 8.41234 15.1456 8.46367 15.3316 8.64972C15.6146 8.93278 16.0875 8.90952 16.3542 8.59934L16.5615 8.35845L16.5355 6.43597C16.51 4.53333 16.5077 4.51186 16.3077 4.35019C16.0491 4.14086 15.6016 4.14095 15.343 4.35036ZM17.9433 4.24334C17.7311 4.28842 17.4934 4.57704 17.4934 4.7897C17.4934 4.86515 17.5806 5.00878 17.6872 5.10886C17.8442 5.25634 18.0074 5.29577 18.5471 5.3163L19.2131 5.34162L18.4324 6.4109C18.0029 6.99901 17.5711 7.5665 17.4727 7.67197C17.2375 7.92415 17.2414 8.33535 17.4813 8.57564C17.6573 8.75186 17.7585 8.76495 19.1348 8.79053C19.941 8.8055 20.6879 8.79574 20.7947 8.76897C21.2222 8.6617 21.3862 8.24545 21.136 7.90285C21.0311 7.75922 20.8764 7.73108 19.9885 7.69404L18.9621 7.65127L19.9899 6.43049C20.8566 5.40099 21.0191 5.16267 21.0262 4.91006C21.032 4.70638 20.9737 4.5495 20.8444 4.42007C20.6662 4.2418 20.5734 4.22871 19.3945 4.21605C18.7018 4.2087 18.0487 4.22093 17.9433 4.24334ZM6.5754 5.45043C6.28883 5.6826 6.18472 5.96377 6.18472 6.50569C6.18472 6.84007 6.23776 7.09824 6.34375 7.27967C6.5458 7.62561 6.71509 7.68908 6.71509 7.41885C6.71509 7.30679 6.76128 7.16881 6.81774 7.11235C6.95692 6.97318 7.39053 6.98378 7.67718 7.13331C7.89087 7.24477 7.92004 7.24135 7.99797 7.09567C8.12166 6.86462 8.10344 6.19585 7.96452 5.86335C7.89891 5.70629 7.75563 5.5151 7.64605 5.43837C7.38506 5.25557 6.80799 5.26207 6.5754 5.45043ZM28.3146 11.6216C27.6638 11.7847 27.3047 12.1073 26.5449 13.2115C25.1449 15.2463 18.5045 25.1721 18.4333 25.3364C18.3873 25.4427 18.1762 26.6622 17.9642 28.0465C17.4157 31.627 17.3045 31.559 20.5791 29.6467L22.8309 28.3317L27.0943 22.012C29.4391 18.5361 31.4564 15.4879 31.5769 15.2382C31.966 14.4323 31.829 13.4637 31.2527 12.9454C31.0075 12.7248 29.8648 11.9597 29.5122 11.78C29.1813 11.6114 28.6407 11.5399 28.3146 11.6216ZM5.88644 12.0713C5.0879 12.2853 5.04068 13.406 5.81646 13.7301C6.58361 14.0506 7.32004 13.2407 6.93622 12.4985C6.74836 12.1352 6.31141 11.9573 5.88644 12.0713ZM9.10369 12.3068C8.90763 12.5029 8.85365 12.6334 8.85365 12.9121C8.85365 13.1908 8.90763 13.3214 9.10369 13.5175L9.35373 13.7676H14.6198H19.8859L20.1633 13.5197C20.3929 13.3145 20.4408 13.2098 20.4408 12.9121C20.4408 12.6144 20.3929 12.5097 20.1633 12.3046L19.8859 12.0567H14.6198H9.35373L9.10369 12.3068ZM28.3852 14.2167C28.29 14.3226 27.552 15.3918 26.745 16.5928C25.1736 18.9314 25.0883 19.1245 25.4703 19.4742C25.7426 19.7234 26.0058 19.783 26.2557 19.652C26.382 19.5858 27.1085 18.5964 28.013 17.2589C29.6875 14.7824 29.7691 14.5974 29.357 14.2102C29.0879 13.9574 28.6155 13.9605 28.3852 14.2167ZM5.51091 18.0381C5.03803 18.5111 5.29055 19.3979 5.93862 19.5402C6.29285 19.6181 6.76171 19.3946 6.93083 19.0675C7.38377 18.1917 6.2091 17.34 5.51091 18.0381ZM9.29077 17.9075C8.80284 18.1779 8.70857 18.8538 9.10369 19.2489L9.35373 19.4989H14.6242C20.4617 19.4989 20.2104 19.523 20.4014 18.9445C20.526 18.5668 20.4379 18.2613 20.1294 18.0017L19.8755 17.7881L14.6853 17.7911C10.5417 17.7935 9.45399 17.817 9.29077 17.9075ZM5.69799 23.6388C5.43092 23.7868 5.26771 24.091 5.26386 24.4475C5.26164 24.6617 5.33426 24.8075 5.55171 25.025C5.98772 25.461 6.56171 25.3941 6.89019 24.8688C7.36992 24.1019 6.49362 23.1978 5.69799 23.6388ZM9.26648 23.6659C8.79155 23.9605 8.71764 24.562 9.10318 24.9937L9.35271 25.273L13.2067 25.2978L17.0607 25.3225L17.1958 24.9984C17.2701 24.8201 17.4829 24.4406 17.6688 24.155C17.8546 23.8694 18.0067 23.6096 18.0067 23.5776C18.0067 23.5456 16.0917 23.5204 13.751 23.5217C9.93842 23.5237 9.47144 23.5387 9.26648 23.6659ZM5.56266 29.5307C5.34504 29.7483 5.26087 29.9076 5.26087 30.1019C5.26087 30.9339 6.12579 31.342 6.73511 30.7975C6.97326 30.5848 7.01449 30.4904 7.01449 30.1579C7.01449 29.6588 6.73083 29.3451 6.21732 29.2762C5.89833 29.2334 5.83545 29.2579 5.56266 29.5307ZM9.4001 29.3346C8.84416 29.5592 8.69317 30.2661 9.10318 30.725L9.35271 31.0044L12.8681 31.0285L16.3834 31.0526L16.3641 30.6863C16.3534 30.4849 16.376 30.0795 16.4142 29.7854L16.4837 29.2508L13.0322 29.2561C11.134 29.2591 9.4995 29.2945 9.4001 29.3346Z" fill="#6A453C"/>
</svg>