<svg xmlns="http://www.w3.org/2000/svg" width="32" height="29" viewBox="0 0 32 29" fill="none">
  <path d="M25 14.5H7C6.05719 14.5 5.58579 14.5 5.29289 14.7929C5 15.0858 5 15.5572 5 16.5V23.5C5 24.4428 5 24.9142 5.29289 25.2071C5.58579 25.5 6.05719 25.5 7 25.5H25C25.9428 25.5 26.4142 25.5 26.7071 25.2071C27 24.9142 27 24.4428 27 23.5V16.5C27 15.5572 27 15.0858 26.7071 14.7929C26.4142 14.5 25.9428 14.5 25 14.5Z" fill="white"/>
  <path d="M25 3.5H7C6.05719 3.5 5.58579 3.5 5.29289 3.79289C5 4.08579 5 4.55719 5 5.5V12.5C5 13.4428 5 13.9142 5.29289 14.2071C5.58579 14.5 6.05719 14.5 7 14.5H25C25.9428 14.5 26.4142 14.5 26.7071 14.2071C27 13.9142 27 13.4428 27 12.5V5.5C27 4.55719 27 4.08579 26.7071 3.79289C26.4142 3.5 25.9428 3.5 25 3.5Z" fill="white" fill-opacity="0.21"/>
  <path d="M2.5 11V3.5C2.5 1.84315 3.84315 0.5 5.5 0.5H13M2.5 18V25.5C2.5 27.1569 3.84315 28.5 5.5 28.5H13M29.5 11V3.5C29.5 1.84315 28.1569 0.5 26.5 0.5H18.5M29.5 18V25.5C29.5 27.1569 28.1569 28.5 26.5 28.5H18.5" stroke="white"/>
  <path d="M0 15C0 14.7239 0.223858 14.5 0.5 14.5H31.5C31.7761 14.5 32 14.7239 32 15C32 15.2761 31.7761 15.5 31.5 15.5H0.5C0.223858 15.5 0 15.2761 0 15Z" fill="white"/>
</svg>