<svg xmlns="http://www.w3.org/2000/svg" width="22" height="22" viewBox="0 0 22 22" fill="none">
  <path d="M19.4603 6.51934L19.0097 5.73737C18.669 5.14598 18.4986 4.85029 18.2087 4.73237C17.9188 4.61447 17.5909 4.70751 16.9351 4.89359L15.8212 5.20735C15.4026 5.30389 14.9633 5.24912 14.5811 5.05271L14.2735 4.87528C13.9457 4.66532 13.6936 4.35577 13.554 3.9919L13.2492 3.08142C13.0487 2.4789 12.9485 2.17764 12.7099 2.00532C12.4713 1.83301 12.1544 1.83301 11.5205 1.83301H10.5028C9.869 1.83301 9.55205 1.83301 9.31342 2.00532C9.07484 2.17764 8.97462 2.4789 8.77418 3.08142L8.46931 3.9919C8.32975 4.35577 8.07761 4.66532 7.74982 4.87528L7.44229 5.05271C7.06002 5.24912 6.62079 5.30389 6.20213 5.20735L5.08821 4.89359C4.43245 4.70751 4.10458 4.61447 3.81467 4.73237C3.52476 4.85029 3.35438 5.14598 3.0136 5.73737L2.56302 6.51934C2.2436 7.07369 2.08388 7.35087 2.11488 7.64593C2.14587 7.94099 2.35969 8.17877 2.78731 8.65432L3.72852 9.70658C3.95857 9.99779 4.12189 10.5053 4.12189 10.9617C4.12189 11.4182 3.95862 11.9256 3.72855 12.2169L2.78731 13.2692C2.35969 13.7448 2.14588 13.9825 2.11488 14.2776C2.08388 14.5727 2.2436 14.8498 2.56302 15.4041L3.01359 16.1861C3.35436 16.7775 3.52476 17.0732 3.81467 17.1911C4.10458 17.309 4.43246 17.216 5.08823 17.0299L6.20209 16.7161C6.62082 16.6195 7.06014 16.6744 7.44245 16.8709L7.74993 17.0483C8.07767 17.2583 8.32974 17.5677 8.46928 17.9316L8.77418 18.8422C8.97462 19.4447 9.07484 19.746 9.31342 19.9183C9.55205 20.0906 9.869 20.0906 10.5028 20.0906H11.5205C12.1544 20.0906 12.4713 20.0906 12.7099 19.9183C12.9485 19.746 13.0487 19.4447 13.2492 18.8422L13.5541 17.9316C13.6936 17.5677 13.9456 17.2583 14.2735 17.0483L14.5809 16.8709C14.9632 16.6744 15.4025 16.6195 15.8212 16.7161L16.9351 17.0299C17.5909 17.216 17.9188 17.309 18.2087 17.1911C18.4986 17.0732 18.669 16.7775 19.0097 16.1861L19.4603 15.4041C19.7798 14.8498 19.9394 14.5727 19.9085 14.2776C19.8774 13.9825 19.6636 13.7448 19.236 13.2692L18.2948 12.2169C18.0647 11.9256 17.9014 11.4182 17.9014 10.9617C17.9014 10.5053 18.0648 9.99779 18.2948 9.70658L19.236 8.65432C19.6636 8.17877 19.8774 7.94099 19.9085 7.64593C19.9394 7.35087 19.7798 7.07369 19.4603 6.51934Z" stroke="white" stroke-width="1.36932" stroke-linecap="round"/>
  <path d="M14.1675 10.9544C14.1675 12.7189 12.737 14.1494 10.9724 14.1494C9.2078 14.1494 7.77734 12.7189 7.77734 10.9544C7.77734 9.18976 9.2078 7.75928 10.9724 7.75928C12.737 7.75928 14.1675 9.18976 14.1675 10.9544Z" stroke="white" stroke-width="1.36932"/>
</svg>