<svg xmlns="http://www.w3.org/2000/svg" width="25" height="25" viewBox="0 0 25 25" fill="none">
  <path d="M12.012 15.5117C13.945 15.5117 15.512 13.9447 15.512 12.0117C15.512 10.0787 13.945 8.51172 12.012 8.51172C10.079 8.51172 8.51196 10.0787 8.51196 12.0117C8.51196 13.9447 10.079 15.5117 12.012 15.5117Z" stroke="#605D5D" stroke-width="1.02383" stroke-miterlimit="10"/>
  <path d="M23.512 13.662V10.237L21.512 10.092C21.1184 10.0632 20.7406 9.92543 20.4209 9.69405C20.1012 9.46268 19.8523 9.14685 19.702 8.78196V8.75696C19.5502 8.39193 19.5031 7.99188 19.5658 7.60157C19.6285 7.21127 19.7985 6.84611 20.057 6.54696L21.367 5.04696L18.932 2.60696L17.432 3.91696C17.1328 4.17539 16.7677 4.34546 16.3774 4.40816C15.987 4.47086 15.587 4.4237 15.222 4.27196H15.197C14.8337 4.12784 14.5183 3.88454 14.2867 3.56981C14.0551 3.25509 13.9166 2.88161 13.887 2.49196L13.722 0.511963H10.297L10.152 2.48196C10.1228 2.87357 9.98462 3.24921 9.75313 3.56641C9.52163 3.88362 9.20602 4.12974 8.84196 4.27696C8.47693 4.4287 8.07688 4.47586 7.68657 4.41316C7.29627 4.35046 6.93111 4.18039 6.63196 3.92196L5.13196 2.61196L2.66696 5.01196L3.97696 6.51196C4.23539 6.81111 4.40546 7.17627 4.46816 7.56657C4.53086 7.95688 4.4837 8.35693 4.33196 8.72196C4.18992 9.09952 3.94334 9.42884 3.62105 9.67145C3.29876 9.91405 2.91408 10.0599 2.51196 10.092L0.511963 10.237V13.662L2.51196 13.812C2.90555 13.8407 3.28335 13.9785 3.60303 14.2099C3.92272 14.4413 4.17166 14.7571 4.32196 15.122V15.147C4.4737 15.512 4.52086 15.912 4.45816 16.3024C4.39546 16.6927 4.22539 17.0578 3.96696 17.357L2.65696 18.857L5.07696 21.277L6.57696 19.967C6.87611 19.7085 7.24127 19.5385 7.63157 19.4758C8.02188 19.4131 8.42193 19.4602 8.78696 19.612H8.81196C9.17891 19.7692 9.49535 20.0247 9.72648 20.3502C9.95761 20.6757 10.0945 21.0587 10.122 21.457L10.297 23.512H13.722L13.867 21.487C13.8958 21.0916 14.0335 20.7118 14.2646 20.3898C14.4958 20.0677 14.8116 19.8158 15.177 19.662H15.202C15.5665 19.5096 15.9663 19.4616 16.3566 19.5234C16.7469 19.5852 17.1123 19.7544 17.412 20.012L18.912 21.317L21.332 18.892L20.022 17.392C19.7635 17.0928 19.5935 16.7277 19.5308 16.3374C19.4681 15.947 19.5152 15.547 19.667 15.182V15.157C19.8146 14.7804 20.0667 14.4539 20.3935 14.2156C20.7203 13.9774 21.1083 13.8373 21.512 13.812L23.512 13.662Z" stroke="#605D5D" stroke-width="1.02383" stroke-miterlimit="10"/>
</svg>