<svg xmlns="http://www.w3.org/2000/svg" width="33" height="32" viewBox="0 0 33 32" fill="none">
  <path d="M15.8384 1.01367C16.2295 0.930529 16.6338 0.930521 17.0249 1.01367C17.967 1.21404 18.5464 2.00399 18.9888 2.81543C19.4515 3.66434 19.9337 4.87005 20.5347 6.36816C20.8878 7.24852 21.1312 7.8543 21.3638 8.31641C21.5887 8.76344 21.7749 9.01548 21.9819 9.20312C22.1186 9.327 22.2673 9.43798 22.4253 9.5332C22.6638 9.67686 22.9605 9.78288 23.4585 9.87012C23.9726 9.96016 24.6294 10.0191 25.5825 10.1045C27.1426 10.2442 28.404 10.3561 29.3296 10.5557C30.2239 10.7485 31.1269 11.0839 31.5825 11.9346C31.733 12.2157 31.8353 12.52 31.8853 12.835C32.0359 13.7856 31.5254 14.5948 30.9331 15.2861C30.3219 15.9995 29.3929 16.8429 28.2466 17.8857L27.5981 18.4756C26.4522 19.5182 26.071 19.8838 25.853 20.3115C25.7111 20.5902 25.6164 20.8907 25.5718 21.2002C25.5033 21.6753 25.6034 22.1937 25.939 23.7061L26.0532 24.2207C26.3358 25.4942 26.5613 26.5094 26.6665 27.2832C26.7648 28.006 26.8043 28.7817 26.4546 29.4023C25.9727 30.2572 25.0852 30.8048 24.105 30.8516C23.3935 30.8854 22.7184 30.502 22.1167 30.0898C21.4724 29.6486 20.667 28.991 19.6558 28.167C18.9696 27.6079 18.4936 27.2209 18.0972 26.9434C17.7106 26.6727 17.4524 26.5447 17.2183 26.4775C16.7043 26.3302 16.159 26.3302 15.645 26.4775C15.4109 26.5447 15.1527 26.6727 14.7661 26.9434C14.3697 27.2209 13.8936 27.6079 13.2075 28.167C12.1963 28.991 11.3908 29.6486 10.7466 30.0898C10.1448 30.502 9.46978 30.8854 8.7583 30.8516C7.77794 30.8047 6.88955 30.2574 6.40771 29.4023C6.05798 28.7817 6.09853 28.006 6.19678 27.2832C6.30196 26.5094 6.52752 25.4942 6.81006 24.2207L6.92432 23.7061C7.25986 22.1937 7.35996 21.6753 7.2915 21.2002C7.2469 20.8907 7.15123 20.5902 7.00928 20.3115C6.79132 19.884 6.41075 19.5179 5.26514 18.4756L4.6167 17.8857C3.47024 16.8427 2.54044 15.9996 1.9292 15.2861C1.33698 14.5948 0.827381 13.7855 0.978027 12.835C1.02794 12.52 1.13023 12.2157 1.28076 11.9346C1.73635 11.0839 2.63935 10.7485 3.53369 10.5557C4.45927 10.3561 5.72073 10.2442 7.28076 10.1045C8.23393 10.0191 8.8907 9.96017 9.40479 9.87012C9.90278 9.78288 10.1995 9.67687 10.438 9.5332C10.596 9.43798 10.7446 9.327 10.8813 9.20312C11.0884 9.01548 11.2746 8.76343 11.4995 8.31641C11.732 7.8543 11.9755 7.24854 12.3286 6.36816C12.9295 4.87004 13.4118 3.66434 13.8745 2.81543C14.3169 2.00399 14.8962 1.21404 15.8384 1.01367Z" stroke="white" stroke-width="1.9022"/>
</svg>